<?xml version="1.0" encoding="iso-8859-1"?>
<!-- Generator: Adobe Illustrator 16.0.2, SVG Export Plug-In . SVG Version: 6.00 Build 0)  -->
<!DOCTYPE svg PUBLIC "-//W3C//DTD SVG 1.1//EN" "http://www.w3.org/Graphics/SVG/1.1/DTD/svg11.dtd">
<svg version="1.1" xmlns="http://www.w3.org/2000/svg" xmlns:xlink="http://www.w3.org/1999/xlink" x="0px" y="0px"
	 width="95.918px" height="95.999px" viewBox="0 0 95.918 95.999" style="enable-background:new 0 0 95.918 95.999;"
	 xml:space="preserve">
<g id="_x31_3">
	<path d="M48,0C21.49,0,0,21.49,0,48s21.49,48,48,48s48-21.49,48-48S74.51,0,48,0z M37.598,73.461H25.837V32.26h-0.16l-9.92,4.721
		l-2-9.121l13.76-6.4h10.081V73.461z M56.396,74.341c-6.719,0-12.4-1.76-15.44-3.68l2.48-9.12c2.159,1.12,7.12,3.2,12.081,3.2
		c6.32,0,9.52-3.041,9.52-6.961c0-5.12-5.119-7.439-10.48-7.439h-4.959V41.62h4.719c4.08-0.08,9.281-1.6,9.281-6
		c0-3.12-2.561-5.44-7.682-5.44c-4.238,0-8.72,1.839-10.88,3.12l-2.48-8.8c3.12-2,9.36-3.92,16.081-3.92
		c11.121,0,17.281,5.84,17.281,12.96c0,5.521-3.121,9.84-9.521,12.08v0.16c6.24,1.12,11.281,5.84,11.281,12.641
		C77.678,67.621,69.598,74.341,56.396,74.341z"/>
</g>
<g id="&#x5716;&#x5C64;_1">
</g>
</svg>
