<?xml version="1.0" encoding="iso-8859-1"?>
<!-- Generator: Adobe Illustrator 16.0.2, SVG Export Plug-In . SVG Version: 6.00 Build 0)  -->
<!DOCTYPE svg PUBLIC "-//W3C//DTD SVG 1.1//EN" "http://www.w3.org/Graphics/SVG/1.1/DTD/svg11.dtd">
<svg version="1.1" xmlns="http://www.w3.org/2000/svg" xmlns:xlink="http://www.w3.org/1999/xlink" x="0px" y="0px"
	 width="95.918px" height="95.999px" viewBox="0 0 95.918 95.999" style="enable-background:new 0 0 95.918 95.999;"
	 xml:space="preserve">
<g id="_x31_4">
	<g>
		<path d="M57.406,40.42l-6.961,11.36v0.16h11.682V40.42c0-3.12,0.16-6.32,0.398-9.68h-0.318C60.525,34.1,59.166,37.14,57.406,40.42
			z"/>
		<path d="M48,0C21.49,0,0,21.49,0,48s21.49,48,48,48s48-21.49,48-48S74.51,0,48,0z M35.966,73.461H24.205V32.26h-0.16l-9.92,4.721
			l-2-9.121l13.76-6.4h10.081V73.461z M79.887,61.061h-6.24v12.4h-11.52v-12.4H39.085v-7.92L58.766,21.46h14.881v30.48h6.24V61.061z
			"/>
	</g>
</g>
<g id="&#x5716;&#x5C64;_1">
</g>
</svg>
