<?xml version="1.0" encoding="iso-8859-1"?>
<!-- Generator: Adobe Illustrator 16.0.2, SVG Export Plug-In . SVG Version: 6.00 Build 0)  -->
<!DOCTYPE svg PUBLIC "-//W3C//DTD SVG 1.1//EN" "http://www.w3.org/Graphics/SVG/1.1/DTD/svg11.dtd">
<svg version="1.1" xmlns="http://www.w3.org/2000/svg" xmlns:xlink="http://www.w3.org/1999/xlink" x="0px" y="0px"
	 width="95.918px" height="95.999px" viewBox="0 0 95.918 95.999" style="enable-background:new 0 0 95.918 95.999;"
	 xml:space="preserve">
<g id="_x31_5">
	<path d="M48,0C21.49,0,0,21.49,0,48s21.49,48,48,48s48-21.49,48-48S74.51,0,48,0z M37.565,73.461H25.805V32.26h-0.16l-9.92,4.721
		l-2-9.121l13.76-6.4h10.081V73.461z M55.471,74.341c-6.32,0-11.602-1.439-14.481-2.96l2.16-9.12c2.319,1.12,7.04,2.56,11.761,2.56
		c5.039,0,10.4-2.399,10.4-7.92c0-5.36-4.24-8.64-14.641-8.64c-2.881,0-4.881,0.159-7.041,0.479l3.44-27.28h28.642v10H55.549
		l-1.119,8c1.119-0.16,2.08-0.16,3.359-0.16c4.961,0,10.002,1.12,13.682,3.761c3.92,2.64,6.32,6.96,6.32,13.04
		C77.791,65.781,69.471,74.341,55.471,74.341z"/>
</g>
<g id="&#x5716;&#x5C64;_1">
</g>
</svg>
