<?xml version="1.0" encoding="iso-8859-1"?>
<!-- Generator: Adobe Illustrator 16.0.2, SVG Export Plug-In . SVG Version: 6.00 Build 0)  -->
<!DOCTYPE svg PUBLIC "-//W3C//DTD SVG 1.1//EN" "http://www.w3.org/Graphics/SVG/1.1/DTD/svg11.dtd">
<svg version="1.1" xmlns="http://www.w3.org/2000/svg" xmlns:xlink="http://www.w3.org/1999/xlink" x="0px" y="0px"
	 width="95.918px" height="95.999px" viewBox="0 0 95.918 95.999" style="enable-background:new 0 0 95.918 95.999;"
	 xml:space="preserve">
<g id="_x31_6">
	<g>
		<path d="M59.34,47.221c-3.279,0-6,2-7.199,4.64c-0.32,0.64-0.48,1.601-0.48,3.04c0.24,5.521,2.881,10.48,8.4,10.48
			c4.32,0,7.041-3.92,7.041-9.2C67.102,51.381,64.541,47.221,59.34,47.221z"/>
		<path d="M48,0C21.49,0,0,21.49,0,48s21.49,48,48,48s48-21.49,48-48S74.51,0,48,0z M36.35,73.461H24.589V32.26h-0.16l-9.92,4.721
			l-2-9.121l13.76-6.4H36.35V73.461z M60.221,74.341c-13.841,0-20.641-10.32-20.641-22.721c0-9.76,3.6-17.92,9.2-23.12
			c5.2-4.72,11.921-7.28,20.081-7.68c2.24-0.16,3.68-0.16,4.879-0.08v9.36c-1.359-0.08-2.799,0-4.719,0.16
			c-10.801,0.88-15.602,6.4-16.961,12.48h0.24c2.561-2.64,6.16-4.16,11.039-4.16c8.721,0,16.082,6.16,16.082,16.961
			C79.422,65.86,71.5,74.341,60.221,74.341z"/>
	</g>
</g>
<g id="&#x5716;&#x5C64;_1">
</g>
</svg>
