<?xml version="1.0" encoding="iso-8859-1"?>
<!-- Generator: Adobe Illustrator 16.0.2, SVG Export Plug-In . SVG Version: 6.00 Build 0)  -->
<!DOCTYPE svg PUBLIC "-//W3C//DTD SVG 1.1//EN" "http://www.w3.org/Graphics/SVG/1.1/DTD/svg11.dtd">
<svg version="1.1" xmlns="http://www.w3.org/2000/svg" xmlns:xlink="http://www.w3.org/1999/xlink" x="0px" y="0px"
	 width="95.918px" height="95.999px" viewBox="0 0 95.918 95.999" style="enable-background:new 0 0 95.918 95.999;"
	 xml:space="preserve">
<g id="_x31_8">
	<g>
		<path d="M60.396,41.86c2.801-0.8,5.281-3.36,5.281-6.641c0-3.2-1.84-6.4-6.32-6.4c-4.16,0-6.32,2.72-6.32,6
			C53.037,38.34,56.236,40.58,60.396,41.86z"/>
		<path d="M58.557,50.9c-4,1.12-6.32,4-6.32,7.76c-0.08,3.761,2.801,7.28,7.361,7.28c4.32,0,7.119-2.8,7.119-6.479
			C66.717,54.9,63.357,52.181,58.557,50.9z"/>
		<path d="M48,0C21.49,0,0,21.49,0,48s21.49,48,48,48s48-21.49,48-48S74.51,0,48,0z M36.573,73.461h-11.76V32.26h-0.16l-9.92,4.721
			l-2-9.121l13.76-6.4h10.08V73.461z M59.117,74.341c-13.2,0-19.281-7.44-19.281-14.48c0-6.24,3.601-10.56,9.281-13.04v-0.24
			c-5.041-2.56-7.521-6.8-7.521-11.36c0-8.8,7.921-14.64,18.321-14.64c12.16,0,17.199,7.041,17.199,13.361
			c0,4.479-2.4,8.88-7.52,11.439v0.24c5.041,1.92,9.52,6.24,9.52,12.961C79.117,68.021,71.197,74.341,59.117,74.341z"/>
	</g>
</g>
<g id="&#x5716;&#x5C64;_1">
</g>
</svg>
