<?xml version="1.0" encoding="iso-8859-1"?>
<!-- Generator: Adobe Illustrator 16.0.2, SVG Export Plug-In . SVG Version: 6.00 Build 0)  -->
<!DOCTYPE svg PUBLIC "-//W3C//DTD SVG 1.1//EN" "http://www.w3.org/Graphics/SVG/1.1/DTD/svg11.dtd">
<svg version="1.1" xmlns="http://www.w3.org/2000/svg" xmlns:xlink="http://www.w3.org/1999/xlink" x="0px" y="0px"
	 width="95.918px" height="95.999px" viewBox="0 0 95.918 95.999" style="enable-background:new 0 0 95.918 95.999;"
	 xml:space="preserve">
<g id="_x31_9">
	<g>
		<path d="M59.086,29.46c-4.16,0-7.201,3.68-7.121,9.12c0,4.48,2.4,8.32,7.361,8.32c3.279,0,5.6-1.6,6.719-3.44
			c0.4-0.72,0.641-1.52,0.641-3.04C66.686,34.9,64.605,29.46,59.086,29.46z"/>
		<path d="M48,0C21.49,0,0,21.49,0,48s21.49,48,48,48s48-21.49,48-48S74.51,0,48,0z M36.573,73.461h-11.76V32.26h-0.16l-9.92,4.721
			l-2-9.121l13.76-6.4h10.08V73.461z M69.965,66.9c-4.959,4.48-11.76,6.961-19.84,7.28c-2.08,0.16-4.16,0.08-5.521,0v-9.52
			c1.52,0.159,2.88,0.159,5.28,0c3.68-0.24,7.441-1.28,10.24-3.2c3.361-2.32,5.6-5.681,6.561-9.601l-0.24-0.08
			c-2.32,2.4-5.68,3.761-10.4,3.761c-8.801,0-16.24-6.16-16.24-16.241c0-10.16,8.16-18.72,19.602-18.72
			c13.359,0,19.68,10.24,19.68,22.401C79.086,53.78,75.646,61.7,69.965,66.9z"/>
	</g>
</g>
<g id="&#x5716;&#x5C64;_1">
</g>
</svg>
