<?xml version="1.0" encoding="iso-8859-1"?>
<!-- Generator: Adobe Illustrator 16.0.2, SVG Export Plug-In . SVG Version: 6.00 Build 0)  -->
<!DOCTYPE svg PUBLIC "-//W3C//DTD SVG 1.1//EN" "http://www.w3.org/Graphics/SVG/1.1/DTD/svg11.dtd">
<svg version="1.1" xmlns="http://www.w3.org/2000/svg" xmlns:xlink="http://www.w3.org/1999/xlink" x="0px" y="0px" width="96px"
	 height="96px" viewBox="0 0 96 96" style="enable-background:new 0 0 96 96;" xml:space="preserve">
<g id="_x32_">
	<path d="M48,0C21.49,0,0,21.49,0,48s21.49,48,48,48s48-21.49,48-48S74.51,0,48,0z M69.804,78H26.008v-8.74l7.98-7.22
		c13.49-12.065,20.045-19,20.235-26.221c0-5.035-3.04-9.025-10.165-9.025c-5.32,0-9.976,2.66-13.206,5.13l-4.085-10.355
		c4.655-3.515,11.875-6.365,20.235-6.365c13.965,0,21.661,8.17,21.661,19.38c0,10.355-7.506,18.621-16.436,26.6l-5.7,4.751v0.189
		h23.275V78z"/>
</g>
<g id="&#x5716;&#x5C64;_1">
</g>
</svg>
