<?xml version="1.0" encoding="iso-8859-1"?>
<!-- Generator: Adobe Illustrator 16.0.2, SVG Export Plug-In . SVG Version: 6.00 Build 0)  -->
<!DOCTYPE svg PUBLIC "-//W3C//DTD SVG 1.1//EN" "http://www.w3.org/Graphics/SVG/1.1/DTD/svg11.dtd">
<svg version="1.1" xmlns="http://www.w3.org/2000/svg" xmlns:xlink="http://www.w3.org/1999/xlink" x="0px" y="0px"
	 width="95.918px" height="95.999px" viewBox="0 0 95.918 95.999" style="enable-background:new 0 0 95.918 95.999;"
	 xml:space="preserve">
<g id="_x32_0">
	<g>
		<path d="M66.258,32.948c-4.033,0-6.77,5.112-6.697,15.985c-0.072,10.729,2.521,15.842,6.77,15.842s6.553-5.329,6.553-15.985
			C72.883,38.421,70.65,32.948,66.258,32.948z"/>
		<path d="M48,0C21.49,0,0,21.49,0,48s21.49,48,48,48s48-21.49,48-48S74.51,0,48,0z M47.337,72.264H14.143v-6.625l6.048-5.472
			c10.225-9.146,15.193-14.401,15.337-19.874c0-3.816-2.304-6.841-7.704-6.841c-4.032,0-7.561,2.016-10.009,3.889l-3.097-7.849
			c3.528-2.665,9.001-4.825,15.338-4.825c10.585,0,16.417,6.192,16.417,14.689c0,7.849-5.688,14.113-12.457,20.162l-4.32,3.601
			v0.144h17.642V72.264z M66.041,73.056c-12.096,0-17.425-10.873-17.497-24.122c0-13.537,5.76-24.266,17.858-24.266
			c12.527,0,17.424,11.161,17.424,23.978C83.826,63.119,77.994,73.056,66.041,73.056z"/>
	</g>
</g>
<g id="&#x5716;&#x5C64;_1">
</g>
</svg>
