<?xml version="1.0" encoding="iso-8859-1"?>
<!-- Generator: Adobe Illustrator 16.0.2, SVG Export Plug-In . SVG Version: 6.00 Build 0)  -->
<!DOCTYPE svg PUBLIC "-//W3C//DTD SVG 1.1//EN" "http://www.w3.org/Graphics/SVG/1.1/DTD/svg11.dtd">
<svg version="1.1" xmlns="http://www.w3.org/2000/svg" xmlns:xlink="http://www.w3.org/1999/xlink" x="0px" y="0px"
	 width="95.918px" height="95.999px" viewBox="0 0 95.918 95.999" style="enable-background:new 0 0 95.918 95.999;"
	 xml:space="preserve">
<g id="_x32_1">
	<g>
		<path d="M66.348,40.28c-4.031,0-6.768,5.112-6.695,15.985c-0.072,10.729,2.52,15.842,6.768,15.842s6.553-5.329,6.553-15.985
			C72.973,45.753,70.74,40.28,66.348,40.28z"/>
		<path d="M48,0C21.49,0,0,21.49,0,48s21.49,48,48,48s48-21.49,48-48S74.51,0,48,0z M47.428,79.596H14.233v-6.625l6.048-5.472
			c10.225-9.146,15.193-14.401,15.337-19.874c0-3.816-2.304-6.841-7.704-6.841c-4.032,0-7.561,2.016-10.009,3.889l-3.097-7.849
			C18.337,34.16,23.81,32,30.147,32c10.585,0,16.417,6.192,16.417,14.689c0,7.849-5.688,14.113-12.457,20.162l-4.32,3.601v0.144
			h17.642V79.596z M44.13,36V24.779H32.91v-9.463H44.13V4.037h9.463v11.279h11.279v9.463H53.594V36H44.13z M66.133,80.388
			c-12.098,0-17.426-10.873-17.498-24.122C48.635,42.729,54.395,32,66.492,32c12.529,0,17.426,11.161,17.426,23.978
			C83.918,70.451,78.086,80.388,66.133,80.388z"/>
	</g>
</g>
<g id="&#x5716;&#x5C64;_1">
</g>
</svg>
