<?xml version="1.0" encoding="iso-8859-1"?>
<!-- Generator: Adobe Illustrator 16.0.2, SVG Export Plug-In . SVG Version: 6.00 Build 0)  -->
<!DOCTYPE svg PUBLIC "-//W3C//DTD SVG 1.1//EN" "http://www.w3.org/Graphics/SVG/1.1/DTD/svg11.dtd">
<svg version="1.1" xmlns="http://www.w3.org/2000/svg" xmlns:xlink="http://www.w3.org/1999/xlink" x="0px" y="0px" width="96px"
	 height="96px" viewBox="0 0 96 96" style="enable-background:new 0 0 96 96;" xml:space="preserve">
<g id="_x33_">
	<path d="M48,0C21.49,0,0,21.49,0,48s21.49,48,48,48s48-21.49,48-48S74.51,0,48,0z M44.343,81.045c-7.98,0-14.725-2.09-18.335-4.37
		l2.945-10.83c2.565,1.33,8.455,3.8,14.345,3.8c7.504,0,11.305-3.609,11.305-8.265c0-6.08-6.08-8.835-12.445-8.835h-5.89V42.189
		h5.605c4.845-0.095,11.021-1.9,11.021-7.125c0-3.705-3.04-6.46-9.12-6.46c-5.035,0-10.355,2.185-12.92,3.705l-2.945-10.45
		c3.705-2.375,11.115-4.655,19.095-4.655c13.206,0,20.52,6.935,20.52,15.39c0,6.555-3.705,11.685-11.305,14.345v0.19
		c7.41,1.33,13.395,6.935,13.395,15.01C69.613,73.064,60.019,81.045,44.343,81.045z"/>
</g>
<g id="&#x5716;&#x5C64;_1">
</g>
</svg>
