<?xml version="1.0" encoding="iso-8859-1"?>
<!-- Generator: Adobe Illustrator 16.0.2, SVG Export Plug-In . SVG Version: 6.00 Build 0)  -->
<!DOCTYPE svg PUBLIC "-//W3C//DTD SVG 1.1//EN" "http://www.w3.org/Graphics/SVG/1.1/DTD/svg11.dtd">
<svg version="1.1" xmlns="http://www.w3.org/2000/svg" xmlns:xlink="http://www.w3.org/1999/xlink" x="0px" y="0px" width="96px"
	 height="96px" viewBox="0 0 96 96" style="enable-background:new 0 0 96 96;" xml:space="preserve">
<g id="_x35_">
	<path d="M48,0C21.49,0,0,21.49,0,48s21.49,48,48,48s48-21.49,48-48S74.51,0,48,0z M43.241,81.045
		c-7.505,0-13.775-1.71-17.195-3.516l2.565-10.83c2.755,1.33,8.36,3.041,13.965,3.041c5.985,0,12.35-2.851,12.35-9.405
		c0-6.365-5.035-10.261-17.385-10.261c-3.42,0-5.795,0.19-8.36,0.57l4.085-32.396h34.011v11.875h-23.94l-1.33,9.5
		c1.33-0.19,2.47-0.19,3.99-0.19c5.891,0,11.875,1.33,16.245,4.465c4.655,3.135,7.505,8.265,7.505,15.485
		C69.746,70.88,59.866,81.045,43.241,81.045z"/>
</g>
<g id="&#x5716;&#x5C64;_1">
</g>
</svg>
