<?xml version="1.0" encoding="iso-8859-1"?>
<!-- Generator: Adobe Illustrator 16.0.2, SVG Export Plug-In . SVG Version: 6.00 Build 0)  -->
<!DOCTYPE svg PUBLIC "-//W3C//DTD SVG 1.1//EN" "http://www.w3.org/Graphics/SVG/1.1/DTD/svg11.dtd">
<svg version="1.1" xmlns="http://www.w3.org/2000/svg" xmlns:xlink="http://www.w3.org/1999/xlink" x="0px" y="0px" width="96px"
	 height="96px" viewBox="0 0 96 96" style="enable-background:new 0 0 96 96;" xml:space="preserve">
<g id="_x36_">
	<g>
		<path d="M46.155,48.84c-3.895,0-7.125,2.375-8.55,5.51c-0.38,0.76-0.57,1.9-0.57,3.61c0.285,6.555,3.42,12.444,9.975,12.444
			c5.13,0,8.36-4.654,8.36-10.925C55.37,53.779,52.329,48.84,46.155,48.84z"/>
		<path d="M48,0C21.49,0,0,21.49,0,48s21.49,48,48,48s48-21.49,48-48S74.51,0,48,0z M47.2,81.045
			c-16.435,0-24.51-12.255-24.51-26.98c0-11.59,4.275-21.28,10.925-27.455c6.175-5.605,14.155-8.645,23.845-9.12
			c2.66-0.19,4.37-0.19,5.795-0.095v11.115c-1.615-0.095-3.325,0-5.605,0.19c-12.825,1.045-18.525,7.6-20.14,14.82h0.285
			c3.04-3.135,7.315-4.94,13.111-4.94C61.26,38.58,70,45.895,70,58.72C70,70.975,60.595,81.045,47.2,81.045z"/>
	</g>
</g>
<g id="&#x5716;&#x5C64;_1">
</g>
</svg>
