<?xml version="1.0" encoding="iso-8859-1"?>
<!-- Generator: Adobe Illustrator 16.0.2, SVG Export Plug-In . SVG Version: 6.00 Build 0)  -->
<!DOCTYPE svg PUBLIC "-//W3C//DTD SVG 1.1//EN" "http://www.w3.org/Graphics/SVG/1.1/DTD/svg11.dtd">
<svg version="1.1" xmlns="http://www.w3.org/2000/svg" xmlns:xlink="http://www.w3.org/1999/xlink" x="0px" y="0px" width="96px"
	 height="96px" viewBox="0 0 96 96" style="enable-background:new 0 0 96 96;" xml:space="preserve">
<g id="_x38_">
	<g>
		<path d="M49.094,42.475c3.324-0.95,6.27-3.99,6.27-7.885c0-3.8-2.185-7.6-7.505-7.6c-4.94,0-7.505,3.23-7.505,7.125
			C40.354,38.294,44.153,40.955,49.094,42.475z"/>
		<path d="M46.909,53.209c-4.75,1.33-7.505,4.751-7.505,9.216c-0.095,4.465,3.325,8.646,8.74,8.646c5.13,0,8.455-3.326,8.455-7.695
			C56.599,57.96,52.608,54.729,46.909,53.209z"/>
		<path d="M48,0C21.49,0,0,21.49,0,48s21.49,48,48,48s48-21.49,48-48S74.51,0,48,0z M47.574,81.045
			c-15.675,0-22.896-8.835-22.896-17.195c0-7.41,4.275-12.54,11.02-15.485V48.08c-5.985-3.04-8.93-8.075-8.93-13.49
			c0-10.45,9.405-17.385,21.755-17.385c14.44,0,20.426,8.36,20.426,15.865c0,5.32-2.851,10.545-8.931,13.585v0.285
			c5.985,2.28,11.306,7.41,11.306,15.391C71.324,73.54,61.919,81.045,47.574,81.045z"/>
	</g>
</g>
<g id="&#x5716;&#x5C64;_1">
</g>
</svg>
