<?xml version="1.0" encoding="iso-8859-1"?>
<!-- Generator: Adobe Illustrator 16.0.2, SVG Export Plug-In . SVG Version: 6.00 Build 0)  -->
<!DOCTYPE svg PUBLIC "-//W3C//DTD SVG 1.1//EN" "http://www.w3.org/Graphics/SVG/1.1/DTD/svg11.dtd">
<svg version="1.1" xmlns="http://www.w3.org/2000/svg" xmlns:xlink="http://www.w3.org/1999/xlink" x="0px" y="0px" width="96px"
	 height="96px" viewBox="0 0 96 96" style="enable-background:new 0 0 96 96;" xml:space="preserve">
<g id="_x39_">
	<g>
		<path d="M48,0C21.49,0,0,21.49,0,48s21.49,48,48,48s48-21.49,48-48S74.51,0,48,0z M60.455,72.21
			c-5.89,5.319-13.965,8.265-23.56,8.646c-2.47,0.189-4.94,0.095-6.555,0V69.55c1.805,0.19,3.42,0.19,6.27,0
			c4.37-0.285,8.835-1.521,12.16-3.8c3.989-2.756,6.649-6.745,7.79-11.4l-0.285-0.095c-2.755,2.85-6.745,4.465-12.35,4.465
			c-10.45,0-19.285-7.315-19.285-19.285c0-12.065,9.69-22.23,23.275-22.23c15.866,0,23.37,12.16,23.37,26.601
			C71.285,56.63,67.201,66.035,60.455,72.21z"/>
		<path d="M47.535,27.75c-4.94,0-8.55,4.37-8.455,10.83c0,5.32,2.85,9.88,8.74,9.88c3.895,0,6.65-1.9,7.98-4.085
			c0.475-0.855,0.76-1.805,0.76-3.61C56.561,34.209,54.09,27.75,47.535,27.75z"/>
	</g>
</g>
<g id="&#x5716;&#x5C64;_1">
</g>
</svg>
