<?xml version="1.0" standalone="no"?>
<!DOCTYPE svg PUBLIC "-//W3C//DTD SVG 1.1//EN" "http://www.w3.org/Graphics/SVG/1.1/DTD/svg11.dtd" >
<!--
2013-9-12: Created.
-->
<svg xmlns="http://www.w3.org/2000/svg">
<metadata>
Created by FontForge 20120731 at Thu Sep 12 23:21:50 2013
 By kirby
Created by kirby with FontForge 2.0 (http://fontforge.sf.net)
</metadata>
<defs>
<font id="fontcustom" horiz-adv-x="512" >
  <font-face 
    font-family="fontcustom"
    font-weight="500"
    font-stretch="normal"
    units-per-em="512"
    panose-1="2 0 6 3 0 0 0 0 0 0"
    ascent="448"
    descent="-64"
    bbox="-0.507693 -68 512.444 451"
    underline-thickness="25.6"
    underline-position="-51.2"
    unicode-range="U+F100-F18D"
  />
    <missing-glyph />
    <glyph glyph-name="uniF100" unicode="&#xf100;" 
d="M276 322c3 -2 4 -5 6 -8s2 -7 2 -12s0 -9 -2 -12s-3 -6 -6 -8s-6 -3 -9 -4s-7 -2 -11 -2s-8 1 -11 2s-6 2 -9 4s-5 5 -6 8s-2 7 -2 12s1 9 2 12s3 6 6 8s6 3 9 4s7 2 11 2s8 -1 11 -2s6 -2 9 -4zM230 61v192h52v-192h-52zM256 448c141 0 256 -115 256 -256
s-115 -256 -256 -256s-256 115 -256 256s115 256 256 256zM256 -27c121 0 219 98 219 219s-98 219 -219 219s-219 -98 -219 -219s98 -219 219 -219z" />
    <glyph glyph-name="uniF101" unicode="&#xf101;" horiz-adv-x="292" 
d="M81 110v25c0 12 2 22 4 31s5 19 10 27s11 17 19 25s17 16 28 25c9 7 17 14 24 20s12 11 16 17s7 12 9 18s3 14 3 22c0 13 -4 24 -13 32s-22 13 -40 13c-16 0 -33 -3 -51 -10s-36 -14 -55 -24l-35 75c10 6 21 11 32 16s23 9 35 13s25 8 38 10s25 3 37 3c23 0 43 -2 62 -8
s35 -14 48 -25s22 -23 29 -38s11 -33 11 -52c0 -14 -2 -27 -5 -38s-8 -21 -14 -31s-15 -19 -24 -28s-20 -19 -32 -29c-9 -7 -18 -13 -24 -19s-11 -11 -14 -16s-6 -10 -7 -15s-1 -12 -1 -19v-20h-90v0zM70 -6c0 11 1 20 4 27s8 12 13 17s12 8 19 10s16 3 24 3s15 -1 22 -3
s14 -5 19 -10s10 -10 13 -17s5 -16 5 -27c0 -10 -2 -19 -5 -26s-8 -13 -13 -18s-12 -9 -19 -11s-14 -3 -22 -3s-17 1 -24 3s-14 6 -19 11s-10 11 -13 18s-4 16 -4 26z" />
    <glyph glyph-name="uniF102" unicode="&#xf102;" 
d="M506 16c12 -12 5 -39 -15 -59s-47 -27 -59 -15l-97 97c-8 8 -7 24 1 39l-42 42c-72 -55 -174 -50 -240 16c-71 71 -71 187 0 258s187 71 258 0c66 -66 71 -168 16 -240l42 -42c15 8 31 9 39 1zM81 163c56 -56 148 -56 204 0s56 148 0 204s-148 56 -204 0s-56 -148 0 -204
z" />
    <glyph glyph-name="uniF103" unicode="&#xf103;" horiz-adv-x="498" 
d="M139 282h12c19 0 36 -15 36 -35v-110c0 -20 -17 -35 -36 -35h-12c-19 0 -35 15 -35 35v110c0 20 16 35 35 35zM347 116h12c19 0 35 -16 35 -36v-109c0 -20 -16 -35 -35 -35h-12c-19 0 -36 15 -36 35v109c0 20 17 36 36 36zM347 448h12c20 0 35 -15 35 -35v-109
c0 -20 -15 -36 -35 -36h-12c-19 0 -36 16 -36 36v109c0 20 17 35 36 35zM291 372v-28h-291v28h291zM498 344h-83v28h83v-28zM83 206v-28h-83v28h83zM498 178h-290v28h290v-28zM291 40v-28h-291v28h291zM498 12h-83v28h83v-28z" />
    <glyph glyph-name="uniF104" unicode="&#xf104;" 
d="M117 331v39h317v-239h-39v200h-278zM273 448h239v-220h-39v181h-200v39zM0 13v279h356v-279h-356zM84 141v0v-3h3h75v-76v-3h3h24h3v3v76h75h3v3v25v3h-3h-75v76v3h-3h-24h-3v-3v-76h-75h-3v-3v-25z" />
    <glyph glyph-name="uniF105" unicode="&#xf105;" 
d="M0 75h512v-46h-512v46zM254 119l-125 170h78v159h93v-159h78z" />
    <glyph glyph-name="uniF106" unicode="&#xf106;" 
d="M0 138v310l243 -141v141l269 -155l-269 -155v140z" />
    <glyph glyph-name="uniF107" unicode="&#xf107;" 
d="M512 448l-27 -176l-46 47l-95 -95l-56 55l95 95l-47 47zM0 -64l27 176l46 -47l95 95l56 -55l-95 -95l47 -47zM0 448l176 -27l-47 -47l95 -94l-55 -56l-95 95l-47 -47zM512 -64l-176 27l47 46l-95 95l55 56l95 -95l47 47z" />
    <glyph glyph-name="uniF108" unicode="&#xf108;" 
d="M147 106c-59 63 -89 127 -68 148l17 18c16 16 60 1 108 -35l109 109c-27 36 -40 66 -30 76l22 23c14 14 72 -20 128 -76s90 -114 76 -128l-23 -22c-10 -10 -40 3 -76 30l-108 -109c36 -48 50 -92 34 -108l-18 -17c-21 -21 -85 9 -148 68l-63 -63l-99 -84l-8 8l84 99z" />
    <glyph glyph-name="uniF109" unicode="&#xf109;" 
d="M469 448h43v-299h-43v136l-234 -136v136l-235 -136v299l235 -135v135l234 -135v135z" />
    <glyph glyph-name="uniF10A" unicode="&#xf10a;" 
d="M149 85v214h86v-214h-86zM277 85v214h86v-214h-86zM256 448c141 0 256 -115 256 -256s-115 -256 -256 -256s-256 115 -256 256s115 256 256 256zM256 -37c126 0 229 103 229 229s-103 229 -229 229s-229 -103 -229 -229s103 -229 229 -229z" />
    <glyph glyph-name="uniF10B" unicode="&#xf10b;" 
d="M0 -64v512h205v-512h-205zM307 -64v512h205v-512h-205z" />
    <glyph glyph-name="uniF10C" unicode="&#xf10c;" 
d="M175 313l213 -123l-213 -123v246zM256 448c141 0 256 -115 256 -256s-115 -256 -256 -256s-256 115 -256 256s115 256 256 256zM256 -37c126 0 229 103 229 229s-103 229 -229 229s-229 -103 -229 -229s103 -229 229 -229z" />
    <glyph glyph-name="uniF10D" unicode="&#xf10d;" horiz-adv-x="443" 
d="M0 448l443 -256l-443 -256v512z" />
    <glyph glyph-name="uniF10E" unicode="&#xf10e;" 
d="M512 448v-299l-235 136v-136l-234 136v-136h-43v299h43v-135l234 135v-135z" />
    <glyph glyph-name="uniF10F" unicode="&#xf10f;" 
d="M451 246l40 34c5 -14 7 -29 7 -44c0 -75 -60 -135 -135 -135h-239v-75l-124 101l124 100v-80h239c49 0 88 40 88 89v10zM61 228l-40 -34c-5 14 -7 29 -7 44c0 75 60 135 135 135h239v75l124 -101l-124 -100v80h-239c-49 0 -88 -40 -88 -89v-10z" />
    <glyph glyph-name="uniF110" unicode="&#xf110;" horiz-adv-x="427" 
d="M413 226c10 -27 15 -55 14 -84s-8 -56 -20 -82c-12 -25 -28 -48 -48 -67c-4 -4 -8 -7 -12 -10c-17 -14 -36 -25 -57 -33c-27 -10 -55 -15 -84 -14s-56 8 -82 20c-25 12 -48 28 -67 48c-3 4 -6 7 -9 11l-1 1c-14 17 -25 36 -33 57c-10 27 -15 55 -14 84s8 56 20 82l55 -25
c-9 -18 -13 -37 -14 -58s2 -41 9 -60c6 -15 14 -29 24 -41c2 -3 4 -6 7 -9c14 -15 30 -26 48 -34c18 -9 38 -13 59 -14s40 3 59 10c15 6 29 13 41 23c3 2 6 5 9 8c14 13 26 29 34 47c9 18 13 38 14 59s-3 41 -10 60c-7 18 -17 35 -31 50c-13 14 -29 26 -47 34
c-13 6 -29 10 -43 12v-84l-172 115l172 116v-86c24 -2 47 -9 69 -19c25 -12 48 -28 67 -48c18 -20 33 -43 43 -69z" />
    <glyph glyph-name="uniF111" unicode="&#xf111;" 
d="M288 224l27 176l46 -47l95 95l55 -55l-94 -95l46 -47zM224 160l-27 -176l-46 47l-95 -95l-56 55l95 95l-47 47zM224 224l-176 27l47 47l-95 95l55 55l95 -95l47 47zM288 160l175 -27l-46 -47l95 -95l-56 -55l-94 95l-47 -47z" />
    <glyph glyph-name="uniF112" unicode="&#xf112;" 
d="M512 448v-310l-243 140v-140l-269 155l269 155v-141z" />
    <glyph glyph-name="uniF113" unicode="&#xf113;" 
d="M19 338h-10h-9v45h8c4 0 8 1 12 1c43 0 85 -11 124 -30c27 -13 51 -29 76 -51c-11 -10 -21 -21 -31 -32c-2 -3 -5 -6 -7 -8c-25 23 -50 41 -75 54c-29 14 -58 21 -88 21zM367 311c-35 -17 -70 -45 -103 -83c-38 -44 -77 -75 -120 -96c-39 -19 -82 -30 -124 -30v0
c-4 0 -8 1 -12 1h-8v46l9 -1h10c30 0 59 7 88 21c35 17 70 45 103 83c38 44 78 75 121 96c19 10 39 17 60 22v78l121 -98l-121 -97v68c-8 -3 -16 -6 -24 -10zM391 165v69l121 -98l-121 -98v78c-21 5 -41 12 -60 22c-24 12 -47 27 -70 46c8 8 16 16 24 25c4 5 9 10 13 14
c23 -21 46 -37 69 -48c8 -4 16 -7 24 -10z" />
    <glyph glyph-name="uniF114" unicode="&#xf114;" 
d="M0 -64v512h512v-512h-512z" />
    <glyph glyph-name="uniF115" unicode="&#xf115;" 
d="M0 75h512v-46h-512v46zM254 448l124 -170h-77v-159h-93v159h-79z" />
    <glyph glyph-name="uniF116" unicode="&#xf116;" 
d="M453 289c33 -1 59 -28 59 -61c0 -34 -27 -61 -61 -61h-3v0h-371v0c-43 2 -77 37 -77 80c0 45 36 81 81 81h2c0 4 -1 9 -1 13c0 59 48 107 107 107c50 0 91 -34 103 -80c16 11 36 17 57 17c55 0 100 -42 104 -96z" />
    <glyph glyph-name="uniF117" unicode="&#xf117;" 
d="M438 333h74l-74 -242h-438v357h154l36 -68h248v-29h-381l-34 -127l14 -12l37 121h364z" />
    <glyph glyph-name="uniF118" unicode="&#xf118;" 
d="M32 -32h448v416h-448v-416zM496 -64h-480c-9 0 -16 7 -16 16v448c0 9 7 16 16 16h480c9 0 16 -7 16 -16v-448c0 -9 -7 -16 -16 -16zM112 352v96h64v-96h-64zM336 352v96h64v-96h-64zM176 224v64h64v-64h-64zM272 224v64h64v-64h-64zM368 224v64h64v-64h-64zM176 128v64
h64v-64h-64zM80 128v64h64v-64h-64zM256 112v96h96v-96h-96zM368 128v64h64v-64h-64zM176 32v64h64v-64h-64zM80 32v64h64v-64h-64zM272 32v64h64v-64h-64z" />
    <glyph glyph-name="uniF119" unicode="&#xf119;" horiz-adv-x="481" 
d="M278 415l203 -204l-277 -275h-204v204zM65 -21c13 0 24 10 24 23s-11 23 -24 23s-23 -10 -23 -23s10 -23 23 -23zM84 109l27 -27l190 191l-27 27zM170 23l189 189l-26 27l-190 -189zM167 448l75 -36l-199 -192z" />
    <glyph glyph-name="uniF11A" unicode="&#xf11a;" horiz-adv-x="452" 
d="M359 60h93v-30h-93v-94h-29v94h-93v30h93v94h29v-94zM199 424l145 -145l-198 -197h-146v146zM47 112c9 0 16 8 16 17s-7 17 -16 17s-17 -8 -17 -17s8 -17 17 -17zM60 206l19 -20l136 137l-19 19zM122 144l135 135l-19 19l-135 -135zM119 448l54 -25l-142 -138z" />
    <glyph glyph-name="uniF11B" unicode="&#xf11b;" 
d="M0 398v50h512v-50h-512zM0 263v51h356v-51h-356zM0 129v51h187v-51h-187z" />
    <glyph glyph-name="uniF11C" unicode="&#xf11c;" 
d="M0 237v211h211v-211h-211zM301 237v211h211v-211h-211zM0 -55v211h211v-211h-211zM301 -55v211h211v-211h-211z" />
    <glyph glyph-name="uniF11D" unicode="&#xf11d;" horiz-adv-x="418" 
d="M317 448h101v-512h-418v512h317zM371 23v30h-324v-30h324zM371 99v31h-326v-31h326zM372 177v31h-325v-31h325zM372 256v29h-325v-29h325zM372 334v29h-325v-29h325z" />
    <glyph glyph-name="uniF11E" unicode="&#xf11e;" 
d="M39 268v0c-22 20 -35 47 -38 75s5 53 23 73s44 32 73 32h336c21 0 41 -10 55 -25c13 -14 22 -30 24 -51c4 -43 -24 -81 -63 -81h-283c-24 0 -45 23 -45 50c0 26 13 48 36 48h231v-32h-223c-5 0 -14 -4 -14 -16c0 -7 6 -17 16 -17h279c22 0 38 22 35 48
c-1 13 -7 24 -15 32s-18 12 -30 12h-336c-20 0 -39 -8 -52 -22s-17 -30 -17 -51c0 -20 12 -40 28 -54v0c16 -14 39 -18 59 -18h296v-32h-293c-29 0 -60 9 -82 29z" />
    <glyph glyph-name="uniF11F" unicode="&#xf11f;" 
d="M0 320l126 128h386v-254h-386zM367 238l22 22l-64 65l64 64l-22 22l-64 -64l-64 64l-23 -22l65 -64l-65 -65l23 -22l64 64z" />
    <glyph glyph-name="uniF120" unicode="&#xf120;" horiz-adv-x="427" 
d="M299 405h-256v-341h21v-43h-21h-43v427h341v-43v-21h-42v21zM332 57h-161v14h161v-14zM265 100h-94v14h94v-14zM294 142h-123v14h123v-14zM341 185h-170v14h170v-14zM265 228h-94v14h94v-14zM384 320h-256v-341h256v341zM85 -64v427h342v-427h-342z" />
    <glyph glyph-name="uniF121" unicode="&#xf121;" 
d="M475 94c-10 7 -24 5 -31 -5c-3 -4 -4 -7 -4 -12c0 -7 3 -14 9 -18c5 -3 10 -5 16 -4s11 4 14 9c3 4 5 7 5 12c0 7 -3 14 -9 18zM320 190c0 -9 8 -17 17 -17s17 8 17 17s-8 17 -17 17s-17 -8 -17 -17zM465 326c-6 1 -11 -1 -16 -4c-6 -4 -9 -11 -9 -18c0 -5 1 -9 4 -13
c3 -5 8 -7 14 -8s12 1 17 4c6 4 9 10 9 17c0 5 -2 9 -5 13c-3 5 -8 8 -14 9zM432 345c22 16 54 11 70 -11c6 -9 10 -19 10 -30c0 -16 -7 -30 -20 -40c-6 -4 -12 -7 -18 -9c-4 -2 -8 -1 -12 -2c-6 -1 -12 -3 -25 -8c-25 -10 -47 -29 -47 -29c-6 -5 -12 -14 -17 -26
c5 -12 11 -21 17 -26c0 0 22 -19 47 -29c13 -5 19 -6 25 -7c4 -1 7 -1 12 -3c6 -1 13 -4 18 -8c13 -10 20 -25 20 -41c0 -11 -4 -20 -10 -29c-16 -22 -48 -27 -70 -11c-8 6 -14 14 -17 20c-2 3 -3 7 -6 12c-2 4 -6 9 -9 15c-17 32 -35 53 -35 53s-10 11 -21 21
c-60 -26 -160 -69 -169 -71c-14 -4 -27 7 -28 7l-6 5l6 4l146 88l-146 89l-6 4l6 4c1 0 14 11 28 7c10 -2 109 -44 169 -70c11 10 21 21 21 21s18 21 35 53c3 6 7 11 9 15c3 5 4 9 6 12c3 6 9 15 17 20zM341 -21v85h43v-128h-43h-341v512h384v-128h-43v85h-298v-426h298z
" />
    <glyph glyph-name="uniF122" unicode="&#xf122;" horiz-adv-x="358" 
d="M336 238v0v0v-1v0v-1l-12 -251v0c-1 -20 -24 -49 -145 -49s-144 29 -145 49v0l-12 251l-1 1v0v1h1c0 2 1 4 3 6c16 -16 79 -18 154 -18s137 2 153 18c2 -2 4 -4 4 -6zM253 369c61 -6 105 -20 105 -36v-29c0 -6 -6 -12 -17 -17c-29 -13 -90 -22 -162 -22
c-71 0 -133 9 -162 22c-11 5 -17 11 -17 17v29c0 15 39 29 97 36v59c0 11 9 20 20 20h117c11 0 19 -9 19 -20v-59zM135 372c14 1 29 1 44 1s28 0 42 -1v24c0 11 -1 19 -3 19h-23h-39h-23s-3 -8 -3 -19v-25z" />
    <glyph glyph-name="uniF123" unicode="&#xf123;" horiz-adv-x="511" 
d="M247 306c10 -1 40 -9 76 -44c26 -26 42 -53 44 -75l-160 -162s-16 19 -14 53c-41 19 -49 39 -57 55c-36 -2 -49 11 -49 11zM479 422c47 -39 34 -78 16 -96c-3 -3 -21 -26 -32 -40c0 16 -6 43 -39 76s-63 39 -78 40c13 11 31 25 37 31c17 16 49 28 96 -11zM113 114
c10 -32 44 -53 57 -57c0 -15 14 -45 14 -45l-184 -76l74 185s7 -7 39 -7zM325 385c0 0 35 1 79 -43c45 -45 39 -77 39 -77l-18 -17c-2 19 -16 46 -42 72c-41 41 -76 47 -76 47zM290 344c0 0 34 1 76 -41c43 -43 37 -73 37 -73l-16 -17c-2 18 -16 44 -41 69
c-40 39 -73 45 -73 45z" />
    <glyph glyph-name="uniF124" unicode="&#xf124;" 
d="M0 336l256 -127l256 127v-268h-512v268zM0 448h512v-71l-256 -128l-256 128v71z" />
    <glyph glyph-name="uniF125" unicode="&#xf125;" horiz-adv-x="451" 
d="M329 371h122v-76h-9v-248l-111 -111h-324v359h-7v76h122v77h40v-77h127v77h40v-77zM409 65v230h-376v-327h278v97h98z" />
    <glyph glyph-name="uniF126" unicode="&#xf126;" horiz-adv-x="307" 
d="M135 115h-73v199h-62l98 134l98 -134h-61v-199zM245 70h62l-98 -134l-98 134h61v199h73v-199z" />
    <glyph glyph-name="uniF127" unicode="&#xf127;" horiz-adv-x="426" 
d="M258 20l-45 39l-45 -39c-21 -23 -127 -84 -127 -84l-41 80s170 82 168 165v102v1h-75v0l120 164l120 -164h-75v-1v-102c-2 -83 168 -165 168 -165l-41 -80s-106 61 -127 84z" />
    <glyph glyph-name="uniF128" unicode="&#xf128;" horiz-adv-x="498" 
d="M102 27v0c-27 0 -53 11 -72 30s-30 45 -30 72s11 53 30 72l227 228c14 14 32 21 51 19c18 -1 35 -10 49 -24c29 -29 31 -74 5 -100l-191 -191c-16 -16 -41 -14 -59 4c-17 17 -19 44 -4 59l156 156l21 -21l-156 -156c-3 -3 -2 -11 4 -17c2 -2 11 -11 18 -4l190 190
c15 15 12 41 -5 59c-9 9 -19 14 -30 15c-10 1 -20 -2 -28 -10l-227 -227c-14 -14 -22 -33 -22 -52s8 -37 22 -51s32 -21 51 -21v0c19 0 37 7 51 21l197 196l21 -20l-197 -197c-19 -19 -45 -30 -72 -30zM406 58h92v-29h-92v-93h-29v93h-91v29h91v93h29v-93z" />
    <glyph glyph-name="uniF129" unicode="&#xf129;" 
d="M0 366l186 -92l186 92v-194h-372v194zM0 448h372v-52l-186 -92l-186 92v52zM438 132h74v-24h-74v-75h-24v75h-74v24h74v75h24v-75z" />
    <glyph glyph-name="uniF12A" unicode="&#xf12a;" 
d="M512 136v-27h-83v-84h-26v84h-83v27h83v84h26v-84h83zM357 169v0h-315v179h-42v100h100v-43h131h126v-236zM65 348v-156h269v190h-103h-131v-34h-35zM96 272v21h208v-21h-208zM96 318v20h208v-20h-208z" />
    <glyph glyph-name="uniF12B" unicode="&#xf12b;" 
d="M427 51h85v-27h-85v-86h-27v86h-86v27h86v87h27v-87zM351 448v-351h-351v351h351zM327 121v303h-303v-303h303zM306 198v-51h-259v89l63 44l75 -67l55 25z" />
    <glyph glyph-name="uniF12C" unicode="&#xf12c;" 
d="M512 213v-42h-235v-235h-42v235h-235v42h235v235h42v-235h235z" />
    <glyph glyph-name="uniF12D" unicode="&#xf12d;" horiz-adv-x="394" 
d="M302 67h-223v13h223v-13zM210 107h-131v13h131v-13zM249 146h-170v13h170v-13zM315 185h-236v14h236v-14zM210 225h-131v13h131v-13zM354 369h-91l7 -23c36 -8 45 -29 45 -55h-236c0 25 10 45 44 54l8 24h-92v-394h315v394zM197 428c-11 0 -20 -8 -20 -19s9 -20 20 -20
s20 9 20 20s-9 19 -20 19zM0 -64v473h157c0 22 18 39 40 39s39 -17 39 -39h158v-473h-394z" />
    <glyph glyph-name="uniF12E" unicode="&#xf12e;" 
d="M0 448h512v-512h-512v512zM477 -29v442h-442v-442h442zM447 84v-75h-378v129l92 65l109 -97l81 36z" />
    <glyph glyph-name="uniF12F" unicode="&#xf12f;" 
d="M256 449l256 -127v-74h-43v50h-426v-50h-43v74zM256 56c39 0 70 30 72 69l184 92v-268h-512v268l183 -92c2 -39 34 -69 73 -69zM256 77c-22 0 -40 17 -47 36c-2 5 -3 8 -3 14c0 27 23 50 50 50s50 -23 50 -50c0 -6 -2 -9 -4 -14c-7 -19 -24 -36 -46 -36z" />
    <glyph glyph-name="uniF130" unicode="&#xf130;" 
d="M512 409l-216 -217l216 -217l-39 -39l-217 217l-217 -217l-39 39l217 217l-217 217l39 39l217 -217l217 217z" />
    <glyph glyph-name="uniF131" unicode="&#xf131;" horiz-adv-x="507" 
d="M308 293h-105v135h105v-135zM383 115v0h-269v30h269v-30zM383 30v0h-269v31h269v-31zM507 344v-393c0 -8 -7 -15 -15 -15h-477c-8 0 -15 7 -15 15v482c0 8 7 15 15 15h62v-183h275v183h51zM429 211h-352v-240h352v240z" />
    <glyph glyph-name="uniF132" unicode="&#xf132;" 
d="M403 -64h-27v28h27v-28zM350 -64h-27v28h27v-28zM296 -64h-27v28h27v-28zM189 -64h-27v28h27v-28zM136 -64h-27v28h27v-28zM235 43h-128v128h128v-128zM0 448h28v-28h-28v28zM0 393h28v-27h-28v27zM0 339h28v-27h-28v27zM0 286h28v-27h-28v27zM0 232h28v-27h-28v27z
M0 179h28v-27h-28v27zM0 125h28v-27h-28v27zM0 72h28v-27h-28v27zM0 18h28v-27h-28v27zM0 -36h28v-28h-28v28zM55 448h27v-28h-27v28zM55 -36h27v-28h-27v28zM235 213h-128v128h128v-128zM109 448h27v-28h-27v28zM162 448h27v-28h-27v28zM216 448h27v-28h-27v28zM216 -36h27
v-28h-27v28zM269 448h27v-28h-27v28zM323 448h27v-28h-27v28zM376 448h27v-28h-27v28zM277 341h128v-128h-128v128zM277 171h128v-128h-128v128zM430 448h27v-28h-27v28zM430 -36h27v-28h-27v28zM484 448h28v-28h-28v28zM484 393h28v-27h-28v27zM484 339h28v-27h-28v27z
M484 286h28v-27h-28v27zM484 232h28v-27h-28v27zM484 179h28v-27h-28v27zM484 125h28v-27h-28v27zM484 72h28v-27h-28v27zM484 18h28v-27h-28v27zM484 -64v28h28v-28h-28z" />
    <glyph glyph-name="uniF133" unicode="&#xf133;" horiz-adv-x="410" 
d="M410 286h-74v-260v-90h-89v0v37c-17 44 -77 84 -110 104l-16 9v-1l-36 -65l-85 181l199 27l-36 -65v0l13 -7c20 -11 46 -24 71 -46v176h-75l119 162z" />
    <glyph glyph-name="uniF134" unicode="&#xf134;" 
d="M149 298v-69l-149 110l149 109v-68v-1h86c169 0 277 -48 277 -194s-108 -195 -277 -195h-193v81h193c144 0 196 31 196 114s-52 113 -196 113h-86v0z" />
    <glyph glyph-name="uniF135" unicode="&#xf135;" 
d="M329 241v1l183 93v-271h-512v271l184 -93v-1c0 -40 32 -73 72 -73s73 33 73 73zM256 192c-24 0 -43 17 -48 39c-1 4 -2 7 -2 11c0 27 23 50 50 50s50 -23 50 -50c0 -4 -1 -7 -2 -11c-5 -22 -24 -39 -48 -39zM0 448h512v-72l-194 -97c-13 21 -35 36 -62 36
s-49 -15 -62 -36l-194 97v72z" />
    <glyph glyph-name="uniF136" unicode="&#xf136;" 
d="M308 210l204 -204v-70h-70l-23 23v47h-47v46h-46l-88 88c-22 -12 -48 -18 -75 -18c-90 0 -163 73 -163 163s73 163 163 163s163 -73 163 -163c0 -27 -6 -53 -18 -75zM116 285c26 0 47 21 47 47s-21 46 -47 46s-46 -20 -46 -46s20 -47 46 -47z" />
    <glyph glyph-name="uniF137" unicode="&#xf137;" horiz-adv-x="500" 
d="M343 333c-16 40 -48 73 -87 91l8 24c46 -21 84 -60 103 -107zM112 424c-40 -19 -72 -52 -88 -94l-24 9c19 49 56 88 103 109zM395 75h105v-33h-105v-106h-33v106h-104v33h104v106h33v-106zM184 415c81 0 147 -66 147 -147s-66 -147 -147 -147s-147 66 -147 147
s66 147 147 147zM184 145c68 0 123 55 123 123s-55 124 -123 124s-124 -56 -124 -124s56 -123 124 -123zM186 368l6 -99l62 -67l-12 -12l-75 67l-2 10l6 101h15z" />
    <glyph glyph-name="uniF138" unicode="&#xf138;" 
d="M257 402c113 0 205 -92 205 -205s-92 -205 -205 -205s-206 92 -206 205s93 205 206 205zM257 25c95 0 172 77 172 172s-77 172 -172 172s-173 -77 -173 -172s78 -172 173 -172zM260 336l8 -138l86 -93l-16 -17l-105 93l-2 15l7 140h22zM369 448c65 -29 116 -83 143 -149
l-33 -11c-23 56 -67 101 -122 127zM156 415c-56 -26 -100 -73 -123 -131l-33 12c26 68 78 122 144 152z" />
    <glyph glyph-name="uniF139" unicode="&#xf139;" horiz-adv-x="300" 
d="M221 395h79v-459h-300v459h79v53h142v-53zM35 245h230v115h-80v53h-70v-53h-80v-115z" />
    <glyph glyph-name="uniF13A" unicode="&#xf13a;" horiz-adv-x="499" 
d="M439 192l60 -57l-79 -25l30 -78l-82 12l-7 -83l-69 46l-42 -71l-43 71l-68 -46l-8 83l-82 -12l30 78l-79 25l60 57l-60 57l79 25l-30 78l82 -12l8 83l68 -46l43 71l42 -71l69 46l7 -83l82 12l-30 -78l79 -25zM242 37c86 0 156 69 156 155c0 80 -62 147 -140 155h-7h-9v0
v0c-86 0 -155 -69 -155 -155s69 -155 155 -155v0v0z" />
    <glyph glyph-name="uniF13B" unicode="&#xf13b;" horiz-adv-x="428" 
d="M329 192l99 89v-178zM352 292l-100 -89l100 -111l-159 -156v228l-97 -90l-22 24l100 94l-100 93l22 25l97 -90v228zM235 360v-123l67 55zM302 92l-67 72v-140zM0 281l99 -89l-99 -89v178z" />
    <glyph glyph-name="uniF13C" unicode="&#xf13c;" horiz-adv-x="474" 
d="M119 447l160 -156l-101 -89l101 -111l-160 -156v228l-96 -90l-23 24l101 94l-101 93l23 25l96 -90v228zM228 91l-66 72v-140zM162 236l66 55l-66 68v-123zM438 367c24 -55 36 -116 36 -177c0 -60 -12 -121 -36 -176l-28 16c22 50 33 105 33 160s-11 111 -33 161zM356 276
l29 15c13 -32 21 -66 21 -100c0 -35 -9 -66 -22 -98l-28 10c11 27 19 57 19 87s-8 59 -19 86z" />
    <glyph glyph-name="uniF13D" unicode="&#xf13d;" horiz-adv-x="279" 
d="M279 292l-101 -89l101 -111l-160 -156v228l-96 -90l-23 24l101 94l-101 93l23 25l96 -90v228zM162 360v-123l66 55zM228 92l-66 72v-140z" />
    <glyph glyph-name="uniF13E" unicode="&#xf13e;" horiz-adv-x="499" 
d="M249 249h1l28 -82h-57zM439 188l60 -57l-79 -25l30 -77l-82 11l-7 -82l-69 45l-42 -71l-43 71l-68 -45l-8 82l-82 -11l30 77l-79 25l60 57l-60 57l79 26l-30 77l82 -12l8 83l68 -46l43 71l42 -71l69 46l7 -83l82 12l-30 -77l79 -26zM305 85h47l-80 222h-45l-80 -222h47
l16 48h79z" />
    <glyph glyph-name="uniF13F" unicode="&#xf13f;" horiz-adv-x="499" 
d="M439 188l60 -57l-79 -25l30 -77l-82 11l-7 -82l-69 45l-42 -71l-43 71l-68 -45l-8 82l-82 -11l30 77l-79 25l60 57l-60 57l79 26l-30 77l82 -12l8 83l68 -46l43 71l42 -71l69 46l7 -83l82 12l-30 -77l79 -26zM250 33c86 0 155 69 155 155s-69 156 -155 156
s-156 -70 -156 -156s70 -155 156 -155zM250 314c69 0 125 -57 125 -126s-56 -126 -125 -126s-126 57 -126 126s57 126 126 126z" />
    <glyph glyph-name="uniF140" unicode="&#xf140;" horiz-adv-x="499" 
d="M439 192l60 -57l-79 -25l30 -78l-82 12l-7 -83l-69 46l-42 -71l-43 71l-68 -46l-8 83l-82 -12l30 78l-79 25l60 57l-60 57l79 25l-30 78l82 -12l8 83l68 -46l43 71l42 -71l69 46l7 -83l82 12l-30 -78l79 -25zM242 37c86 0 156 69 156 155s-70 155 -156 155v-310z" />
    <glyph glyph-name="uniF141" unicode="&#xf141;" 
d="M508 31c6 7 6 17 -1 24c-1 1 -2 1 -3 2v1l-110 78v0c-7 5 -18 5 -25 -2c-1 -1 0 -1 -1 -2v0s-1 0 -1 -1c-7 -11 -8 -12 -14 -21c-8 -13 -17 -34 -27 -57c-31 5 -78 32 -128 82s-76 96 -81 127c23 10 44 20 57 28c9 6 10 6 21 13l1 1v0l2 2c7 7 7 17 2 24v0l-78 110h-1
c-1 1 -1 2 -2 3c-7 7 -17 7 -24 1c-53 -36 -100 -76 -94 -123c7 -50 67 -161 145 -239s189 -138 239 -145c47 -6 87 41 123 94z" />
    <glyph glyph-name="uniF142" unicode="&#xf142;" 
d="M350 225c0 -52 -42 -94 -94 -94s-94 42 -94 94s42 95 94 95s94 -43 94 -95zM512 405v-23v-309c0 -13 1 -23 0 -23h-512v23v263v27l112 36s17 6 32 6h32v20c0 26 0 23 0 23h162s0 3 0 -23v-20h174zM256 88c76 0 137 61 137 137s-61 138 -137 138s-138 -62 -138 -138
s62 -137 138 -137zM103 417l-82 -28v38v7h82v-7v-10z" />
    <glyph glyph-name="uniF143" unicode="&#xf143;" 
d="M256 448c141 0 256 -115 256 -256s-115 -256 -256 -256s-256 115 -256 256s115 256 256 256zM32 173c4 -46 22 -89 50 -123l46 24l-23 -48c36 -33 83 -54 134 -58l17 51l17 -51c48 4 93 22 128 52l-28 45l5 -3l-122 135v160l-20 59c-50 -4 -96 -26 -131 -58l24 -48
l-47 24c-28 -34 -46 -77 -50 -123l58 -18z" />
    <glyph glyph-name="uniF144" unicode="&#xf144;" horiz-adv-x="385" 
d="M0 353v95h99v-95h-99zM142 353v95h100v-95h-100zM0 213v96h99v-96h-99zM141 214v95h101v-95h-101zM385 448v-95h-99v95h99zM286 309h99v-95h-99v95zM0 75v96h99v-96h-99zM141 75v95h101v-95h-101zM286 75v96h99v-96h-99zM141 -64v97h101v-97h-101z" />
    <glyph glyph-name="uniF145" unicode="&#xf145;" 
d="M7 261c1 -8 8 -14 16 -14h3v0l114 19v0c8 1 13 8 13 16v2v0v2c-2 11 -3 11 -5 20c-3 13 -10 31 -18 51c21 16 66 28 126 28s105 -12 126 -28c-8 -20 -15 -38 -18 -51c-2 -9 -3 -9 -5 -20v-2v0v-2c0 -8 5 -15 13 -16h1l113 -19v0h3c8 0 15 6 16 14c10 53 14 106 -18 130
c-34 26 -137 57 -231 57s-197 -31 -231 -57c-32 -24 -28 -77 -18 -130z" />
    <glyph glyph-name="uniF146" unicode="&#xf146;" 
d="M414 274h98l-190 -289h-30l47 210h-90l49 253h180zM118 107c1 -3 2 -6 2 -7l9 -31h-34l9 31c0 1 1 3 1 4l1 5l2 7l1 6c1 2 2 4 2 6s1 4 1 5c0 -2 1 -5 2 -8s1 -7 2 -10s1 -5 2 -8zM146 11h30l-46 142h-37l-45 -142h30l10 32h48zM110 187c61 0 110 -49 110 -110
s-49 -110 -110 -110s-110 49 -110 110s49 110 110 110z" />
    <glyph glyph-name="uniF147" unicode="&#xf147;" 
d="M420 281h92l-178 -274h-28l44 198h-84l46 243h169zM195 -13l-75 75l-76 -75l-44 44l75 75l-75 76l44 44l76 -75l75 75l44 -44l-75 -76l75 -75z" />
    <glyph glyph-name="uniF148" unicode="&#xf148;" horiz-adv-x="288" 
d="M180 255h108l-208 -319h-33l52 231h-99l53 281h198z" />
    <glyph glyph-name="uniF149" unicode="&#xf149;" 
d="M256 294c56 0 102 -46 102 -102s-46 -102 -102 -102s-102 46 -102 102s46 102 102 102zM512 207v-29h-61c-7 -97 -83 -174 -180 -181v-61h-29v61c-97 7 -174 83 -181 180h-61v29h61c7 97 83 174 180 181v61h29v-61c97 -7 174 -83 181 -180h61zM256 25
c92 0 167 75 167 167s-75 167 -167 167s-167 -75 -167 -167s75 -167 167 -167z" />
    <glyph glyph-name="uniF14A" unicode="&#xf14a;" 
d="M336 251l-59 -59l60 -61l-21 -21l-2 2l-58 59l-60 -61l-21 21l1 2l59 59l-60 60l21 22l1 -2l59 -59l60 61l21 -22zM512 207v-29h-61c-7 -97 -83 -174 -180 -181v-61h-29v61c-97 7 -174 83 -181 180h-61v29h61c7 97 83 174 180 181v61h29v-61c97 -7 174 -83 181 -180h61z
M256 25c92 0 167 75 167 167s-75 167 -167 167s-167 -75 -167 -167s75 -167 167 -167z" />
    <glyph glyph-name="uniF14B" unicode="&#xf14b;" 
d="M512 207v-29h-61c-7 -97 -83 -174 -180 -181v-61h-29v61c-97 7 -174 83 -181 180h-61v29h61c7 97 83 174 180 181v61h29v-61c97 -7 174 -83 181 -180h61zM256 25c92 0 167 75 167 167s-75 167 -167 167s-167 -75 -167 -167s75 -167 167 -167z" />
    <glyph glyph-name="uniF14C" unicode="&#xf14c;" horiz-adv-x="385" 
d="M347 228c0 0 7 -5 7 -13s-7 -12 -7 -12h-14v-28c0 -55 -32 -95 -98 -112v-27s-8 -5 -28 -6v-28c70 -3 112 -15 112 -28v-10c0 -15 -57 -28 -126 -28s-125 13 -125 28v10c0 13 41 25 111 28v28c-20 1 -27 6 -27 6v26c-18 5 -35 12 -48 20l-79 -80l-25 25l77 77
c-16 19 -23 43 -23 71v28h-14s-4 3 -4 11s4 14 4 14h34v-53c0 -23 7 -41 18 -56l26 26c-5 7 -8 15 -8 23v225c0 30 37 55 83 55s84 -25 84 -55v-89l83 83l25 -25l-108 -108v-86c0 -30 -38 -55 -84 -55c-18 0 -33 4 -47 10l-28 -28c20 -12 47 -18 75 -18c65 0 119 32 119 98
v53h35z" />
    <glyph glyph-name="uniF14D" unicode="&#xf14d;" horiz-adv-x="318" 
d="M312 227c0 0 6 -5 6 -13s-6 -12 -6 -12h-15v-28c0 -55 -32 -95 -98 -112v-27s-8 -5 -28 -6v-28c70 -3 112 -14 112 -27v-11c0 -15 -56 -28 -125 -28s-126 13 -126 28v11c0 13 42 24 112 27v28c-20 1 -28 6 -28 6v27c-66 17 -98 54 -98 112v28h-14s-4 3 -4 11s4 14 4 14
h34v-53c0 -66 54 -97 119 -97s119 31 119 97v53h36zM158 112c-46 0 -84 26 -84 56v224c0 30 38 55 84 55s83 -25 83 -55v-224c0 -30 -37 -56 -83 -56z" />
    <glyph glyph-name="uniF14E" unicode="&#xf14e;" 
d="M0 20v138h89v-138h-89zM141 20v234h89v-234h-89zM282 20v331h89v-331h-89zM423 20v428h89v-428h-89z" />
    <glyph glyph-name="uniF14F" unicode="&#xf14f;" 
d="M0 360c149 121 363 121 512 0l-50 -61c-56 46 -128 73 -206 73s-150 -27 -206 -73zM190 128c18 16 41 25 66 25s48 -9 66 -25l-66 -80zM125 208c36 29 81 46 131 46s95 -17 131 -46l-53 -65c-21 19 -48 30 -78 30s-57 -11 -78 -30zM62 284c53 43 121 69 194 69
s141 -26 194 -69l-51 -62c-39 32 -89 51 -143 51s-104 -19 -143 -51z" />
    <glyph glyph-name="uniF150" unicode="&#xf150;" horiz-adv-x="451" 
d="M357 61h94v-30h-94v-95h-29v95h-94v30h94v95h29v-95zM0 134l145 145c-8 16 -13 34 -13 53c0 64 52 116 116 116s116 -52 116 -116s-52 -116 -116 -116c-19 0 -37 5 -53 13l-63 -62h-33v-33h-33v-33l-16 -17h-50v50zM248 365c0 -18 15 -33 33 -33s33 15 33 33
s-15 33 -33 33s-33 -15 -33 -33z" />
    <glyph glyph-name="uniF151" unicode="&#xf151;" horiz-adv-x="379" 
d="M316 190h63v-254h-379v254h263v133c0 35 -24 72 -74 72s-73 -37 -73 -72v-81h-53v81c0 62 43 125 126 125s127 -63 127 -125v-133z" />
    <glyph glyph-name="uniF152" unicode="&#xf152;" 
d="M507 53c7 -7 7 -18 1 -25c-36 -53 -76 -100 -123 -94c-50 7 -161 68 -239 146s-138 189 -145 239c-6 47 41 87 94 123c7 6 17 5 24 -2l2 -2h1l78 -110v0c5 -7 5 -18 -2 -25c-1 -1 -1 -1 -2 -1v0l-1 -1c-11 -7 -12 -8 -21 -14c-13 -8 -34 -18 -57 -28
c5 -31 31 -77 81 -127s97 -77 128 -82c10 23 19 44 27 57c6 9 7 11 14 22l1 1c1 1 0 1 1 2c7 7 18 7 25 2v0l110 -79v0c1 -1 2 -1 3 -2zM459 205c-17 42 -42 82 -74 114s-71 57 -113 74l6 26c46 -18 90 -48 125 -83s64 -78 82 -124zM294 343c26 -11 49 -27 69 -47
s34 -43 45 -69l-22 -11c-10 22 -23 45 -40 62s-39 29 -61 39z" />
    <glyph glyph-name="uniF153" unicode="&#xf153;" 
d="M201 267v-39h118v39c0 33 -26 59 -59 59c-32 0 -59 -26 -59 -59zM356 228h43v-154h-279v154h44v39c0 53 43 96 96 96s96 -43 96 -96v-39zM512 131h-77v31h45v254h-448v-254h52v-31h-84v317h512v-317z" />
    <glyph glyph-name="uniF154" unicode="&#xf154;" horiz-adv-x="438" 
d="M81 232v-42h118v42c0 32 -27 59 -60 59c-32 0 -58 -27 -58 -59zM236 190h43v-145h-279v145h43v42c0 53 43 96 96 96s97 -43 97 -96v-42zM126 -64v71h31v-39h249v448h-249v-52h-31v84h312v-512h-312z" />
    <glyph glyph-name="uniF155" unicode="&#xf155;" 
d="M39 253l275 -275l156 155l-275 276zM195 448l314 -315l-195 -194l-314 314zM301 434l12 1v0v0v0c110 0 199 -90 199 -200h-26c0 72 -44 134 -106 160l-12 -48l-72 81zM226 -56h-12l-1 -1v1c-110 0 -199 89 -199 199h26c0 -72 44 -134 106 -160l12 48l72 -81z" />
    <glyph glyph-name="uniF156" unicode="&#xf156;" horiz-adv-x="349" 
d="M324 448c14 0 25 -12 25 -26v-464c0 -12 -10 -22 -22 -22h-304c-12 0 -22 10 -22 22v160l17 15c5 4 9 7 9 18v15c0 4 -2 14 -14 14c0 0 -13 -3 -13 8v39l46 47v148c0 14 12 26 26 26h252zM163 425v-117h23v117h-23zM93 308v93h-23v-93h23zM140 308v93h-24v-93h24z
M233 308v93h-24v-93h24zM279 308v117h-23v-117h23zM326 308v93h-23v-93h23z" />
    <glyph glyph-name="uniF157" unicode="&#xf157;" horiz-adv-x="421" 
d="M352 218h69v-282h-421v282h70v91c0 69 48 139 141 139s141 -70 141 -139v-91zM129 309v-91h163v91c0 38 -25 80 -81 80s-82 -42 -82 -80z" />
    <glyph glyph-name="uniF158" unicode="&#xf158;" 
d="M34 55v-34h104v34h-104zM0 107h512v-120h-512v120zM34 226v-34h104v34h-104zM0 277h512v-119h-512v119zM34 397v-35h104v35h-104zM0 448h512v-119h-512v119z" />
    <glyph glyph-name="uniF159" unicode="&#xf159;" 
d="M26 228c0 -18 52 -48 144 -59v34l79 -55l-79 -49v35c-88 11 -170 37 -170 94c0 19 25 38 65 48l1 -14c-25 -11 -40 -24 -40 -34zM289 129l-1 40c130 1 198 35 198 60c0 9 -10 18 -28 28v15c31 -10 54 -25 54 -43c0 -56 -98 -99 -223 -100zM180 433l-43 -16v25h43v-9z
M314 329c0 -29 -23 -52 -52 -52s-52 23 -52 52s23 52 52 52s52 -23 52 -52zM399 429l1 -189h-275v159l76 30h16v19h90v-19h92zM337 329c0 41 -34 75 -75 75s-75 -34 -75 -75s34 -75 75 -75s75 34 75 75z" />
    <glyph glyph-name="uniF15A" unicode="&#xf15a;" 
d="M26 253c0 -18 52 -49 144 -60v34l79 -55l-79 -49v36c-88 11 -170 37 -170 94c0 19 25 38 65 48l1 -14c-25 -11 -40 -24 -40 -34zM94 289v127c0 18 15 32 33 32h212l-1 -190l-212 1c-18 0 -32 12 -32 30zM357 314v79l63 37h16v-152h-15zM289 154l-1 39
c130 1 198 36 198 61c0 9 -10 18 -28 28v14c31 -10 54 -24 54 -42c0 -56 -98 -99 -223 -100z" />
    <glyph glyph-name="uniF15B" unicode="&#xf15b;" 
d="M256 448c141 0 256 -115 256 -256s-115 -256 -256 -256s-256 115 -256 256s115 256 256 256zM256 -23c119 0 215 96 215 215s-96 215 -215 215s-215 -96 -215 -215s96 -215 215 -215zM260 365l10 -172l108 -116l-21 -21l-131 116l-2 18l9 175h27z" />
    <glyph glyph-name="uniF15C" unicode="&#xf15c;" horiz-adv-x="324" 
d="M324 342v0v-82h-20v-56l-123 -62v-88c24 -8 42 -30 42 -57c0 -34 -27 -61 -61 -61s-61 27 -61 61c0 27 18 49 42 57v54l-123 53v64c-12 7 -20 20 -20 35c0 22 19 41 41 41s40 -19 40 -41c0 -15 -8 -28 -20 -35v-37l82 -36v210h-44l63 86l63 -86h-44v-175l83 42v31h-21v82
h81z" />
    <glyph glyph-name="uniF15D" unicode="&#xf15d;" 
d="M487 423h25v-240h-25l-99 60v121zM0 400c0 27 21 48 48 48h315v-292h-315c-27 0 -48 21 -48 48v196z" />
    <glyph glyph-name="uniF15E" unicode="&#xf15e;" horiz-adv-x="477" 
d="M453 403l24 -29l-453 -409l-24 29zM73 96c-15 0 -27 43 -27 96s12 96 27 96h60c39 64 101 160 115 160h43c18 0 33 -48 41 -121l-24 -22c-5 65 -14 108 -25 108c-13 0 -30 -63 -37 -151c3 -2 6 -4 8 -6l-177 -160h-4zM312 181l26 24l1 -12c0 -141 -21 -257 -49 -257h-42
c-10 0 -51 55 -87 108l85 77c7 -87 24 -150 37 -150c16 0 28 93 29 210z" />
    <glyph glyph-name="uniF15F" unicode="&#xf15f;" horiz-adv-x="496" 
d="M460 367c23 -55 36 -116 36 -176s-13 -121 -36 -176l-27 16c22 50 33 105 33 160s-11 110 -33 160zM379 276l30 15c13 -32 20 -65 20 -99s-9 -65 -22 -97l-28 9c11 27 20 58 20 87s-9 58 -20 85zM323 219l25 11c11 -25 11 -55 0 -85l-25 9c9 23 8 47 0 65zM246 448
c28 0 48 -114 48 -255s-21 -257 -49 -257h-43c-13 0 -80 100 -120 160h-22v0h-32c-15 0 -28 43 -28 96s13 96 28 96h60c39 64 100 160 114 160h44zM238 -29c16 0 29 99 29 221s-13 221 -29 221c-13 0 -30 -63 -37 -151c18 -11 31 -38 31 -70s-13 -59 -31 -70
c7 -88 24 -151 37 -151z" />
    <glyph glyph-name="uniF160" unicode="&#xf160;" 
d="M453 187l59 -14l-6 -31h-500l-6 31l58 14c0 1 -1 1 -1 1v242c0 10 9 18 19 18h358c10 0 19 -8 19 -18v-242v-1zM414 211v198h-317v-198h317z" />
    <glyph glyph-name="uniF161" unicode="&#xf161;" 
d="M130 90h246l39 -56h-324zM0 446h512v-312h-512v312zM479 168v244h-446v-244h446z" />
    <glyph glyph-name="uniF162" unicode="&#xf162;" 
d="M240 94c-19 0 -34 14 -34 33l-20 287c0 18 16 34 34 34h72c18 0 34 -16 34 -34l-20 -286v-1c0 -19 -15 -33 -34 -33h-32zM496 40c7 -10 16 -18 16 -31v-52c0 -22 -18 -20 -40 -20h-432c-22 0 -40 -2 -40 20v52c0 13 9 21 16 31l39 55c7 9 16 20 30 20h90v-1
c0 -25 40 -49 65 -49h32c25 0 60 24 60 49v1h95c14 0 23 -11 30 -20zM402 24c32 0 58 6 58 13s-26 13 -58 13s-58 -6 -58 -13s26 -13 58 -13z" />
    <glyph glyph-name="uniF163" unicode="&#xf163;" 
d="M356 157c0 6 85 6 85 0v-214c0 -6 -85 -6 -85 0v214zM505 106c6 -15 7 -34 7 -55c0 -46 -8 -84 -53 -84v168h8v64c0 123 -87 208 -211 208s-211 -85 -211 -208v-64h8v-168c-45 0 -53 38 -53 84c0 21 2 41 8 56v92c0 143 104 246 248 246s249 -103 249 -246v-93zM71 159
c0 6 85 6 85 0v-214c0 -6 -85 -6 -85 0v214z" />
    <glyph glyph-name="uniF164" unicode="&#xf164;" horiz-adv-x="429" 
d="M369 31c0 -5 -71 -5 -71 0v179c0 5 71 5 71 0v-179zM423 167c5 -12 6 -28 6 -46c0 -29 -4 -53 -21 -64v-107c0 -6 -5 -11 -11 -11h-169v0h-29v30h86v-9h102v91h-2v141c2 0 4 -1 6 -1v54c0 103 -73 174 -177 174s-176 -71 -176 -174v-54h6v-140c-38 0 -44 31 -44 70
c0 18 1 35 6 47v77c0 120 87 206 208 206s209 -86 209 -206v-78zM59 212c0 5 72 5 72 0v-180c0 -5 -72 -5 -72 0v180z" />
    <glyph glyph-name="uniF165" unicode="&#xf165;" 
d="M44 449v-44h-44v44h44zM132 449v-44h-59v44h59zM220 449v-44h-59v44h59zM307 449v-44h-59v44h59zM395 449v-44h-58v44h58zM425 449h87v-44h-87v44zM73 376v-44h-73v44h73zM103 332v44h58v-44h-58zM250 376v-44h-59v44h59zM278 332v44h59v-44h-59zM366 332v44h58v-44h-58z
M454 332v44h58v-44h-58zM103 304v-44h-103v44h103zM131 260v44h58v-44h-58zM278 304v-44h-58v44h58zM307 260v44h58v-44h-58zM396 260v44h116v-44h-116zM103 181v44h291v-44h-291z" />
    <glyph glyph-name="uniF166" unicode="&#xf166;" horiz-adv-x="344" 
d="M342 215c3 -23 1 -36 1 -59c0 -128 1 -217 -171 -217s-172 89 -172 217c0 23 0 36 2 59h340zM192 451c103 -4 136 -94 150 -195h-150v195zM151 451v-195h-148c10 102 31 192 148 195z" />
    <glyph glyph-name="uniF167" unicode="&#xf167;" horiz-adv-x="265" 
d="M264 382l1 -355s-1 -32 -3 -43v0c-2 -9 -5 -24 -18 -33c-13 -10 -36 -12 -81 -14c-13 -1 -24 -1 -34 -1c-14 0 -25 0 -36 1c-2 0 -5 1 -7 1c-25 1 -32 2 -41 4c-1 0 -3 1 -4 1c-12 2 -20 6 -26 13c-7 8 -13 43 -13 43l-2 33l1 364v1c0 5 1 17 6 25s11 13 22 16
c6 2 15 3 18 4v0c1 2 3 2 4 2h3c7 1 23 2 43 3h6c11 0 19 1 28 1c11 0 21 0 35 -1c30 -2 49 -5 59 -7c8 -2 20 -5 29 -15s10 -43 10 -43zM132 -38c8 0 14 6 14 14s-6 14 -14 14s-14 -6 -14 -14s6 -14 14 -14zM242 37v351h-220v-351h220z" />
    <glyph glyph-name="uniF168" unicode="&#xf168;" 
d="M512 79v0v-36h-81v-81h-36v81h-314v288h-81v36h81v81h36v-81h314v-288h81zM117 79h278v252h-278v-252zM218 213l70 -53l35 14l44 -35v-31h-222v57z" />
    <glyph glyph-name="uniF169" unicode="&#xf169;" horiz-adv-x="498" 
d="M296 190c0 -29 -23 -52 -52 -52s-52 23 -52 52s23 52 52 52s52 -23 52 -52zM498 211v-19c0 -27 -4 -54 -12 -79c-10 -33 -27 -62 -50 -88s-49 -47 -80 -62c-30 -15 -62 -24 -95 -26c-6 0 -12 -1 -18 -1h-1c-27 0 -53 4 -78 12c-33 10 -63 27 -89 50s-47 50 -62 81l64 32
c11 -22 26 -41 45 -57s40 -28 63 -36c18 -6 37 -9 56 -9c5 0 10 1 14 1c24 2 46 8 67 18c22 11 42 26 58 45s27 40 35 63c6 18 9 37 9 56v14c-2 24 -9 46 -19 67c-11 22 -25 42 -44 58s-41 28 -64 35c-22 7 -45 9 -70 8c-23 -2 -46 -8 -67 -18c-16 -8 -33 -21 -46 -33h1
l46 -39l-161 -39l12 166l47 -40v-1c20 21 44 39 70 52c30 15 62 24 95 26c32 2 66 -2 97 -12c33 -11 63 -27 89 -50s47 -49 62 -80c15 -30 24 -62 26 -95z" />
    <glyph glyph-name="uniF16A" unicode="&#xf16a;" horiz-adv-x="499" 
d="M202 190c0 29 23 52 52 52s52 -23 52 -52s-23 -52 -52 -52s-52 23 -52 52zM377 54c19 16 33 35 44 57l65 -32c-15 -31 -37 -58 -63 -81s-55 -40 -88 -50c-25 -8 -52 -12 -79 -12h-1c-6 0 -12 1 -18 1c-33 2 -64 10 -94 25c-31 15 -58 37 -81 63s-39 55 -50 88
c-8 25 -12 52 -12 79c0 6 1 13 1 19c2 33 10 65 25 95c15 31 37 57 63 80s55 39 88 50c31 10 66 14 98 12c33 -2 65 -11 95 -26c26 -13 49 -31 69 -52v1l47 40l13 -166l-162 39l47 39v0c-13 12 -30 25 -46 33c-21 10 -44 16 -67 18c-25 1 -48 -1 -70 -8
c-23 -7 -44 -19 -63 -35s-34 -36 -45 -58c-10 -21 -16 -43 -18 -67c0 -5 -1 -9 -1 -14c0 -19 3 -38 9 -56c8 -23 20 -44 36 -63s35 -34 57 -45c21 -10 44 -16 68 -18c4 0 9 -1 14 -1c19 0 37 3 55 9c23 8 45 20 64 36z" />
    <glyph glyph-name="uniF16B" unicode="&#xf16b;" 
d="M0 448h512v-512h-512v512zM477 -29v442h-442v-442h442zM139 335l246 -142l-246 -142v284z" />
    <glyph glyph-name="uniF16C" unicode="&#xf16c;" 
d="M508 202c3 -3 4 -6 4 -10s-1 -7 -4 -10l-221 -221l-21 -21c-3 -3 -6 -4 -10 -4s-7 1 -10 4l-242 242c-6 6 -6 14 0 20l242 242c6 6 14 6 20 0zM296 153l94 69l-94 69v-43h-115v-3v0v-160h52v111h63v-43z" />
    <glyph glyph-name="uniF16D" unicode="&#xf16d;" 
d="M85 81c-34 4 -7 63 -7 84c0 13 -19 20 -25 30v41c7 0 21 3 25 6c16 11 64 -32 78 -38c23 -10 -29 -60 -38 -68c-16 -15 -47 -33 -33 -55zM93 323c-9 -8 -21 -7 -29 -16c-2 -2 -11 -4 -12 -6v40c13 11 6 35 32 20c8 -5 45 -26 44 -34c0 -3 -33 17 -35 16
c-10 -3 5 -16 0 -20zM360 151c-10 -6 -1 30 4 35c3 -4 6 -29 -4 -35zM259 230c-21 8 -51 -14 -49 29c1 24 28 50 53 43c27 -8 66 -16 75 22c-9 -2 -56 -17 -61 -6c-6 15 -52 -28 -58 -7c-4 13 21 11 24 12c11 6 -17 15 -16 17s7 29 16 24c3 -2 2 -22 8 -28c2 -2 11 10 16 8
c8 -3 47 5 38 19c-7 11 -24 -19 -26 -18c0 0 -12 26 -17 19c5 7 32 18 54 22h23c3 -1 5 -4 5 -7c0 1 -19 -8 -12 -10c6 -1 57 14 57 13c-2 -14 36 -11 44 -11h27v-108c-8 -9 -22 -24 -28 -25c-9 -2 -13 39 -30 39c-3 0 -46 16 -36 3c8 -10 34 -19 4 -27c-13 -3 -18 -6 -24 8
c0 0 -9 26 -16 17c-4 -6 19 -23 20 -31c1 -13 18 2 21 -4c3 -7 -30 -36 -31 -47c-1 -22 -6 -42 -25 -58c-35 -30 -34 83 -56 92zM403 84c25 10 41 28 56 38v-67h-67c-2 7 0 25 11 29zM69 263c0 0 -11 5 -17 10v9c4 -5 16 -11 17 -19zM512 448v-445h-512v445h512zM479 37v376
h-447v-376h447z" />
    <glyph glyph-name="uniF16E" unicode="&#xf16e;" horiz-adv-x="304" 
d="M152 243c32 0 58 25 58 56s-26 56 -58 56s-58 -25 -58 -56s26 -56 58 -56zM285 372c12 -21 21 -48 19 -81c-1 -15 -5 -28 -10 -40s-10 -24 -17 -34c-25 -41 -59 -76 -78 -123c-10 -24 -19 -48 -26 -74s-13 -54 -16 -84h-5h-5c-3 30 -9 58 -16 84s-16 50 -26 74
c-19 47 -53 82 -78 123c-7 10 -12 22 -17 34s-9 25 -10 40c-2 33 7 60 19 81c18 31 46 55 84 68c7 2 13 4 20 5s16 3 24 3h5h5c8 0 17 -2 24 -3s13 -3 20 -5c38 -13 66 -37 84 -68z" />
    <glyph glyph-name="uniF16F" unicode="&#xf16f;" 
d="M447 243h-3l-1 2l1 3l3 -1l2 -1h1l-1 -2zM458 228l-33 3l-2 3l3 7l4 5h6l21 -15zM124 245l3 4l4 -1l-1 -3l-8 -9zM129 259l4 -3l-18 -4l14 7v0zM140 242l-2 1l-2 3v2l2 2l3 1l3 -1l-1 -4v1l-2 -4zM418 305l-34 -29l-13 5l7 6l28 45l-6 -21l5 -4l11 -1zM445 180l5 -2
l22 -42zM256 448c141 0 256 -115 256 -256s-115 -256 -256 -256s-256 115 -256 256s115 256 256 256zM341 272l-15 23v-21l4 -12l11 3v7zM339 328l2 6l-3 2l-8 -2l-8 2v-10l1 -2l10 -1zM199 409l-9 -7l12 1l25 16c-8 -1 -15 -2 -23 -4zM174 404v-9l8 -7l11 -1l7 6l-4 1
l-17 9zM164 402l-12 -6l1 -1h4l5 2l3 3zM139 373v-3l7 -1l4 5l1 6l-3 2zM94 354v-2l11 -6l16 8l13 13l1 13l-12 -2h-1c-8 -6 -15 -11 -22 -18l1 -1zM30 167l1 4l-5 9v-2zM243 24l15 48l-12 9l-33 9l-19 26l-24 9l-56 2l-17 28l-5 1l-14 -7l-5 6l-1 8l2 6l9 12l10 6l27 -5
l3 -11l8 -2v17l22 31l48 27l-7 1l-12 9l32 9l1 -2l-1 -3l-2 -3l-3 -2l2 -3l8 -1l6 3l-21 50l-2 -1l-26 13l-5 -6l-15 -38l-7 7l-17 8l-11 11l13 19l37 29l6 16l17 -11l3 -6l-18 -15l18 -12l4 3l1 -1l8 13l-2 1l11 12l-8 14l-21 18l11 2l-1 3l-6 1l-17 -10l6 10l-12 -4
l-2 -29l-10 -6l-6 6l17 32l-1 1l-2 1h-2l-2 -1l-27 -38v2l3 6l-1 2l-5 -3l-39 -8l-7 4c-39 -42 -62 -98 -62 -159v-2v0l6 -2l21 -35l62 -28l9 -9v-13l-8 -18v-11l27 -52l1 -29c15 -8 31 -15 47 -20l28 36zM165 323l-2 6l-2 3h-2l-8 -10l2 -1h9zM251 316l8 -8l65 56l16 41
c-26 10 -56 16 -86 16c-4 0 -7 -1 -11 -1l-3 -1l-7 -9l-1 -6l3 -4l16 -3l5 -32l-8 -19l-2 -15zM479 129l-2 1l2 1c5 19 8 40 8 61c0 15 -2 29 -5 43l-1 3l1 1c-7 33 -22 64 -42 90l-1 -1l-8 9l3 1c-7 9 -16 16 -24 24h-7l-13 -5l-34 -46l2 -6l16 -12v-7l-45 -32l1 -5l3 -6
l1 -5l-19 -8l-1 -10l1 -12l-29 -58l-2 -26l22 -13l37 1l16 -5l31 -105c42 30 75 75 89 127zM446 210v-10l-50 -10l-9 3l-19 17l-42 -2l32 24h15l10 -16l2 1l2 1l2 3l-1 6l-11 8l-1 5l1 -1l4 1v1l27 -29l1 1l-1 10l4 -4z" />
    <glyph glyph-name="uniF170" unicode="&#xf170;" 
d="M512 418l-310 -313v0l-30 -30l-172 171l30 30l142 -141l310 313z" />
    <glyph glyph-name="uniF171" unicode="&#xf171;" 
d="M241 -34l-241 241l241 241l42 -42l-170 -170h399v-59h-399l170 -169z" />
    <glyph glyph-name="uniF172" unicode="&#xf172;" 
d="M512 409l-216 -217l216 -217l-39 -39l-217 217l-217 -217l-39 39l217 217l-217 217l39 39l217 -217l217 217z" />
    <glyph glyph-name="uniF173" unicode="&#xf173;" 
d="M44 176l-44 51l256 221l256 -221l-44 -51l-212 183z" />
    <glyph glyph-name="uniF174" unicode="&#xf174;" 
d="M468 448l44 -51l-256 -221l-256 221l44 51l212 -183z" />
    <glyph glyph-name="uniF175" unicode="&#xf175;" 
d="M271 448l241 -241l-241 -241l-42 42l170 169h-399v59h399l-170 170z" />
    <glyph glyph-name="uniF176" unicode="&#xf176;" horiz-adv-x="272" 
d="M0 404l51 44l221 -256l-221 -256l-51 44l183 212z" />
    <glyph glyph-name="uniF177" unicode="&#xf177;" horiz-adv-x="272" 
d="M272 -20l-51 -44l-221 256l221 256l51 -44l-183 -212z" />
    <glyph glyph-name="uniF178" unicode="&#xf178;" horiz-adv-x="459" 
d="M300 353c-39 17 -83 20 -124 7c-78 -24 -127 -98 -122 -179l-54 -4c-7 106 59 202 160 234c59 19 124 12 178 -17l51 54l14 -151l-160 -5zM298 -27c-22 -7 -45 -10 -68 -10c-38 0 -75 9 -109 27l-51 -54l-14 151l160 5l-57 -61c39 -17 82 -20 123 -7
c78 25 128 98 123 179l53 4c7 -106 -59 -202 -160 -234z" />
    <glyph glyph-name="uniF179" unicode="&#xf179;" 
d="M492 395c11 0 20 -24 20 -104s-9 -105 -20 -105c-46 0 -79 -5 -90 -7c-63 -12 -56 -27 -110 -65c-60 -42 -62 -48 -78 -76s-24 -34 -38 -58c-13 -22 -19 -38 -38 -35c-11 2 -24 27 -26 42c-4 43 10 73 38 104c8 19 11 26 5 47c-30 2 -80 3 -111 7v0c-25 2 -43 19 -43 45
c0 24 13 36 32 39c-21 1 -36 16 -33 41c3 27 20 37 41 37c-11 5 -18 17 -16 35c2 25 19 35 40 39l7 1c-8 6 -11 15 -7 30c4 16 14 25 27 29v0c25 7 59 11 138 0c42 -6 99 -18 144 -37c27 -7 68 -9 118 -9z" />
    <glyph glyph-name="uniF17A" unicode="&#xf17a;" horiz-adv-x="466" 
d="M233 353c21 48 58 94 111 94c31 0 59 -15 85 -45c25 -28 37 -57 37 -86c0 -43 -11 -88 -35 -135c-20 -41 -50 -84 -88 -129c-29 -34 -66 -73 -111 -116c-39 38 -75 76 -106 113c-38 46 -68 88 -89 128c-25 47 -37 90 -37 127c0 36 11 67 33 96c24 32 53 48 88 48
c54 0 91 -47 112 -95z" />
    <glyph glyph-name="uniF17B" unicode="&#xf17b;" 
d="M479 164c20 -1 36 -16 33 -41c-3 -27 -20 -38 -41 -38c11 -5 18 -16 16 -34c-2 -25 -19 -35 -40 -39l-7 -1c8 -6 11 -15 7 -30c-4 -16 -14 -25 -27 -29v-1c-25 -7 -59 -10 -138 1c-42 6 -99 17 -144 36c-27 7 -68 10 -118 10c-11 0 -20 24 -20 104s9 104 20 104
c46 0 79 6 90 8c63 12 56 26 110 64c60 42 62 49 78 77s24 34 38 58c13 22 19 38 38 35c11 -2 25 -27 27 -42c4 -43 -11 -73 -39 -104c-8 -19 -11 -26 -5 -47c30 -2 80 -3 111 -7v0c25 -2 43 -19 43 -45c0 -24 -13 -36 -32 -39z" />
    <glyph glyph-name="uniF17C" unicode="&#xf17c;" 
d="M512 262l-139 -121l41 -180l-158 95l-158 -95l41 180l-139 121l184 16l72 170l72 -170zM386 -0l-31 137l-3 11l9 7l105 92l-139 13l-12 1l-4 10l-55 129v-322l10 -6z" />
    <glyph glyph-name="uniF17D" unicode="&#xf17d;" 
d="M256 448l72 -170l184 -16l-139 -121l41 -180l-158 95l-158 -95l41 180l-139 121l184 16z" />
    <glyph glyph-name="uniF17E" unicode="&#xf17e;" 
d="M256 400l-55 -129l-4 -10l-12 -1l-139 -13l105 -92l9 -7l-3 -11l-31 -137l120 72l10 6l10 -6l120 -72l-31 137l-3 11l9 7l105 92l-139 13l-12 1l-4 10zM256 448v0l72 -170l184 -16l-139 -121l41 -180l-158 95l-158 -95l41 180l-139 121l184 16z" />
    <glyph glyph-name="uniF17F" unicode="&#xf17f;" 
d="M440 97h72v-22h-72v-71h-22v71h-71v22h71v73h22v-73zM238 229c-60 0 -110 50 -110 110s50 109 110 109s109 -49 109 -109s-49 -110 -109 -110zM321 306h-156c17 -32 45 -54 78 -54s61 22 78 54zM84 268c-32 0 -58 27 -58 59s26 59 58 59c12 0 24 -4 33 -10
c-4 -12 -6 -24 -6 -37c0 -10 2 -21 4 -30h-70c9 -17 24 -29 42 -29c12 0 23 6 32 15c1 -4 3 -7 5 -11c-10 -10 -25 -16 -40 -16zM450 327c0 -32 -27 -59 -59 -59c-15 0 -29 6 -39 16c3 5 4 10 6 16c9 -12 22 -20 36 -20c18 0 33 12 42 29h-75c2 9 3 20 3 30
c0 13 -1 25 -5 37c9 6 20 10 32 10c32 0 59 -27 59 -59zM304 215c43 -11 76 -37 91 -94h-314c15 57 49 83 91 94c20 -11 42 -16 66 -16s46 5 66 16zM154 239c-20 -7 -38 -16 -53 -29h-101c8 31 26 45 49 51c11 -6 22 -9 35 -9s25 3 36 9c14 -4 25 -11 34 -22zM391 252
c13 0 25 3 36 9c23 -6 41 -20 49 -51h-102c-15 13 -33 22 -53 29c9 11 21 18 35 22c11 -6 22 -9 35 -9z" />
    <glyph glyph-name="uniF180" unicode="&#xf180;" horiz-adv-x="497" 
d="M414 44h83v-26h-83v-82h-25v82h-82v26h82v83h25v-83zM181 448c70 0 126 -56 126 -126s-56 -126 -126 -126s-126 56 -126 126s56 126 126 126zM187 222c38 0 71 25 90 62h-180c19 -37 52 -62 90 -62zM257 180c49 -13 87 -43 105 -109h-362c18 66 56 96 105 109
c23 -12 49 -19 76 -19s53 7 76 19z" />
    <glyph glyph-name="uniF181" unicode="&#xf181;" 
d="M170 153c-65 0 -118 53 -118 118s53 119 118 119s118 -54 118 -119s-53 -118 -118 -118zM260 236h-169c18 -35 50 -59 85 -59s66 24 84 59zM242 137c46 -12 81 -40 98 -102h-340c17 62 53 90 99 102c21 -11 45 -17 71 -17s51 6 72 17zM312 291c-6 43 -32 80 -68 102
c21 31 57 52 98 52c65 0 118 -53 118 -118s-53 -119 -118 -119c-14 0 -27 2 -40 7c4 9 6 18 8 27c12 -6 25 -9 38 -9c35 0 66 23 84 58h-120zM413 193c46 -12 82 -41 99 -103h-168c-19 33 -48 56 -87 68c10 8 20 18 28 28c18 -7 37 -11 57 -11c26 0 50 7 71 18z" />
    <glyph glyph-name="uniF182" unicode="&#xf182;" 
d="M426 448h86l-85 -85v-212h-427v297h426zM49 353v-41h228v41h-228zM384 242v41h-335v-41h335z" />
    <glyph glyph-name="uniF183" unicode="&#xf183;" 
d="M512 227l-219 -220v162h-125l70 117h55v162zM152 286h60l-70 -117h-60zM70 286h60l-70 -117h-60z" />
    <glyph glyph-name="uniF184" unicode="&#xf184;" 
d="M256 448c65 0 118 -53 118 -118s-53 -117 -118 -117s-118 52 -118 117s53 118 118 118zM262 237c35 0 66 23 84 58h-168c18 -35 49 -58 84 -58zM128 283l6 -12c-11 -10 -27 -17 -43 -17c-35 0 -63 29 -63 64s28 63 63 63c13 0 25 -4 35 -11c-4 -13 -6 -26 -6 -40
c0 -11 2 -21 4 -31h-75c10 -19 26 -31 45 -31c13 0 25 5 34 15zM421 381c35 0 63 -28 63 -63s-28 -64 -63 -64c-16 0 -32 7 -43 17c3 6 5 12 7 18c10 -13 24 -21 39 -21c19 0 35 12 45 31h-81c2 10 4 20 4 31c0 14 -2 27 -6 40c10 7 22 11 35 11zM327 197
c46 -12 82 -40 98 -101h-338c16 61 52 89 98 101c21 -11 45 -18 71 -18s50 7 71 18zM166 224c-22 -7 -41 -19 -57 -33h-109c9 33 28 49 53 55c11 -6 24 -9 38 -9s27 3 38 9c15 -4 27 -10 37 -22zM403 191c-16 14 -35 26 -57 33c10 12 22 18 37 22c11 -6 24 -9 38 -9
s27 3 38 9c25 -6 44 -22 53 -55h-109z" />
    <glyph glyph-name="uniF185" unicode="&#xf185;" horiz-adv-x="491" 
d="M246 448c94 0 171 -77 171 -171s-77 -171 -171 -171s-171 77 -171 171s77 171 171 171zM254 142c51 0 96 33 122 84h-244c26 -51 71 -84 122 -84zM349 84c66 -17 118 -59 142 -148h-491c24 89 76 131 142 148c31 -16 67 -26 104 -26s72 10 103 26z" />
    <glyph glyph-name="uniF186" unicode="&#xf186;" 
d="M342 318c131 0 163 -92 170 -129l-90 -49c0 15 -6 36 -14 49c-15 23 -40 34 -65 34h-51v-131l-177 178l160 161l17 17v-130h50zM179 354l-85 -84l85 -84v-94l-179 178l179 178v-94z" />
    <glyph glyph-name="uniF187" unicode="&#xf187;" 
d="M293 279c169 0 210 -118 219 -165l-117 -63c0 19 -6 47 -17 63c-19 29 -52 43 -84 43h-61v-169l-233 230l233 230v-169h60z" />
    <glyph glyph-name="uniF188" unicode="&#xf188;" 
d="M0 -57l49 229l307 22v3l-307 21l-49 230l512 -253z" />
    <glyph glyph-name="uniF189" unicode="&#xf189;" horiz-adv-x="488" 
d="M408 96c44 0 80 -36 80 -80s-36 -80 -80 -80s-80 36 -80 80c0 7 1 15 3 22l-191 102c-15 -17 -36 -28 -60 -28c-44 0 -80 36 -80 80s36 80 80 80c24 0 45 -11 60 -28l191 102c-2 7 -3 15 -3 22c0 44 36 80 80 80s80 -36 80 -80s-36 -80 -80 -80c-24 0 -46 11 -61 28
l-190 -102c2 -7 3 -14 3 -22s-1 -15 -3 -22l190 -102c15 17 37 28 61 28z" />
    <glyph glyph-name="uniF18A" unicode="&#xf18a;" 
d="M501 438c19 -19 15 -53 -27 -96l-95 -95l46 -266l-44 -45l-85 239l-117 -111l15 -107l-21 -21l-62 100l-111 76l21 21l112 -22l109 121l-240 90l44 45l268 -52l94 94c42 43 74 48 93 29z" />
    <glyph glyph-name="uniF18B" unicode="&#xf18b;" horiz-adv-x="450" 
d="M228 448c23 0 34 -53 34 -74l-1 -115l189 -133v-54l-196 92l-5 -147l74 -55v-26l-98 23l-99 -23v26l82 55l-7 149l-201 -93v54l195 132l1 115c0 21 9 74 32 74z" />
    <glyph glyph-name="uniF18C" unicode="&#xf18c;" 
d="M360 448l152 -152v-208l-152 -152h-208l-152 152v208l152 152h208zM290 59v55h-67v-55h67zM290 148v200h-67v-201z" />
    <glyph glyph-name="uniF18D" unicode="&#xf18d;" 
d="M507 37c12 -21 2 -39 -23 -39h-456c-25 0 -35 18 -23 39l228 395c12 21 33 21 45 0zM287 60v61h-62v-61h62zM287 160v144h-62v-144h62z" />
  </font>
</defs>
</svg>
