<?xml version="1.0" encoding="iso-8859-1"?>
<!-- Generator: Adobe Illustrator 17.0.0, SVG Export Plug-In . SVG Version: 6.00 Build 0)  -->
<!DOCTYPE svg PUBLIC "-//W3C//DTD SVG 1.1//EN" "http://www.w3.org/Graphics/SVG/1.1/DTD/svg11.dtd">
<svg version="1.1" xmlns="http://www.w3.org/2000/svg" xmlns:xlink="http://www.w3.org/1999/xlink" x="0px" y="0px"
	 width="64.527px" height="64.525px" viewBox="0 0 64.527 64.525" style="enable-background:new 0 0 64.527 64.525;"
	 xml:space="preserve">
<g id="_x32__action_search">
	<path style="fill:#333333;" d="M63.758,54.442L51.594,42.274c-1.07-1.068-3.008-0.967-4.95,0.045l-5.308-5.305
		c6.914-9.034,6.262-22.003-2.003-30.268c-8.999-8.995-23.586-8.995-32.586,0c-8.995,9-8.995,23.588,0,32.587
		c8.268,8.265,21.236,8.917,30.269,2.001l5.307,5.304c-1.012,1.946-1.115,3.882-0.047,4.952l12.166,12.168
		c1.537,1.535,4.874,0.691,7.441-1.883C64.453,59.308,65.297,55.977,63.758,54.442z M10.173,35.909
		c-7.104-7.11-7.104-18.632,0-25.736c7.109-7.109,18.622-7.104,25.735,0c7.104,7.104,7.104,18.622,0,25.736
		C28.795,43.012,17.277,43.012,10.173,35.909z"/>
</g>
<g id="&#x5716;&#x5C64;_1">
</g>
</svg>
