<?xml version="1.0" encoding="iso-8859-1"?>
<!-- Generator: Adobe Illustrator 17.0.0, SVG Export Plug-In . SVG Version: 6.00 Build 0)  -->
<!DOCTYPE svg PUBLIC "-//W3C//DTD SVG 1.1//EN" "http://www.w3.org/Graphics/SVG/1.1/DTD/svg11.dtd">
<svg version="1.1" xmlns="http://www.w3.org/2000/svg" xmlns:xlink="http://www.w3.org/1999/xlink" x="0px" y="0px"
	 width="62.635px" height="62.641px" viewBox="0 0 62.635 62.641" style="enable-background:new 0 0 62.635 62.641;"
	 xml:space="preserve">
<g id="_x32__action_about">
	<g>
		<path style="fill:#333333;" d="M33.768,15.392c-0.315-0.242-0.681-0.415-1.102-0.512c-0.417-0.097-0.864-0.146-1.338-0.146
			c-0.475,0-0.925,0.049-1.35,0.146c-0.426,0.097-0.795,0.269-1.111,0.512c-0.314,0.243-0.561,0.566-0.743,0.963
			c-0.181,0.398-0.272,0.898-0.272,1.498c0,0.586,0.092,1.082,0.272,1.484c0.183,0.406,0.43,0.732,0.743,0.976
			c0.316,0.242,0.686,0.42,1.111,0.523c0.425,0.104,0.875,0.156,1.35,0.156c0.474,0,0.921-0.053,1.338-0.156
			c0.421-0.103,0.786-0.281,1.102-0.523c0.312-0.243,0.566-0.569,0.752-0.976c0.188-0.402,0.283-0.898,0.283-1.484
			c0-0.6-0.096-1.1-0.283-1.498C34.334,15.958,34.08,15.635,33.768,15.392z"/>
		<rect x="28.124" y="23.902" style="fill:#333333;" width="6.388" height="23.402"/>
		<path style="fill:#333333;" d="M31.315,0C14.048,0,0,14.051,0,31.321c0,17.269,14.048,31.319,31.315,31.319
			c17.269,0,31.32-14.05,31.32-31.319C62.635,14.051,48.584,0,31.315,0z M31.315,58.118c-14.774,0-26.792-12.021-26.792-26.797
			c0-14.777,12.019-26.799,26.792-26.799c14.775,0,26.797,12.021,26.797,26.799C58.111,46.097,46.09,58.118,31.315,58.118z"/>
	</g>
</g>
<g id="&#x5716;&#x5C64;_1">
</g>
</svg>
