<?xml version="1.0" encoding="iso-8859-1"?>
<!-- Generator: Adobe Illustrator 17.0.0, SVG Export Plug-In . SVG Version: 6.00 Build 0)  -->
<!DOCTYPE svg PUBLIC "-//W3C//DTD SVG 1.1//EN" "http://www.w3.org/Graphics/SVG/1.1/DTD/svg11.dtd">
<svg version="1.1" xmlns="http://www.w3.org/2000/svg" xmlns:xlink="http://www.w3.org/1999/xlink" x="0px" y="0px"
	 width="72.021px" height="74.02px" viewBox="0 0 72.021 74.02" style="enable-background:new 0 0 72.021 74.02;"
	 xml:space="preserve">
<g id="_x32__action_settings">
	<path style="fill:#333333;" d="M20.126,24.007c-2.811,0-5.121,2.3-5.121,5.121v15.765c0,2.82,2.311,5.121,5.121,5.121h1.76
		c2.81,0,5.122-2.301,5.122-5.121V29.128c0-2.821-2.312-5.121-5.122-5.121H20.126z M50.135,48.014c-2.811,0-5.121,2.299-5.121,5.121
		v15.764c0,2.822,2.311,5.121,5.121,5.121h1.761c2.81,0,5.122-2.299,5.122-5.121V53.135c0-2.822-2.312-5.121-5.122-5.121H50.135z
		 M50.135,0c-2.811,0-5.121,2.301-5.121,5.121v15.765c0,2.821,2.311,5.122,5.121,5.122h1.761c2.821,0,5.122-2.301,5.122-5.122V5.121
		c0-2.82-2.301-5.121-5.122-5.121H50.135z M42.013,11.003H0v4.001h42.013V11.003z M72.021,15.004v-4.001H60.018v4.001H72.021z
		 M12.003,35.01H0v4h12.003V35.01z M72.021,39.01v-4H30.009v4H72.021z M42.013,59.016H0v4.002h42.013V59.016z M72.021,63.018v-4.002
		H60.018v4.002H72.021z"/>
</g>
<g id="&#x5716;&#x5C64;_1">
</g>
</svg>
