<?xml version="1.0" encoding="iso-8859-1"?>
<!-- Generator: Adobe Illustrator 17.0.0, SVG Export Plug-In . SVG Version: 6.00 Build 0)  -->
<!DOCTYPE svg PUBLIC "-//W3C//DTD SVG 1.1//EN" "http://www.w3.org/Graphics/SVG/1.1/DTD/svg11.dtd">
<svg version="1.1" xmlns="http://www.w3.org/2000/svg" xmlns:xlink="http://www.w3.org/1999/xlink" x="0px" y="0px"
	 width="69.279px" height="58.795px" viewBox="0 0 69.279 58.795" style="enable-background:new 0 0 69.279 58.795;"
	 xml:space="preserve">
<g id="_x39__av_add_to_queue">
	<g>
		<polygon style="fill:#333333;" points="15.847,15.85 53.437,15.85 53.437,42.951 58.721,42.951 58.721,10.567 15.847,10.567 		"/>
		<polygon style="fill:#333333;" points="36.979,0 36.979,5.281 64.003,5.281 64.003,29.744 69.279,29.744 69.279,0 		"/>
		<path style="fill:#333333;" d="M0,58.795h48.152v-37.67H0V58.795z M11.384,41.521v-3.348v-0.358h0.358h10.184V27.473v-0.355h0.358
			h3.345h0.36v0.355v10.343h10.183h0.358v0.358v3.348v0.357h-0.358H25.988v10.338v0.357h-0.36h-3.345h-0.358v-0.357V41.879H11.741
			h-0.358V41.521z"/>
	</g>
</g>
<g id="&#x5716;&#x5C64;_1">
</g>
</svg>
