<?xml version="1.0" encoding="iso-8859-1"?>
<!-- Generator: Adobe Illustrator 17.0.0, SVG Export Plug-In . SVG Version: 6.00 Build 0)  -->
<!DOCTYPE svg PUBLIC "-//W3C//DTD SVG 1.1//EN" "http://www.w3.org/Graphics/SVG/1.1/DTD/svg11.dtd">
<svg version="1.1" xmlns="http://www.w3.org/2000/svg" xmlns:xlink="http://www.w3.org/1999/xlink" x="0px" y="0px"
	 width="61.684px" height="61.684px" viewBox="0 0 61.684 61.684" style="enable-background:new 0 0 61.684 61.684;"
	 xml:space="preserve">
<g id="_x39__av_full_screen">
	<g>
		<polygon style="fill:#333333;" points="61.684,0.003 58.418,21.183 52.832,15.593 41.428,26.999 34.742,20.312 46.146,8.909 
			40.503,3.261 		"/>
		<polygon style="fill:#333333;" points="0,61.682 3.265,40.504 8.852,46.094 20.257,34.688 26.942,41.371 15.537,52.775 
			21.183,58.424 		"/>
		<polygon style="fill:#333333;" points="0,0 21.183,3.261 15.593,8.855 26.997,20.261 20.312,26.942 8.905,15.538 3.263,21.183 		
			"/>
		<polygon style="fill:#333333;" points="61.684,61.684 40.503,58.422 46.093,52.83 34.688,41.426 41.371,34.744 52.778,46.148 
			58.422,40.504 		"/>
	</g>
</g>
<g id="&#x5716;&#x5C64;_1">
</g>
</svg>
