<?xml version="1.0" encoding="iso-8859-1"?>
<!-- Generator: Adobe Illustrator 17.0.0, SVG Export Plug-In . SVG Version: 6.00 Build 0)  -->
<!DOCTYPE svg PUBLIC "-//W3C//DTD SVG 1.1//EN" "http://www.w3.org/Graphics/SVG/1.1/DTD/svg11.dtd">
<svg version="1.1" xmlns="http://www.w3.org/2000/svg" xmlns:xlink="http://www.w3.org/1999/xlink" x="0px" y="0px"
	 width="61.879px" height="61.879px" viewBox="0 0 61.879 61.879" style="enable-background:new 0 0 61.879 61.879;"
	 xml:space="preserve">
<g id="_x39__av_make_available_offline">
	<path style="fill:#333333;" d="M17.734,41.338c-7.098-7.576-10.75-15.39-8.219-17.92l2.117-2.124
		c1.99-1.984,7.233-0.156,13.051,4.147L37.828,12.3c-3.295-4.373-4.854-8.014-3.653-9.214l2.681-2.685
		c1.746-1.742,8.674,2.351,15.471,9.149c6.799,6.799,10.896,13.727,9.15,15.473l-2.68,2.683c-1.205,1.197-4.847-0.359-9.215-3.655
		l-13.141,13.14c4.304,5.825,6.131,11.065,4.146,13.052l-2.122,2.122c-2.535,2.532-10.35-1.121-17.926-8.217l-7.585,7.584
		L0.938,61.879L0,60.946l10.149-12.023L17.734,41.338z"/>
</g>
<g id="&#x5716;&#x5C64;_1">
</g>
</svg>
