<?xml version="1.0" encoding="iso-8859-1"?>
<!-- Generator: Adobe Illustrator 17.0.0, SVG Export Plug-In . SVG Version: 6.00 Build 0)  -->
<!DOCTYPE svg PUBLIC "-//W3C//DTD SVG 1.1//EN" "http://www.w3.org/Graphics/SVG/1.1/DTD/svg11.dtd">
<svg version="1.1" xmlns="http://www.w3.org/2000/svg" xmlns:xlink="http://www.w3.org/1999/xlink" x="0px" y="0px"
	 width="74.143px" height="74.148px" viewBox="0 0 74.143 74.148" style="enable-background:new 0 0 74.143 74.148;"
	 xml:space="preserve">
<g id="_x39__av_pause_over_video">
	<g>
		<rect x="21.603" y="21.604" style="fill:#333333;" width="12.376" height="30.939"/>
		<rect x="40.165" y="21.604" style="fill:#333333;" width="12.375" height="30.939"/>
	</g>
	<g>
		<path style="fill-rule:evenodd;clip-rule:evenodd;fill:#333333;" d="M37.069,0C16.63,0,0,16.632,0,37.075
			c0,20.442,16.63,37.073,37.069,37.073c20.442,0,37.073-16.631,37.073-37.073C74.143,16.632,57.512,0,37.069,0z M37.069,70.239
			c-18.285,0-33.16-14.876-33.16-33.164S18.784,3.908,37.069,3.908c18.287,0,33.164,14.879,33.164,33.167
			S55.356,70.239,37.069,70.239z"/>
	</g>
</g>
<g id="&#x5716;&#x5C64;_1">
</g>
</svg>
