<?xml version="1.0" encoding="iso-8859-1"?>
<!-- Generator: Adobe Illustrator 17.0.0, SVG Export Plug-In . SVG Version: 6.00 Build 0)  -->
<!DOCTYPE svg PUBLIC "-//W3C//DTD SVG 1.1//EN" "http://www.w3.org/Graphics/SVG/1.1/DTD/svg11.dtd">
<svg version="1.1" xmlns="http://www.w3.org/2000/svg" xmlns:xlink="http://www.w3.org/1999/xlink" x="0px" y="0px"
	 width="61.668px" height="61.699px" viewBox="0 0 61.668 61.699" style="enable-background:new 0 0 61.668 61.699;"
	 xml:space="preserve">
<g id="_x39__av_return_from_full_screen">
	<g>
		<polygon style="fill:#333333;" points="34.664,27.001 37.928,5.815 43.518,11.407 54.927,0 61.609,6.686 50.202,18.094 
			55.852,23.739 		"/>
		<polygon style="fill:#333333;" points="27.006,34.699 23.742,55.883 18.152,50.291 6.742,61.699 0.056,55.016 11.465,43.607 
			5.819,37.959 		"/>
		<polygon style="fill:#333333;" points="27.002,26.95 5.816,23.685 11.406,18.091 0,6.683 6.685,0 18.094,11.407 23.74,5.761 		"/>
		<polygon style="fill:#333333;" points="34.664,34.752 55.852,38.018 50.26,43.607 61.668,55.016 54.98,61.699 43.572,50.291 
			37.928,55.938 		"/>
	</g>
</g>
<g id="&#x5716;&#x5C64;_1">
</g>
</svg>
