<?xml version="1.0" encoding="iso-8859-1"?>
<!-- Generator: Adobe Illustrator 17.0.0, SVG Export Plug-In . SVG Version: 6.00 Build 0)  -->
<!DOCTYPE svg PUBLIC "-//W3C//DTD SVG 1.1//EN" "http://www.w3.org/Graphics/SVG/1.1/DTD/svg11.dtd">
<svg version="1.1" xmlns="http://www.w3.org/2000/svg" xmlns:xlink="http://www.w3.org/1999/xlink" x="0px" y="0px"
	 width="76.732px" height="63.25px" viewBox="0 0 76.732 63.25" style="enable-background:new 0 0 76.732 63.25;"
	 xml:space="preserve">
<g id="_x39__av_repeat">
	<g>
		<path style="fill:#333333;" d="M67.557,30.269c0.064,0.509,0.107,1.024,0.107,1.554c0,7.301-5.942,13.242-13.244,13.242H18.654
			V33.099L0,48.177L18.654,63.25V52.074H54.42c11.17,0,20.255-9.083,20.255-20.252c0-2.256-0.381-4.479-1.129-6.625L67.557,30.269z"
			/>
		<path style="fill:#333333;" d="M9.171,32.983c-0.064-0.508-0.102-1.027-0.102-1.554c0-7.301,5.942-13.245,13.243-13.245h35.767
			V30.15l18.653-15.075L58.079,0v11.175H22.313c-11.169,0-20.256,9.086-20.256,20.255c0,2.253,0.377,4.477,1.129,6.625L9.171,32.983
			z"/>
	</g>
</g>
<g id="&#x5716;&#x5C64;_1">
</g>
</svg>
