<?xml version="1.0" encoding="iso-8859-1"?>
<!-- Generator: Adobe Illustrator 17.0.0, SVG Export Plug-In . SVG Version: 6.00 Build 0)  -->
<!DOCTYPE svg PUBLIC "-//W3C//DTD SVG 1.1//EN" "http://www.w3.org/Graphics/SVG/1.1/DTD/svg11.dtd">
<svg version="1.1" xmlns="http://www.w3.org/2000/svg" xmlns:xlink="http://www.w3.org/1999/xlink" x="0px" y="0px"
	 width="63.758px" height="72.207px" viewBox="0 0 63.758 72.207" style="enable-background:new 0 0 63.758 72.207;"
	 xml:space="preserve">
<g id="_x34__collections_new_label">
	<g>
		<polygon style="fill:#333333;" points="50.652,54.749 50.652,41.448 46.492,41.448 46.492,54.749 33.39,54.749 33.39,58.911 
			46.492,58.911 46.492,72.207 50.652,72.207 50.652,58.911 63.758,58.911 63.758,54.749 		"/>
		<path style="fill:#333333;" d="M28.015,3.332L0.045,31.073L0,51.678l20.602-0.049l27.973-27.746L28.015,3.332z M6.578,47.362
			c-1.303,0-2.357-1.056-2.357-2.356c0-1.302,1.055-2.357,2.357-2.357c1.303,0,2.357,1.056,2.357,2.357
			C8.935,46.307,7.881,47.362,6.578,47.362z M8.452,34.187l19.209-19.21l2.712,2.712L11.164,36.901L8.452,34.187z M17.191,42.926
			l-2.713-2.713L33.57,21.118l2.713,2.714L17.191,42.926z"/>
		<polygon style="fill:#333333;" points="16.831,0 4.338,23.013 24.389,3.594 		"/>
	</g>
</g>
<g id="&#x5716;&#x5C64;_1">
</g>
</svg>
