<?xml version="1.0" encoding="iso-8859-1"?>
<!-- Generator: Adobe Illustrator 17.0.0, SVG Export Plug-In . SVG Version: 6.00 Build 0)  -->
<!DOCTYPE svg PUBLIC "-//W3C//DTD SVG 1.1//EN" "http://www.w3.org/Graphics/SVG/1.1/DTD/svg11.dtd">
<svg version="1.1" xmlns="http://www.w3.org/2000/svg" xmlns:xlink="http://www.w3.org/1999/xlink" x="0px" y="0px" width="64px"
	 height="64px" viewBox="0 0 64 64" style="enable-background:new 0 0 64 64;" xml:space="preserve">
<g id="_x34__collections_go_to_today">
	<g>
		<path style="fill-rule:evenodd;clip-rule:evenodd;fill:#333333;" d="M4,60h56V8H4V60z M62,64H2c-1.109,0-2-0.89-2-2V6
			c0-1.109,0.891-2,2-2h60c1.109,0,2,0.891,2,2v56C64,63.11,63.109,64,62,64z"/>
		<rect x="14" style="fill-rule:evenodd;clip-rule:evenodd;fill:#333333;" width="8" height="12"/>
		<rect x="42" style="fill-rule:evenodd;clip-rule:evenodd;fill:#333333;" width="8" height="12"/>
		<rect x="22" y="20" style="fill-rule:evenodd;clip-rule:evenodd;fill:#333333;" width="8" height="8"/>
		<rect x="34" y="20" style="fill-rule:evenodd;clip-rule:evenodd;fill:#333333;" width="8" height="8"/>
		<rect x="46" y="20" style="fill-rule:evenodd;clip-rule:evenodd;fill:#333333;" width="8" height="8"/>
		<rect x="22" y="32" style="fill-rule:evenodd;clip-rule:evenodd;fill:#333333;" width="8" height="8"/>
		<rect x="10" y="32" style="fill-rule:evenodd;clip-rule:evenodd;fill:#333333;" width="8" height="8"/>
		<rect x="32" y="30" style="fill-rule:evenodd;clip-rule:evenodd;fill:#333333;" width="12" height="12"/>
		<rect x="46" y="32" style="fill-rule:evenodd;clip-rule:evenodd;fill:#333333;" width="8" height="8"/>
		<rect x="22" y="44" style="fill-rule:evenodd;clip-rule:evenodd;fill:#333333;" width="8" height="8"/>
		<rect x="10" y="44" style="fill-rule:evenodd;clip-rule:evenodd;fill:#333333;" width="8" height="8"/>
		<rect x="34" y="44" style="fill-rule:evenodd;clip-rule:evenodd;fill:#333333;" width="8" height="8"/>
	</g>
</g>
<g id="&#x5716;&#x5C64;_1">
</g>
</svg>
