<?xml version="1.0" encoding="iso-8859-1"?>
<!-- Generator: Adobe Illustrator 17.0.0, SVG Export Plug-In . SVG Version: 6.00 Build 0)  -->
<!DOCTYPE svg PUBLIC "-//W3C//DTD SVG 1.1//EN" "http://www.w3.org/Graphics/SVG/1.1/DTD/svg11.dtd">
<svg version="1.1" xmlns="http://www.w3.org/2000/svg" xmlns:xlink="http://www.w3.org/1999/xlink" x="0px" y="0px"
	 width="66.668px" height="36.629px" viewBox="0 0 66.668 36.629" style="enable-background:new 0 0 66.668 36.629;"
	 xml:space="preserve">
<g id="_x34__collections_cloud">
	<path style="fill-rule:evenodd;clip-rule:evenodd;fill:#333333;" d="M58.982,20.734c-0.517-6.998-6.348-12.519-13.476-12.519
		c-2.758,0-5.318,0.828-7.461,2.247C36.506,4.452,31.067,0,24.574,0c-7.687,0-13.921,6.234-13.921,13.922
		c0,0.566,0.045,1.121,0.109,1.674c-0.078-0.004-0.158-0.014-0.238-0.014C4.713,15.582,0,20.295,0,26.108
		c0,5.634,4.436,10.223,10.001,10.496v0.025h48.388v-0.033c0.107,0.004,0.209,0.033,0.316,0.033c4.4,0,7.963-3.567,7.963-7.963
		C66.668,24.362,63.252,20.881,58.982,20.734z"/>
</g>
<g id="&#x5716;&#x5C64;_1">
</g>
</svg>
