<?xml version="1.0" encoding="iso-8859-1"?>
<!-- Generator: Adobe Illustrator 17.0.0, SVG Export Plug-In . SVG Version: 6.00 Build 0)  -->
<!DOCTYPE svg PUBLIC "-//W3C//DTD SVG 1.1//EN" "http://www.w3.org/Graphics/SVG/1.1/DTD/svg11.dtd">
<svg version="1.1" xmlns="http://www.w3.org/2000/svg" xmlns:xlink="http://www.w3.org/1999/xlink" x="0px" y="0px"
	 width="65.039px" height="69.195px" viewBox="0 0 65.039 69.195" style="enable-background:new 0 0 65.039 69.195;"
	 xml:space="preserve">
<g id="_x34__collections_labels">
	<g>
		<path style="fill:#333333;" d="M37.512,4.462L0.06,41.607L0,69.195l27.584-0.064l37.455-37.153L37.512,4.462z M8.808,63.418
			c-1.743,0-3.154-1.412-3.154-3.157c0-1.741,1.411-3.155,3.154-3.155s3.157,1.414,3.157,3.155
			C11.965,62.006,10.551,63.418,8.808,63.418z M11.316,45.775l25.723-25.723l3.629,3.631L14.947,49.41L11.316,45.775z M23.02,57.478
			l-3.633-3.633l25.562-25.567l3.633,3.634L23.02,57.478z"/>
		<polygon style="fill:#333333;" points="22.535,0 5.808,30.812 32.654,4.812 		"/>
	</g>
</g>
<g id="&#x5716;&#x5C64;_1">
</g>
</svg>
