<?xml version="1.0" encoding="iso-8859-1"?>
<!-- Generator: Adobe Illustrator 17.0.0, SVG Export Plug-In . SVG Version: 6.00 Build 0)  -->
<!DOCTYPE svg PUBLIC "-//W3C//DTD SVG 1.1//EN" "http://www.w3.org/Graphics/SVG/1.1/DTD/svg11.dtd">
<svg version="1.1" xmlns="http://www.w3.org/2000/svg" xmlns:xlink="http://www.w3.org/1999/xlink" x="0px" y="0px"
	 width="72.008px" height="53.996px" viewBox="0 0 72.008 53.996" style="enable-background:new 0 0 72.008 53.996;"
	 xml:space="preserve">
<g id="_x35__content_unread">
	<g>
		<g>
			<path style="fill:#333333;" d="M46.21,29.057c0,5.686-4.564,10.295-10.193,10.295c-5.63,0-10.193-4.609-10.193-10.295
				c0-0.049,0.007-0.096,0.007-0.146L-0.004,15.938v38.061h72.008V15.938L46.203,28.91C46.203,28.959,46.21,29.008,46.21,29.057z
				 M36.001,35.99c3.316,0,6.096-2.316,6.816-5.411c0.119-0.511,0.186-1.038,0.186-1.585c0-3.856-3.142-6.995-7.003-6.995
				c-3.862,0-7.005,3.139-7.005,6.995c0,0.547,0.069,1.074,0.189,1.586C29.905,33.674,32.685,35.99,36.001,35.99z M-0.004,0.002
				v10.127l27.263,13.686c1.773-3.022,5.025-5.054,8.758-5.054c3.73,0,6.983,2.031,8.757,5.053l27.23-13.686V0.002H-0.004z"/>
		</g>
	</g>
</g>
<g id="&#x5716;&#x5C64;_1">
</g>
</svg>
