<?xml version="1.0" encoding="iso-8859-1"?>
<!-- Generator: Adobe Illustrator 17.0.0, SVG Export Plug-In . SVG Version: 6.00 Build 0)  -->
<!DOCTYPE svg PUBLIC "-//W3C//DTD SVG 1.1//EN" "http://www.w3.org/Graphics/SVG/1.1/DTD/svg11.dtd">
<svg version="1.1" xmlns="http://www.w3.org/2000/svg" xmlns:xlink="http://www.w3.org/1999/xlink" x="0px" y="0px" width="60.01px"
	 height="72.02px" viewBox="0 0 60.01 72.02" style="enable-background:new 0 0 60.01 72.02;" xml:space="preserve">
<g id="_x35__content_copy">
	<path style="fill-rule:evenodd;clip-rule:evenodd;fill:#333333;" d="M42.01,6H6v48.02h3v6H6H0V0h48.01v6v3h-6V6z M46.68,55.02H24
		v-2h22.68V55.02z M37.34,49.01H24v-2h13.34V49.01z M41.34,43.01H24v-2h17.34V43.01z M48.01,37.01H24v-2h24.01V37.01z M37.34,31.01
		H24v-2h13.34V31.01z M54.01,18.01H18v48.01h36.01V18.01z M12,72.02V12h48.01v60.02H12z"/>
</g>
<g id="&#x5716;&#x5C64;_1">
</g>
</svg>
