<?xml version="1.0" encoding="iso-8859-1"?>
<!-- Generator: Adobe Illustrator 17.0.0, SVG Export Plug-In . SVG Version: 6.00 Build 0)  -->
<!DOCTYPE svg PUBLIC "-//W3C//DTD SVG 1.1//EN" "http://www.w3.org/Graphics/SVG/1.1/DTD/svg11.dtd">
<svg version="1.1" xmlns="http://www.w3.org/2000/svg" xmlns:xlink="http://www.w3.org/1999/xlink" x="0px" y="0px"
	 width="78.074px" height="31.928px" viewBox="0 0 78.074 31.928" style="enable-background:new 0 0 78.074 31.928;"
	 xml:space="preserve">
<g id="_x35__content_attachment">
	<path style="fill:#333333;" d="M6.013,27.504L6.01,27.502c-3.391-3.068-5.493-7.141-5.927-11.47C-0.352,11.7,0.929,7.928,3.7,4.863
		C6.468,1.803,10.393-0.002,14.747,0l51.295,0.029c3.151-0.002,6.105,1.391,8.312,3.716c2.039,2.138,3.336,4.751,3.653,7.897
		c0.651,6.502-3.651,12.262-9.592,12.258l-43.053,0.008c-3.616-0.002-6.911-3.469-6.966-7.595c-0.04-3.931,2.093-7.345,5.538-7.346
		l35.214,0.021l0.034,4.919l-34.067-0.019c-0.739,0-1.991,0.633-2.054,2.421c-0.032,1.058,0.852,2.62,2.337,2.614l42.546,0.027
		c3.354-0.002,5.764-3.382,5.371-7.311c-0.206-2.044-1-3.58-2.234-4.873c-1.201-1.273-2.796-1.886-4.57-1.886L15.218,4.852
		c-3.102-0.005-5.897,1.137-7.868,3.315c-1.974,2.181-2.61,4.683-2.577,7.867c0.033,3.098,1.81,5.983,4.221,8.167l0,0
		c2.416,2.188,5.832,2.725,8.932,2.723l45.222,0.027l-0.015,4.977L18.397,31.9C14.041,31.899,9.399,30.568,6.013,27.504z"/>
</g>
<g id="&#x5716;&#x5C64;_1">
</g>
</svg>
