<?xml version="1.0" encoding="iso-8859-1"?>
<!-- Generator: Adobe Illustrator 17.0.0, SVG Export Plug-In . SVG Version: 6.00 Build 0)  -->
<!DOCTYPE svg PUBLIC "-//W3C//DTD SVG 1.1//EN" "http://www.w3.org/Graphics/SVG/1.1/DTD/svg11.dtd">
<svg version="1.1" xmlns="http://www.w3.org/2000/svg" xmlns:xlink="http://www.w3.org/1999/xlink" x="0px" y="0px"
	 width="65.754px" height="66.441px" viewBox="0 0 65.754 66.441" style="enable-background:new 0 0 65.754 66.441;"
	 xml:space="preserve">
<g id="_x35__content_save">
	<path style="fill:#333333;" d="M40.006,20.115H26.4V2.627h13.606V20.115z M49.721,43.196v-3.921H14.737v3.921H49.721L49.721,43.196
		z M49.721,54.198v-3.923H14.737v3.923H49.721L49.721,54.198z M65.754,13.435v51.047c0,1.082-0.877,1.959-1.959,1.959H1.961
		C0.876,66.441,0,65.564,0,64.482V1.961C0,0.878,0.876,0,1.961,0h8.08v23.756h35.631V0h6.652L65.754,13.435z M55.713,30.812H10.041
		v31.093h45.672V30.812z"/>
</g>
<g id="&#x5716;&#x5C64;_1">
</g>
</svg>
