<?xml version="1.0" encoding="iso-8859-1"?>
<!-- Generator: Adobe Illustrator 17.0.0, SVG Export Plug-In . SVG Version: 6.00 Build 0)  -->
<!DOCTYPE svg PUBLIC "-//W3C//DTD SVG 1.1//EN" "http://www.w3.org/Graphics/SVG/1.1/DTD/svg11.dtd">
<svg version="1.1" xmlns="http://www.w3.org/2000/svg" xmlns:xlink="http://www.w3.org/1999/xlink" x="0px" y="0px"
	 width="72.008px" height="70.316px" viewBox="0 0 72.008 70.316" style="enable-background:new 0 0 72.008 70.316;"
	 xml:space="preserve">
<g id="_x35__content_read">
	<g>
		<g>
			<path style="fill:#333333;" d="M35.937-0.158l-35.94,17.865v10.367h6.023v-6.957h59.998v6.957h5.987V17.707L35.937-0.158z
				 M35.938,55.121c-5.473,0-9.925-4.324-10.148-9.742L-0.004,32.555v37.604h72.008V32.555L46.088,45.377
				C45.862,50.797,41.412,55.121,35.938,55.121z M36,52.143c3.073,0,5.546-2.246,6.476-4.969c0.238-0.699,0.528-1.246,0.528-2.035
				c0-3.863-3.142-7.006-7.004-7.006c-3.863,0-7.004,3.143-7.004,7.006c0,0.789,0.168,1.338,0.403,2.037
				C30.331,49.896,32.927,52.143,36,52.143z"/>
		</g>
	</g>
</g>
<g id="&#x5716;&#x5C64;_1">
</g>
</svg>
