<?xml version="1.0" encoding="iso-8859-1"?>
<!-- Generator: Adobe Illustrator 17.0.0, SVG Export Plug-In . SVG Version: 6.00 Build 0)  -->
<!DOCTYPE svg PUBLIC "-//W3C//DTD SVG 1.1//EN" "http://www.w3.org/Graphics/SVG/1.1/DTD/svg11.dtd">
<svg version="1.1" xmlns="http://www.w3.org/2000/svg" xmlns:xlink="http://www.w3.org/1999/xlink" x="0px" y="0px"
	 width="75.041px" height="75.155px" viewBox="0 0 75.041 75.155" style="enable-background:new 0 0 75.041 75.155;"
	 xml:space="preserve">
<g id="_x35__content_edit">
	<g>
		<path style="fill:#333333;" d="M36.283,20.812L12.769,44.56c0,0,2.028,1.913,7.24,1.683c1.114,2.374,2.169,5.169,8.257,8.029
			c-0.246,4.967,2.145,7.755,2.145,7.755l23.531-23.726c-0.286-3.237-2.708-7.267-6.549-11.065
			C42.14,22.031,37.744,21.017,36.283,20.812z"/>
		<path style="fill:#333333;" d="M70.302,3.829c-6.904-5.659-11.676-4-14.108-1.658c-0.845,0.817-3.516,2.968-5.469,4.533
			c2.199,0.141,6.617,1.09,11.468,5.891c4.825,4.777,5.746,8.861,5.799,11.141c1.641-2.121,4.216-5.442,4.614-5.845
			C75.264,15.185,77.206,9.488,70.302,3.829z"/>
		<path style="fill:#333333;" d="M16.566,49.075c-4.659,0.012-5.748-1.031-5.748-1.031L0,75.155l27.005-11.218
			c0,0-2.144-4.243-2.089-6.516C23.029,56.822,18.082,53.815,16.566,49.075z"/>
		<path style="fill:#333333;" d="M47.689,9.312l-2.681,2.638c0,0,5.119,0.833,11.186,6.846c3.807,3.78,5.862,7.778,6.229,10.571
			l2.56-2.553c0,0,0.891-4.625-5.689-11.201C52.829,9.148,47.689,9.312,47.689,9.312z"/>
		<path style="fill:#333333;" d="M42.632,15.238l-2.562,2.526c0,0,4.903,0.797,10.706,6.559c3.646,3.614,5.615,7.44,5.969,10.116
			l2.447-2.45c0,0,0.851-4.425-5.447-10.722C47.561,15.079,42.632,15.238,42.632,15.238z"/>
	</g>
</g>
<g id="&#x5716;&#x5C64;_1">
</g>
</svg>
