<?xml version="1.0" encoding="iso-8859-1"?>
<!-- Generator: Adobe Illustrator 17.0.0, SVG Export Plug-In . SVG Version: 6.00 Build 0)  -->
<!DOCTYPE svg PUBLIC "-//W3C//DTD SVG 1.1//EN" "http://www.w3.org/Graphics/SVG/1.1/DTD/svg11.dtd">
<svg version="1.1" xmlns="http://www.w3.org/2000/svg" xmlns:xlink="http://www.w3.org/1999/xlink" x="0px" y="0px" width="72px"
	 height="72px" viewBox="0 0 72 72" style="enable-background:new 0 0 72 72;" xml:space="preserve">
<g id="_x35__content_select_all">
	<path style="fill-rule:evenodd;clip-rule:evenodd;fill:#333333;" d="M56.71,72h-3.771v-4h3.771V72z M49.18,72h-3.77v-4h3.77V72z
		 M41.65,72h-3.77v-4h3.77V72z M26.59,72h-3.77v-4h3.77V72z M19.06,72h-3.77v-4h3.77V72z M33,57H15V39h18V57z M0,0h4v4H0V0z M0,7.76
		h4v3.77H0V7.76z M0,15.29h4v3.77H0V15.29z M0,22.82h4v3.77H0V22.82z M0,30.35h4v3.77H0V30.35z M0,37.88h4v3.77H0V37.88z M0,45.41h4
		v3.77H0V45.41z M0,52.939h4v3.771H0V52.939z M0,60.471h4v3.769H0V60.471z M0,68h4v4H0V68z M7.76,0h3.769v4H7.76V0z M7.76,68h3.769
		v4H7.76V68z M33,33H15V15h18V33z M15.29,0h3.77v4h-3.77V0z M22.82,0h3.77v4h-3.77V0z M30.35,0h3.77v4h-3.77V0z M30.35,68h3.77v4
		h-3.77V68z M37.88,0h3.77v4h-3.77V0z M45.41,0h3.77v4h-3.77V0z M52.939,0h3.771v4h-3.771V0z M39,15h18v18H39V15z M39,39h18v18H39
		V39z M60.471,0h3.769v4h-3.769V0z M60.471,68h3.769v4h-3.769V68z M68,0h4v4h-4V0z M68,7.76h4v3.77h-4V7.76z M68,15.29h4v3.77h-4
		V15.29z M68,22.82h4v3.77h-4V22.82z M68,30.35h4v3.77h-4V30.35z M68,37.88h4v3.77h-4V37.88z M68,45.41h4v3.77h-4V45.41z M68,52.939
		h4v3.771h-4V52.939z M68,60.471h4v3.769h-4V60.471z M68,72v-4h4v4H68z"/>
</g>
<g id="&#x5716;&#x5C64;_1">
</g>
</svg>
