<?xml version="1.0" encoding="iso-8859-1"?>
<!-- Generator: Adobe Illustrator 17.0.0, SVG Export Plug-In . SVG Version: 6.00 Build 0)  -->
<!DOCTYPE svg PUBLIC "-//W3C//DTD SVG 1.1//EN" "http://www.w3.org/Graphics/SVG/1.1/DTD/svg11.dtd">
<svg version="1.1" xmlns="http://www.w3.org/2000/svg" xmlns:xlink="http://www.w3.org/1999/xlink" x="0px" y="0px"
	 width="72.039px" height="72px" viewBox="0 0 72.039 72" style="enable-background:new 0 0 72.039 72;" xml:space="preserve">
<g id="_x35__content_cut">
	<g>
		<path style="fill:#333333;" d="M66.779,49.816c0.781,0.569,1.25,1.489,1.25,2.459c0,0.65-0.199,1.271-0.59,1.801
			c-0.48,0.66-1.189,1.09-2,1.209c-0.799,0.131-1.609-0.069-2.27-0.549c-0.779-0.57-1.24-1.5-1.24-2.471
			c0-0.65,0.199-1.269,0.59-1.8C63.51,49.115,65.42,48.816,66.779,49.816z M45.029,36.256c0-1.32,1.07-2.391,2.391-2.391
			c1.311,0,2.379,1.07,2.379,2.391c0,1.31-1.068,2.38-2.379,2.38C46.1,38.636,45.029,37.566,45.029,36.256z M65.439,17.216
			c0.811,0.13,1.52,0.56,2,1.21c0.391,0.529,0.59,1.15,0.59,1.8c0,0.97-0.469,1.9-1.25,2.47c-0.66,0.481-1.459,0.681-2.27,0.551
			c-0.801-0.12-1.51-0.551-1.99-1.211c-0.391-0.529-0.59-1.149-0.59-1.799c0-0.971,0.461-1.891,1.24-2.461
			C63.83,17.285,64.641,17.096,65.439,17.216z M60.799,14.535c-1.059,0.771-1.959,1.98-2.389,2.83
			c-0.221,0.441-0.52,0.971-0.9,1.631c-0.33,0.59-0.73,1.289-1.199,2.149c-2.451,4.5-4.941,7.431-4.961,7.45
			c-0.02,0.02-1.391,1.59-2.91,2.95c-8.5-3.65-22.42-9.591-23.76-9.931c-2-0.5-3.91,0.91-3.99,0.971l-0.879,0.66l0.94,0.57
			l20.49,12.44l-20.49,12.43l-0.94,0.57l0.879,0.66c0.08,0.06,1.99,1.47,3.99,0.97c1.33-0.33,15.26-6.28,23.76-9.931
			c1.52,1.371,2.891,2.94,2.9,2.951c0.029,0.029,2.519,2.949,4.971,7.459c0.469,0.86,0.869,1.561,1.209,2.15
			c0.371,0.66,0.67,1.18,0.891,1.62c0.43,0.851,1.33,2.06,2.389,2.84c3.141,2.3,7.58,1.62,9.881-1.521
			c0.891-1.219,1.359-2.649,1.359-4.159c0-2.229-1.07-4.36-2.859-5.7c-0.77-0.57-1.65-0.98-2.48-1.17
			c-0.67-0.24-1.18-0.32-1.719-0.41c-0.801-0.14-1.701-0.29-3.521-1.019c-3.539-1.42-6.5-4.051-6.549-4.101
			c-0.861-0.72-1.701-1.979-2.441-3.64c0.74-1.67,1.58-2.93,2.461-3.67c0.029-0.02,2.98-2.65,6.529-4.07
			c1.82-0.73,2.721-0.89,3.521-1.02c0.539-0.09,1.049-0.18,1.648-0.391c0.9-0.22,1.781-0.63,2.57-1.199
			c1.781-1.34,2.84-3.461,2.84-5.691c0-1.511-0.469-2.95-1.359-4.16C68.369,12.916,63.939,12.226,60.799,14.535z"/>
		<polygon style="fill:#333333;" points="48,66 6,66 6,6 48,6 48,18 54,18 54,0 0,0 0,72 48,72 54,72 54,54 48,54 		"/>
	</g>
</g>
<g id="&#x5716;&#x5C64;_1">
</g>
</svg>
