<?xml version="1.0" encoding="iso-8859-1"?>
<!-- Generator: Adobe Illustrator 17.0.0, SVG Export Plug-In . SVG Version: 6.00 Build 0)  -->
<!DOCTYPE svg PUBLIC "-//W3C//DTD SVG 1.1//EN" "http://www.w3.org/Graphics/SVG/1.1/DTD/svg11.dtd">
<svg version="1.1" xmlns="http://www.w3.org/2000/svg" xmlns:xlink="http://www.w3.org/1999/xlink" x="0px" y="0px"
	 width="47.604px" height="68.172px" viewBox="0 0 47.604 68.172" style="enable-background:new 0 0 47.604 68.172;"
	 xml:space="preserve">
<g id="_x35__content_discard">
	<g>
		<path style="fill:#333333;" d="M44.719,27.928c-0.046-0.281-0.218-0.557-0.476-0.82c-2.079,2.112-10.444,2.462-20.445,2.462
			S5.439,29.22,3.352,27.107c-0.257,0.264-0.417,0.539-0.476,0.82h-0.02l0.006,0.152c0,0.018-0.006,0.035-0.006,0.053
			c0,0.041,0.012,0.078,0.018,0.117l1.628,33.354h0.004c0.145,2.615,3.139,6.568,19.292,6.568c16.155,0,19.151-3.953,19.292-6.568
			h0.012l1.63-33.354c0.003-0.039,0.016-0.076,0.016-0.117c0-0.018-0.013-0.036-0.013-0.053l0.013-0.152H44.719z"/>
		<path style="fill:#333333;" d="M33.752,10.472V2.597C33.752,1.174,32.588,0,31.157,0H15.571c-1.421,0-2.591,1.174-2.591,2.597
			v7.965C5.275,11.435,0,13.205,0,15.256v3.893c0,0.799,0.809,1.559,2.26,2.244c3.801,1.786,12.018,3.024,21.538,3.024
			c9.528,0,17.741-1.238,21.547-3.024c1.442-0.685,2.259-1.445,2.259-2.244v-3.893C47.604,13.133,41.922,11.307,33.752,10.472z
			 M17.963,10.145l-0.657,0.041V6.924c0-1.426,0.199-2.594,0.435-2.594c0.242,0,1.604,0,3.031,0h5.193c1.422,0,2.789,0,3.027,0
			c0.239,0,0.435,1.168,0.435,2.594v3.209c-1.806-0.094-3.685-0.152-5.629-0.152C21.783,9.981,19.826,10.04,17.963,10.145z"/>
	</g>
</g>
<g id="&#x5716;&#x5C64;_1">
</g>
</svg>
