<?xml version="1.0" encoding="iso-8859-1"?>
<!-- Generator: Adobe Illustrator 17.0.0, SVG Export Plug-In . SVG Version: 6.00 Build 0)  -->
<!DOCTYPE svg PUBLIC "-//W3C//DTD SVG 1.1//EN" "http://www.w3.org/Graphics/SVG/1.1/DTD/svg11.dtd">
<svg version="1.1" xmlns="http://www.w3.org/2000/svg" xmlns:xlink="http://www.w3.org/1999/xlink" x="0px" y="0px"
	 width="71.211px" height="73.199px" viewBox="0 0 71.211 73.199" style="enable-background:new 0 0 71.211 73.199;"
	 xml:space="preserve">
<g id="_x35__content_new_attachment">
	<g>
		<path style="fill:#333333;" d="M14.595,60.154h-0.004c-3.9,0-7.562-1.518-10.315-4.273C1.523,53.123,0,49.461,0,45.56
			c0-3.896,1.516-7.557,4.272-10.314L36.739,2.781c1.993-1.996,4.589-2.979,7.315-2.748c2.514,0.205,5.004,1.424,7.005,3.424
			c4.134,4.139,4.442,10.564,0.681,14.326l-27.248,27.25c-2.289,2.288-5.844,2.058-8.469-0.555c-2.486-2.49-2.735-6.291-0.559-8.473
			l22.289-22.287l2.971,2.969L18.438,38.974c-0.467,0.468-0.329,1.648,0.556,2.535c0.253,0.254,1.591,1.497,2.526,0.553
			l27.252-27.248c2.121-2.125,1.816-5.886-0.681-8.389c-1.3-1.299-2.855-2.082-4.376-2.205c-1.488-0.133-2.885,0.406-4.006,1.53
			L7.241,38.215c-1.965,1.963-3.042,4.574-3.042,7.346c0,2.777,1.082,5.386,3.047,7.35c1.961,1.961,4.568,3.043,7.345,3.043l0,0
			c2.78,0,5.39-1.078,7.349-3.043l28.103-28.098l2.969,2.969l-28.104,28.1C22.154,58.637,18.49,60.154,14.595,60.154z"/>
		<g>
			<g>
				<polygon style="fill:#333333;" points="58.106,55.74 58.106,42.439 53.945,42.439 53.945,55.74 40.843,55.74 40.843,59.902 
					53.945,59.902 53.945,73.199 58.106,73.199 58.106,59.902 71.211,59.902 71.211,55.74 				"/>
			</g>
		</g>
	</g>
</g>
<g id="&#x5716;&#x5C64;_1">
</g>
</svg>
