<?xml version="1.0" encoding="iso-8859-1"?>
<!-- Generator: Adobe Illustrator 17.0.0, SVG Export Plug-In . SVG Version: 6.00 Build 0)  -->
<!DOCTYPE svg PUBLIC "-//W3C//DTD SVG 1.1//EN" "http://www.w3.org/Graphics/SVG/1.1/DTD/svg11.dtd">
<svg version="1.1" xmlns="http://www.w3.org/2000/svg" xmlns:xlink="http://www.w3.org/1999/xlink" x="0px" y="0px" width="60.01px"
	 height="78.02px" viewBox="0 0 60.01 78.02" style="enable-background:new 0 0 60.01 78.02;" xml:space="preserve">
<g id="_x35__content_paste">
	<path style="fill-rule:evenodd;clip-rule:evenodd;fill:#333333;" d="M46.01,58.01H12v-2h34.01V58.01z M32,52.01H12v-2h20V52.01z
		 M38.01,46.01H12v-2h26.01V46.01z M48.01,40.01H12v-2h36.01V40.01z M32,34.01H12v-2h20V34.01z M54.01,12h-14l1.16,3.489
		c5.52,1.211,6.84,4.56,6.84,8.511H12c0-3.761,1.56-6.97,6.77-8.309L20,12H6v60.02h48.01V12z M30,3c-1.65,0-3,1.34-3,3
		c0,1.649,1.35,3,3,3c1.66,0,3-1.351,3-3C33,4.34,31.66,3,30,3z M0,78.02V6h24c0-3.32,2.69-6,6-6c3.32,0,6.01,2.68,6.01,6h24v72.02
		H0z"/>
</g>
<g id="&#x5716;&#x5C64;_1">
</g>
</svg>
