<?xml version="1.0" encoding="iso-8859-1"?>
<!-- Generator: Adobe Illustrator 17.0.0, SVG Export Plug-In . SVG Version: 6.00 Build 0)  -->
<!DOCTYPE svg PUBLIC "-//W3C//DTD SVG 1.1//EN" "http://www.w3.org/Graphics/SVG/1.1/DTD/svg11.dtd">
<svg version="1.1" xmlns="http://www.w3.org/2000/svg" xmlns:xlink="http://www.w3.org/1999/xlink" x="0px" y="0px"
	 width="72.066px" height="71.905px" viewBox="0 0 72.066 71.905" style="enable-background:new 0 0 72.066 71.905;"
	 xml:space="preserve">
<g id="_x31_2_hardware_gamepad">
	<g>
		<g>
			<path style="fill:#333333;" d="M33.754,49.857h4.494c2.608,0,4.73-2.122,4.73-4.731l0.002-0.062l2.836-40.316
				c-0.016-2.595-2.133-4.7-4.73-4.7h-10.17c-2.6,0-4.715,2.105-4.732,4.7l2.838,40.378C29.021,47.735,31.144,49.857,33.754,49.857z
				 M69.838,57.376l-5.604-7.664c-0.98-1.295-2.284-2.872-4.195-2.872H46.711l-0.014,0.208c-0.014,3.511-4.936,6.863-8.449,6.863
				h-4.494c-3.515,0-9.125-3.352-9.137-6.863l-0.014-0.208H11.962c-1.911,0-3.215,1.577-4.194,2.872l-5.604,7.664
				c-1.014,1.362-2.197,2.656-2.197,4.477v7.254c0,3.137,2.542,2.839,5.677,2.839h60.713c3.136,0,5.677,0.298,5.677-2.839v-7.254
				C72.033,60.032,70.852,58.738,69.838,57.376z M56.514,59.704c-4.503,0-8.153-0.828-8.153-1.849s3.65-1.848,8.153-1.848
				c4.504,0,8.153,0.827,8.153,1.848S61.018,59.704,56.514,59.704z"/>
		</g>
	</g>
</g>
<g id="&#x5716;&#x5C64;_1">
</g>
</svg>
