<?xml version="1.0" encoding="iso-8859-1"?>
<!-- Generator: Adobe Illustrator 17.0.0, SVG Export Plug-In . SVG Version: 6.00 Build 0)  -->
<!DOCTYPE svg PUBLIC "-//W3C//DTD SVG 1.1//EN" "http://www.w3.org/Graphics/SVG/1.1/DTD/svg11.dtd">
<svg version="1.1" xmlns="http://www.w3.org/2000/svg" xmlns:xlink="http://www.w3.org/1999/xlink" x="0px" y="0px"
	 width="77.856px" height="92.994px" viewBox="0 0 77.856 92.994" style="enable-background:new 0 0 77.856 92.994;"
	 xml:space="preserve">
<g id="_x31_2_hardware_headset">
	<g>
		<g>
			<path style="fill:#333333;" d="M67.148,75.8V43.23c0-0.985-12.957-0.985-12.957,0V75.8C54.191,76.784,67.148,76.784,67.148,75.8z
				 M76.822,51.011V36.96c0-21.705-15.895-37.457-37.797-37.457c-21.904,0-37.803,15.752-37.803,37.457v13.978
				c-0.916,2.25-1.151,5.194-1.151,8.433c0,7.047,1.078,12.761,7.994,12.761v-25.52c-0.382,0-0.735,0.022-1.08,0.056V36.96
				c0-18.661,13.175-31.693,32.04-31.693c18.859,0,32.033,13.032,32.033,31.693v9.674c-0.357-0.037-0.729-0.06-1.123-0.06v25.52
				c0.123,0,0.229-0.016,0.349-0.02v16.488H51.918v-1.632H36.176v5.547h5.248v0.02h30.828c1.086,0,1.967-0.881,1.967-1.967V71.007
				c3.111-1.979,3.709-6.457,3.709-11.672C77.928,56.15,77.701,53.245,76.822,51.011z M10.849,42.905v32.57
				c0,0.984,12.96,0.984,12.96,0v-32.57C23.809,41.921,10.849,41.921,10.849,42.905z"/>
		</g>
	</g>
</g>
<g id="&#x5716;&#x5C64;_1">
</g>
</svg>
