<?xml version="1.0" encoding="iso-8859-1"?>
<!-- Generator: Adobe Illustrator 17.0.0, SVG Export Plug-In . SVG Version: 6.00 Build 0)  -->
<!DOCTYPE svg PUBLIC "-//W3C//DTD SVG 1.1//EN" "http://www.w3.org/Graphics/SVG/1.1/DTD/svg11.dtd">
<svg version="1.1" xmlns="http://www.w3.org/2000/svg" xmlns:xlink="http://www.w3.org/1999/xlink" x="0px" y="0px"
	 width="77.858px" height="77.035px" viewBox="0 0 77.858 77.035" style="enable-background:new 0 0 77.858 77.035;"
	 xml:space="preserve">
<g id="_x31_2_hardware_headphones">
	<g>
		<g>
			<path style="fill:#333333;" d="M54.191,44.209V76.78c0,0.983,12.959,0.983,12.959,0V44.209
				C67.15,43.226,54.191,43.226,54.191,44.209z M76.825,51.99V37.939c0-21.704-15.898-37.457-37.801-37.457
				c-21.905,0-37.802,15.753-37.802,37.457v13.978c-0.916,2.25-1.152,5.195-1.152,8.433c0,7.048,1.077,12.761,7.993,12.761v-25.52
				c-0.378,0-0.734,0.023-1.079,0.057v-9.708c0-18.661,13.175-31.693,32.039-31.693c18.861,0,32.035,13.032,32.035,31.693v9.675
				c-0.357-0.037-0.729-0.061-1.122-0.061v25.519c6.915,0,7.991-5.713,7.991-12.758C77.929,57.13,77.702,54.225,76.825,51.99z
				 M10.851,43.885v32.571c0,0.983,12.959,0.983,12.959,0V43.885C23.81,42.901,10.851,42.901,10.851,43.885z"/>
		</g>
	</g>
</g>
<g id="&#x5716;&#x5C64;_1">
</g>
</svg>
