<?xml version="1.0" encoding="iso-8859-1"?>
<!-- Generator: Adobe Illustrator 17.0.0, SVG Export Plug-In . SVG Version: 6.00 Build 0)  -->
<!DOCTYPE svg PUBLIC "-//W3C//DTD SVG 1.1//EN" "http://www.w3.org/Graphics/SVG/1.1/DTD/svg11.dtd">
<svg version="1.1" xmlns="http://www.w3.org/2000/svg" xmlns:xlink="http://www.w3.org/1999/xlink" x="0px" y="0px"
	 width="92.508px" height="48.328px" viewBox="0 0 92.508 48.328" style="enable-background:new 0 0 92.508 48.328;"
	 xml:space="preserve">
<g id="_x31_2_hardware_keyboard">
	<g>
		<g>
			<path style="fill:#333333;" d="M7.738-0.164h-7.992v7.988h7.992V-0.164z M23.582-0.164H13.018v7.859h10.564V-0.164z
				 M39.427-0.164H28.865v7.859h10.562V-0.164z M55.146-0.164H44.584v7.859h10.562V-0.164z M71.124-0.164H60.558v7.859h10.566
				V-0.164z M76.535-0.164v7.859h15.719v-7.859H76.535z M12.891,13.042H-0.254v7.988h13.145V13.042z M18.301,20.902h10.564v-7.86
				H18.301V20.902z M44.838,13.042H34.275v7.86h10.563V13.042z M49.996,20.902h10.561v-7.86H49.996V20.902z M65.842,20.902h10.565
				v-7.86H65.842V20.902z M81.688,20.902h10.566v-7.86H81.688V20.902z M18.43,26.053H-0.254v7.986H18.43V26.053z M23.326,33.91
				h10.565v-7.857H23.326V33.91z M49.994,26.053H39.427v7.857h10.567V26.053z M55.148,33.91h10.564v-7.857H55.148V33.91z
				 M71.252,33.91h21.002v-7.857H71.252V33.91z M18.427,48.164h52.571v-7.861H18.427V48.164z"/>
		</g>
	</g>
</g>
<g id="&#x5716;&#x5C64;_1">
</g>
</svg>
