<?xml version="1.0" encoding="iso-8859-1"?>
<!-- Generator: Adobe Illustrator 17.0.0, SVG Export Plug-In . SVG Version: 6.00 Build 0)  -->
<!DOCTYPE svg PUBLIC "-//W3C//DTD SVG 1.1//EN" "http://www.w3.org/Graphics/SVG/1.1/DTD/svg11.dtd">
<svg version="1.1" xmlns="http://www.w3.org/2000/svg" xmlns:xlink="http://www.w3.org/1999/xlink" x="0px" y="0px"
	 width="33.127px" height="64px" viewBox="0 0 33.127 64" style="enable-background:new 0 0 33.127 64;" xml:space="preserve">
<g id="_x31_2_hardware_phone">
	<path style="fill:#333333;" d="M33.022,8.308c0,0-0.211-4.193-1.328-5.488c-1.135-1.309-2.576-1.615-3.629-1.837
		c-1.233-0.261-3.497-0.618-7.289-0.837C19.045,0.045,17.688,0,16.37,0c-1.162,0-2.213,0.033-3.55,0.075l-0.642,0.021
		C9.617,0.174,7.579,0.373,6.709,0.458c-0.188,0.018-0.317,0.03-0.384,0.035C6.235,0.501,5.966,0.518,5.86,0.717
		C5.856,0.731,5.847,0.743,5.844,0.755C5.446,0.823,4.43,1.007,3.625,1.257C2.284,1.675,1.548,2.212,0.906,3.244
		C0.32,4.187,0.205,5.773,0.162,6.37C0.155,6.432,0.151,6.52,0.151,6.52L0,52.061l0.218,4.111c0,0,0.839,4.365,1.68,5.312
		c0.763,0.862,1.768,1.376,3.26,1.663c0.16,0.03,0.311,0.061,0.457,0.09c1.124,0.224,2.012,0.4,5.104,0.563
		c0.311,0.017,0.613,0.031,0.912,0.049c1.403,0.077,2.732,0.15,4.508,0.15c1.261,0,2.653-0.036,4.262-0.111
		c5.623-0.27,8.412-0.591,10.068-1.793c1.63-1.183,2.001-2.929,2.249-4.084l0.011-0.049c0.287-1.347,0.399-5.329,0.399-5.329
		L33.022,8.308z M16.538,60.745c-0.968,0-1.751-0.784-1.751-1.751c0-0.967,0.783-1.75,1.751-1.75s1.752,0.783,1.752,1.75
		C18.29,59.961,17.506,60.745,16.538,60.745z M30.241,51.378H2.757V7.544h27.484V51.378z"/>
</g>
<g id="&#x5716;&#x5C64;_1">
</g>
</svg>
