<?xml version="1.0" encoding="iso-8859-1"?>
<!-- Generator: Adobe Illustrator 17.0.0, SVG Export Plug-In . SVG Version: 6.00 Build 0)  -->
<!DOCTYPE svg PUBLIC "-//W3C//DTD SVG 1.1//EN" "http://www.w3.org/Graphics/SVG/1.1/DTD/svg11.dtd">
<svg version="1.1" xmlns="http://www.w3.org/2000/svg" xmlns:xlink="http://www.w3.org/1999/xlink" x="0px" y="0px"
	 width="63.664px" height="65.39px" viewBox="0 0 63.664 65.39" style="enable-background:new 0 0 63.664 65.39;"
	 xml:space="preserve">
<g id="_x38__images_rotate_left">
	<g>
		<path style="fill:#333333;" d="M37.817,32.953c0-3.65-2.962-6.613-6.62-6.613c-3.652,0-6.614,2.963-6.614,6.613
			c0,3.654,2.962,6.616,6.614,6.616C34.855,39.569,37.817,36.607,37.817,32.953z"/>
		<path style="fill:#333333;" d="M63.575,30.286c-0.312-4.239-1.42-8.308-3.285-12.101c-1.943-3.927-4.621-7.379-7.968-10.263
			c-3.335-2.881-7.149-5.024-11.325-6.371C37,0.26,32.724-0.178,28.586,0.063c-4.271,0.315-8.341,1.425-12.127,3.308
			c-3.29,1.619-6.297,3.914-8.876,6.544L7.545,9.889L1.542,4.781L0,25.883l20.591-4.88l-5.941-5.06l-0.039-0.025
			c1.677-1.59,3.758-3.141,5.841-4.168c2.667-1.319,5.636-2.136,8.597-2.354c3.135-0.166,6.148,0.164,8.936,1.059
			c2.969,0.957,5.685,2.488,8.073,4.55c2.385,2.059,4.299,4.521,5.68,7.324c1.336,2.698,2.133,5.594,2.355,8.612
			c0.045,0.599,0.066,1.18,0.066,1.759c0,2.447-0.379,4.859-1.119,7.158c-0.963,2.968-2.488,5.685-4.549,8.074
			c-2.071,2.395-4.531,4.312-7.327,5.688c-2.695,1.329-5.607,2.127-8.657,2.353c-0.564,0.043-1.143,0.061-1.732,0.065
			c-2.416,0-4.828-0.378-7.144-1.126c-2.968-0.961-5.686-2.491-8.079-4.547c-2.389-2.064-4.295-4.526-5.68-7.322l-8.228,4.142
			C3.58,51.117,6.259,54.566,9.6,57.451c3.352,2.884,7.159,5.025,11.33,6.365c3.219,1.043,6.582,1.574,9.989,1.574h0.156
			c0.763,0,1.531-0.031,2.294-0.089c4.226-0.312,8.296-1.423,12.094-3.296c3.931-1.946,7.388-4.623,10.267-7.963
			c2.879-3.34,5.023-7.145,6.363-11.318c1.042-3.24,1.571-6.614,1.571-10.025C63.664,31.893,63.636,31.094,63.575,30.286z"/>
	</g>
</g>
<g id="&#x5716;&#x5C64;_1">
</g>
</svg>
