<?xml version="1.0" encoding="iso-8859-1"?>
<!-- Generator: Adobe Illustrator 17.0.0, SVG Export Plug-In . SVG Version: 6.00 Build 0)  -->
<!DOCTYPE svg PUBLIC "-//W3C//DTD SVG 1.1//EN" "http://www.w3.org/Graphics/SVG/1.1/DTD/svg11.dtd">
<svg version="1.1" xmlns="http://www.w3.org/2000/svg" xmlns:xlink="http://www.w3.org/1999/xlink" x="0px" y="0px"
	 width="39.584px" height="66.684px" viewBox="0 0 39.584 66.684" style="enable-background:new 0 0 39.584 66.684;"
	 xml:space="preserve">
<g id="_x37__location_place">
	<path style="fill-rule:evenodd;clip-rule:evenodd;fill:#333333;" d="M19.793,26.654c-4.168,0-7.545-3.251-7.545-7.273
		c0-4.021,3.377-7.273,7.545-7.273c4.167,0,7.542,3.252,7.542,7.273C27.336,23.403,23.96,26.654,19.793,26.654z M37.131,9.878
		C34.797,5.815,31.086,2.69,26.17,1.042c-0.854-0.291-1.729-0.521-2.647-0.688c-0.958-0.168-2-0.291-3.083-0.354h-0.646h-0.646
		c-1.084,0.064-2.126,0.186-3.084,0.354c-0.918,0.166-1.793,0.396-2.648,0.688C8.518,2.69,4.789,5.815,2.455,9.878
		C0.85,12.67-0.211,16.149,0.036,20.403c0.107,1.957,0.628,3.707,1.23,5.291c0.627,1.562,1.355,2.979,2.21,4.334
		c3.252,5.296,7.668,10.005,10.169,16.069c1.271,3.082,2.397,6.293,3.356,9.709c0.935,3.375,1.791,6.961,2.146,10.877h0.646h0.646
		c0.354-3.916,1.208-7.502,2.144-10.877c0.96-3.416,2.084-6.627,3.356-9.709c2.501-6.064,6.917-10.774,10.169-16.069
		c0.855-1.354,1.584-2.771,2.209-4.334c0.604-1.584,1.125-3.334,1.229-5.291C39.797,16.149,38.734,12.67,37.131,9.878z"/>
</g>
<g id="&#x5716;&#x5C64;_1">
</g>
</svg>
