<?xml version="1.0" encoding="iso-8859-1"?>
<!-- Generator: Adobe Illustrator 17.0.0, SVG Export Plug-In . SVG Version: 6.00 Build 0)  -->
<!DOCTYPE svg PUBLIC "-//W3C//DTD SVG 1.1//EN" "http://www.w3.org/Graphics/SVG/1.1/DTD/svg11.dtd">
<svg version="1.1" xmlns="http://www.w3.org/2000/svg" xmlns:xlink="http://www.w3.org/1999/xlink" x="0px" y="0px"
	 width="59.389px" height="59.395px" viewBox="0 0 59.389 59.395" style="enable-background:new 0 0 59.389 59.395;"
	 xml:space="preserve">
<g id="_x37__location_directions">
	<path style="fill:#333333;" d="M58.901,28.507L30.883,0.495c-0.655-0.656-1.722-0.664-2.376,0L0.491,28.507
		c-0.655,0.656-0.655,1.717,0,2.378l28.016,28.016c0.326,0.33,0.757,0.494,1.183,0.494c0.433,0,0.862-0.164,1.188-0.494l2.394-2.387
		l25.63-25.629c0.314-0.318,0.488-0.74,0.488-1.187C59.389,29.249,59.215,28.823,58.901,28.507z M34.307,34.217V29.21h-7.319v12.958
		h-5.97V23.544h0.012v-0.318h13.277v-5.062l10.951,8.029L34.307,34.217z"/>
</g>
<g id="&#x5716;&#x5C64;_1">
</g>
</svg>
