<?xml version="1.0" encoding="iso-8859-1"?>
<!-- Generator: Adobe Illustrator 17.0.0, SVG Export Plug-In . SVG Version: 6.00 Build 0)  -->
<!DOCTYPE svg PUBLIC "-//W3C//DTD SVG 1.1//EN" "http://www.w3.org/Graphics/SVG/1.1/DTD/svg11.dtd">
<svg version="1.1" xmlns="http://www.w3.org/2000/svg" xmlns:xlink="http://www.w3.org/1999/xlink" x="0px" y="0px"
	 width="74.152px" height="74.152px" viewBox="0 0 74.152 74.152" style="enable-background:new 0 0 74.152 74.152;"
	 xml:space="preserve">
<g id="_x37__location_web_site">
	<g>
		<polygon style="fill:#333333;" points="64.666,29.722 64.992,29.558 65.115,29.234 65.062,29.27 64.701,29.061 64.312,28.99 
			64.162,29.457 64.334,29.698 		"/>
		<polygon style="fill:#333333;" points="66.387,31.89 66.236,31.374 63.08,29.326 62.32,29.279 61.641,30.026 61.299,30.958 
			61.582,31.472 		"/>
		<polygon style="fill:#333333;" points="17.998,29.423 17.635,30.729 18.812,29.393 18.91,28.977 18.403,28.777 		"/>
		<polygon style="fill:#333333;" points="18.711,27.318 18.707,27.389 16.686,28.339 19.241,27.834 		"/>
		<polygon style="fill:#333333;" points="20.24,29.851 20.489,29.651 20.707,29.146 20.671,29.214 20.848,28.619 20.365,28.549 
			19.998,28.643 19.757,28.9 19.635,29.326 19.957,29.741 		"/>
		<polygon style="fill:#333333;" points="60.596,20.75 60.232,20.549 58.615,20.449 57.936,19.875 58.758,16.843 54.736,23.351 
			53.68,24.142 55.639,24.886 		"/>
		<polygon style="fill:#333333;" points="64.389,38.785 68.391,45.143 65.162,39.133 		"/>
		<path style="fill:#333333;" d="M37.08,0C16.604,0,0,16.599,0,37.077c0,20.478,16.604,37.075,37.08,37.075
			c20.475,0,37.072-16.598,37.072-37.075C74.152,16.599,57.555,0,37.08,0z M49.436,25.474L49.35,26.52l-1.518,0.353l-0.641-1.618
			l-0.012-3.153L49.436,25.474z M49.15,17.312l-0.949,0.74l-1.479-0.143l-0.121-0.301l0.047-1.363l1.096,0.242l1.148-0.258
			l0.539,0.217L49.15,17.312z M28.863,5.673L29.527,4.8c1.107-0.254,2.232-0.457,3.382-0.602l-3.599,2.355l-1.857,0.072
			L28.863,5.673z M25.21,6.363L25.905,6.5l2.415,1.371l0.58,0.088l-0.967,0.929L26.37,8.677l-1.222-0.97L25.21,6.363z M23.777,6.676
			l0.146,0.211L23.518,7.38l-0.736,0.315l-0.678,0.041l-0.132-0.178C22.569,7.256,23.162,6.939,23.777,6.676z M20.201,10.913
			l1.25-1.377l0.485,0.25l-0.182,0.895l-0.65,0.766l-0.907-0.133L20.201,10.913z M13.676,13.627l0.98-0.68l-0.18-0.181
			c1.025-0.945,2.103-1.84,3.242-2.65l0.163,0.059L19.5,9.86l-0.047,1.809l-1.871,2.013l-2.396,1.105l-1.63-0.932L13.676,13.627z
			 M4.4,40.662l-0.673-1.506c-0.006-0.111-0.018-0.223-0.018-0.334l0.717,1.23L4.4,40.662z M35.217,61.436l-3.656,2.697L27.447,69.4
			c-2.38-0.717-4.631-1.709-6.752-2.908l-0.117-4.215l-3.93-7.602l0.06-1.482l1.13-2.705l-0.026-1.818l-1.239-1.371l-9.066-3.998
			l-3.011-5.117L3.669,37.88l-0.016,0.053c-0.002-0.111-0.018-0.217-0.018-0.322c-0.067-8.88,3.362-16.956,8.966-22.987l1.031,0.574
			l5.699-1.172l0.674-0.393l0.15,0.311l-0.404,0.762l-0.076,0.334l3.96-5.519l0.287-0.107l0.259-0.002l0.229,0.096l0.205,0.199
			l-2.491,4.642l0.956,0.9l1.348-0.924l0.3-4.163l1.704-0.537l-0.814,1.336l2.527-1.432l0.879,0.203l0.088,0.42l-1.608,0.287
			l3.037,2.587l1.179,2.023l-1.528,1.679l0.245,0.283l-1.112,1.762l-0.269-0.018l-0.57,0.305l-2.62-1.646l2.632-2.149l-0.393-0.869
			L25.6,12.812l-0.805,2.268l-5.431,4.212l-1.777,2.669l1.508,1.718l2.444,1.125l1.029,0.924l2.137-5.466l0.824-0.794l3.664,1.767
			l0.42-0.059l3.01,7.272l-0.904,0.342L30.6,28.732l-0.363-0.484l0.504-0.355l0.283-0.369l0.062-0.387l-0.164-0.409l-4.59,1.302
			l1.807,1.334l1.014,0.129l-6.981,3.89l-3.164,4.604l0.021,2.421l-1.168-0.277l-0.554-1.586l-3.773-0.702l-1.513,0.841
			l-1.272,1.729l-0.25,0.935l0.142,1.141l0.726,0.779l2.024-0.973l0.647,0.076l2.466,4.16l8.12,0.275l3.457,1.312l2.807,3.676
			l4.791,1.422l1.672,1.238L35.217,61.436z M23.936,18.157l-0.438,0.275l-1.392-0.006L21.9,18.21l1.139-1.43l0.307,0.074
			l0.308,0.445L23.936,18.157z M36.367,19.089l-0.763-2.188l0.288-2.073l1.201-2.819l-0.701-4.685L33.971,7.01l-0.344-0.627
			l0.174-0.851l0.888-1.275l0.436-0.236c0.569-0.035,1.131-0.094,1.706-0.1c4.373-0.031,8.537,0.801,12.373,2.294l-2.211,5.923
			l-9.424,8.151L36.367,19.089z M69.307,46.209c-2.053,7.486-6.629,13.924-12.779,18.332L52.01,49.395l-2.373-0.678l-5.262,0.018
			l-3.184-1.877l0.18-3.727l4.273-8.4l-0.209-1.757l0.217-1.436l2.789-1.109l-0.176-0.789l-0.521-0.872l-0.047-0.613l6.451-4.755
			v-0.91l-2.297-1.765l-0.229-0.861l4.885-6.629l1.861-0.8l1.021,0.066c1.215,1.091,2.373,2.245,3.416,3.5l-0.445,0.135l1.211,1.242
			l0.211-0.088c2.844,3.774,4.932,8.156,5.969,12.941l-0.064,0.244l0.18,0.363c0.4,2.029,0.635,4.128,0.656,6.279
			c0.02,3.028-0.396,5.954-1.129,8.747l-0.258,0.16L69.307,46.209z"/>
		<polygon style="fill:#333333;" points="64.641,34.533 59.635,33.173 59.131,32.562 59.23,34.018 59.102,34.13 55.182,30.038 
			55.176,30.067 54.547,30.22 54.441,30.069 54.631,30.858 56.176,31.989 56.293,32.815 55.99,33.323 55.768,33.487 55.486,33.589 
			54.014,31.272 51.799,31.286 47.18,34.715 53.24,34.492 55.98,36.978 57.285,37.435 64.559,35.975 		"/>
	</g>
</g>
<g id="&#x5716;&#x5C64;_1">
</g>
</svg>
