<?xml version="1.0" encoding="iso-8859-1"?>
<!-- Generator: Adobe Illustrator 17.0.0, SVG Export Plug-In . SVG Version: 6.00 Build 0)  -->
<!DOCTYPE svg PUBLIC "-//W3C//DTD SVG 1.1//EN" "http://www.w3.org/Graphics/SVG/1.1/DTD/svg11.dtd">
<svg version="1.1" xmlns="http://www.w3.org/2000/svg" xmlns:xlink="http://www.w3.org/1999/xlink" x="0px" y="0px"
	 width="85.473px" height="74.363px" viewBox="0 0 85.473 74.363" style="enable-background:new 0 0 85.473 74.363;"
	 xml:space="preserve">
<g id="_x37__location_map">
	<g>
		<path style="fill:#333333;" d="M14.171,61.315c-2.402-3.593,2.972-6.771,5.589-9.276c1.436-1.372,10.131-9.582,6.351-11.252
			c-2.306-1.019-10.373-8.166-13.083-6.369c-0.75,0.505-3,0.979-4.191,1.012v6.807c1.057,1.735,4.273,2.818,4.252,5.045
			C13.053,50.836,8.566,60.611,14.171,61.315z M15.545,20.828c0.86-0.735-1.711-2.809-0.06-3.241c0.4-0.103,5.89,3.12,5.926,2.684
			c0.11-1.305-6.05-4.947-7.374-5.7c-4.336-2.452-3.31,1.466-5.402,3.283v6.761c0.205-0.311,1.668-0.643,2.004-1.013
			C12.039,22.066,14.078,22.08,15.545,20.828z M60.034,49.57c1.737-0.996,1.269-5.241,0.77-5.848
			C59.889,44.572,58.418,50.489,60.034,49.57z M43.208,36.359c3.649,1.456,3.404,20.501,9.325,15.449
			c3.119-2.657,3.974-6.02,4.192-9.667c0.113-1.895,5.817-6.636,5.257-7.839c-0.468-0.995-3.468,1.459-3.612-0.739
			c-0.086-1.319-4.036-4.143-3.309-5.164c1.099-1.558,2.67,2.858,2.651,2.811c1.006,2.38,1.871,1.959,4.043,1.413
			c5.035-1.271,0.729-2.861-0.573-4.554c-1.727-2.25,5.501,0.438,5.969,0.443c2.896,0.024,3.398,6.896,4.948,6.555
			c0.99-0.219,3.488-2.726,4.771-4.239V12.775c-1.07,0.023-3.555,0.057-4.623,0.053c-1.259-0.01-7.622,0.601-7.325-1.797
			c0.03-0.226-8.618,2.379-9.542,2.144c-1.106-0.291,1.986-1.762,1.972-1.628c0.065-0.567-0.226-0.923-0.724-1.144h-3.924
			c-3.599,0.678-8.099,2.518-8.915,3.676c0.857-1.215,2.713,3.048,2.74,3.059c0.36,0.156,3.237-4.854,4.376-2.999
			c1.491,2.417-5.015,3.693-6.296,3.192c-0.909-0.356-2.429,1.747-2.786,1.401c-1.053-1.034-0.702-4.468-1.208-4.769
			c-1.481-0.878-2.501,3.775-2.696,4.061c-0.25,0.364,4.59,1.942,2.715,2.874c-0.482,0.241-4.805-0.162-4.125,2.042
			c1.076,3.487,8.688-3.791,9.772-1.247c0.801,1.871,8.728-0.562,10.228-0.935c-1.548,6.337-8.1,4.943-12.569,3.678
			c-4.22-1.192-8.75,3.069-8.952,7.136C34.639,38.773,39.695,34.941,43.208,36.359z M67.309,60.745
			c-1.893,0.717-2.16,3.666-1.792,4.792h11.149V54.465C74.079,56.205,71.513,59.142,67.309,60.745z M11.557,30.963
			c-0.172-1.403-2.298-2.281-2.922-3.172v1.41C9.574,30.111,11.552,30.92,11.557,30.963z M85.473,0H0v74.363h85.473V0z
			 M79.94,68.616H5.364V5.924H79.94V68.616z"/>
	</g>
</g>
<g id="&#x5716;&#x5C64;_1">
</g>
</svg>
