<?xml version="1.0" encoding="iso-8859-1"?>
<!-- Generator: Adobe Illustrator 17.0.0, SVG Export Plug-In . SVG Version: 6.00 Build 0)  -->
<!DOCTYPE svg PUBLIC "-//W3C//DTD SVG 1.1//EN" "http://www.w3.org/Graphics/SVG/1.1/DTD/svg11.dtd">
<svg version="1.1" xmlns="http://www.w3.org/2000/svg" xmlns:xlink="http://www.w3.org/1999/xlink" x="0px" y="0px"
	 width="65.425px" height="72.986px" viewBox="0 0 65.425 72.986" style="enable-background:new 0 0 65.425 72.986;"
	 xml:space="preserve">
<g id="_x31__navigation_refresh">
	<path style="fill-rule:evenodd;clip-rule:evenodd;fill:#333333;" d="M42.818,13.516c-5.547-2.446-11.826-2.83-17.658-0.982
		C14.08,16.022,6.884,26.535,7.631,38.111L0.07,38.604c-0.98-15.07,8.4-28.758,22.805-33.307c8.441-2.66,17.58-1.739,25.344,2.456
		L55.476,0l1.932,21.512L34.621,22.27L42.818,13.516z M42.537,67.688c-3.193,1.001-6.51,1.506-9.805,1.506
		c-5.369,0-10.695-1.384-15.507-3.973l-7.268,7.765L8.026,51.473L30.8,50.707l-8.188,8.764c5.54,2.436,11.817,2.82,17.651,0.98
		c11.078-3.498,18.285-14.021,17.527-25.575l7.563-0.496C66.344,49.431,56.963,63.129,42.537,67.688z"/>
</g>
<g id="&#x5716;&#x5C64;_1">
</g>
</svg>
