<?xml version="1.0" encoding="iso-8859-1"?>
<!-- Generator: Adobe Illustrator 17.0.0, SVG Export Plug-In . SVG Version: 6.00 Build 0)  -->
<!DOCTYPE svg PUBLIC "-//W3C//DTD SVG 1.1//EN" "http://www.w3.org/Graphics/SVG/1.1/DTD/svg11.dtd">
<svg version="1.1" xmlns="http://www.w3.org/2000/svg" xmlns:xlink="http://www.w3.org/1999/xlink" x="0px" y="0px"
	 width="53.549px" height="52.622px" viewBox="0 0 53.549 52.622" style="enable-background:new 0 0 53.549 52.622;"
	 xml:space="preserve">
<g id="_x33__rating_bad">
	<path style="fill:#333333;" d="M51.433,5.565c-5.229,0-9.518-0.232-12.324-1.013c-4.682-2.028-10.683-3.193-15.052-3.82
		c-8.299-1.185-11.82-0.73-14.403-0.049L9.646,0.728c-1.36,0.396-2.349,1.357-2.812,3.014c-0.44,1.56-0.186,2.562,0.699,3.141
		L6.765,6.984c-2.238,0.416-3.846,1.522-4.1,4.143c-0.182,1.876,0.412,3.07,1.613,3.57c-2.17,0.037-3.885,1.07-4.236,3.891
		c-0.324,2.582,1.244,4.26,3.389,4.351c-1.938,0.27-3.311,1.579-3.311,4.072c0,2.732,1.793,4.444,4.444,4.678l0.043-0.004
		c3.192,0.434,8.438,0.565,11.56,0.764c0.624,2.183,0.407,2.98-0.448,4.929c-2.967,3.2-4.525,6.395-4.058,10.842
		c0.171,1.62,1.669,4.192,2.807,4.366c1.965,0.301,2.553-1.284,3.957-3.625c1.479-2.461,2.199-3.082,3.918-6.043
		c1.713-2.967,1.949-3.666,8.187-8.033c5.675-3.968,4.914-5.457,11.465-6.701c1.179-0.227,4.678-0.823,9.438-0.823
		c1.168,0,2.116-2.571,2.116-10.898C53.549,8.137,52.601,5.565,51.433,5.565z"/>
</g>
<g id="&#x5716;&#x5C64;_1">
</g>
</svg>
