<?xml version="1.0" encoding="iso-8859-1"?>
<!-- Generator: Adobe Illustrator 17.0.0, SVG Export Plug-In . SVG Version: 6.00 Build 0)  -->
<!DOCTYPE svg PUBLIC "-//W3C//DTD SVG 1.1//EN" "http://www.w3.org/Graphics/SVG/1.1/DTD/svg11.dtd">
<svg version="1.1" xmlns="http://www.w3.org/2000/svg" xmlns:xlink="http://www.w3.org/1999/xlink" x="0px" y="0px"
	 width="53.549px" height="52.623px" viewBox="0 0 53.549 52.623" style="enable-background:new 0 0 53.549 52.623;"
	 xml:space="preserve">
<g id="_x33__rating_good">
	<g>
		<path style="fill:#333333;" d="M50.118,29.684c1.939-0.271,3.311-1.577,3.311-4.072c0-2.733-1.793-4.445-4.443-4.68l-0.043,0.004
			c-3.195-0.434-8.436-0.563-11.558-0.763c-0.624-2.183-0.409-2.982,0.447-4.929c2.966-3.2,4.524-6.394,4.058-10.844
			c-0.17-1.618-1.668-4.191-2.807-4.365c-1.967-0.301-2.555,1.283-3.959,3.625c-1.478,2.461-2.199,3.082-3.918,6.044
			c-1.713,2.965-1.949,3.665-8.188,8.032c-5.674,3.967-4.915,5.457-11.465,6.703c-1.178,0.227-4.676,0.82-9.436,0.82
			C0.947,25.261,0,27.834,0,36.162c0,8.325,0.947,10.896,2.117,10.896c5.227,0,9.518,0.231,12.324,1.012
			c4.679,2.027,10.682,3.193,15.052,3.82c8.3,1.186,11.818,0.73,14.402,0.049l0.009-0.046c1.36-0.393,2.349-1.356,2.813-3.013
			c0.438-1.559,0.185-2.562-0.699-3.141l0.768-0.1c2.236-0.418,3.846-1.523,4.098-4.146c0.182-1.874-0.41-3.069-1.611-3.57
			c2.17-0.035,3.885-1.068,4.234-3.891C53.829,31.453,52.261,29.775,50.118,29.684z"/>
	</g>
</g>
<g id="&#x5716;&#x5C64;_1">
</g>
</svg>
