<?xml version="1.0" encoding="iso-8859-1"?>
<!-- Generator: Adobe Illustrator 17.0.0, SVG Export Plug-In . SVG Version: 6.00 Build 0)  -->
<!DOCTYPE svg PUBLIC "-//W3C//DTD SVG 1.1//EN" "http://www.w3.org/Graphics/SVG/1.1/DTD/svg11.dtd">
<svg version="1.1" xmlns="http://www.w3.org/2000/svg" xmlns:xlink="http://www.w3.org/1999/xlink" x="0px" y="0px"
	 width="77.971px" height="74.158px" viewBox="0 0 77.971 74.158" style="enable-background:new 0 0 77.971 74.158;"
	 xml:space="preserve">
<g id="_x33__rating_not_important">
	<path style="fill:#333333;" d="M38.984,7.286l8.375,19.686l0.67,1.574l1.703,0.15l21.31,1.879L54.908,44.625l-1.29,1.123
		l0.384,1.667l4.796,20.85L40.45,57.26l-1.467-0.88l-1.467,0.88L19.17,68.264l4.799-20.849l0.383-1.667l-1.29-1.123L6.929,30.576
		l21.31-1.879l1.704-0.15l0.67-1.574L38.984,7.286 M38.983,0L27.988,25.856L0,28.324l21.189,18.451l-6.303,27.383l24.097-14.453
		L63.08,74.158l-6.299-27.383l21.189-18.451l-27.988-2.469L38.983,0L38.983,0z"/>
</g>
<g id="&#x5716;&#x5C64;_1">
</g>
</svg>
