<?xml version="1.0" encoding="iso-8859-1"?>
<!-- Generator: Adobe Illustrator 17.0.0, SVG Export Plug-In . SVG Version: 6.00 Build 0)  -->
<!DOCTYPE svg PUBLIC "-//W3C//DTD SVG 1.1//EN" "http://www.w3.org/Graphics/SVG/1.1/DTD/svg11.dtd">
<svg version="1.1" xmlns="http://www.w3.org/2000/svg" xmlns:xlink="http://www.w3.org/1999/xlink" x="0px" y="0px"
	 width="50.912px" height="55.891px" viewBox="0 0 50.912 55.891" style="enable-background:new 0 0 50.912 55.891;"
	 xml:space="preserve">
<g id="_x33__rating_favorite">
	<g>
		<path style="fill:#333333;" d="M25.455,10.341c2.303-5.186,6.336-10.206,12.096-10.206c3.366,0,6.469,1.638,9.305,4.913
			c2.701,3.108,4.057,6.231,4.057,9.374c0,4.696-1.289,9.612-3.857,14.756c-2.217,4.429-5.407,9.101-9.572,14.02
			c-3.146,3.722-7.199,7.952-12.159,12.693c-4.301-4.122-8.153-8.216-11.565-12.294c-4.168-5.007-7.4-9.682-9.705-14.025
			C1.355,24.435,0,19.827,0,15.753c0-3.9,1.195-7.422,3.592-10.566C6.206,1.726,9.393,0,13.162,0
			C19.096,0,23.195,5.067,25.455,10.341z"/>
	</g>
</g>
<g id="&#x5716;&#x5C64;_1">
</g>
</svg>
