<?xml version="1.0" encoding="iso-8859-1"?>
<!-- Generator: Adobe Illustrator 17.0.0, SVG Export Plug-In . SVG Version: 6.00 Build 0)  -->
<!DOCTYPE svg PUBLIC "-//W3C//DTD SVG 1.1//EN" "http://www.w3.org/Graphics/SVG/1.1/DTD/svg11.dtd">
<svg version="1.1" xmlns="http://www.w3.org/2000/svg" xmlns:xlink="http://www.w3.org/1999/xlink" x="0px" y="0px" width="83.91px"
	 height="57.758px" viewBox="0 0 83.91 57.758" style="enable-background:new 0 0 83.91 57.758;" xml:space="preserve">
<g id="_x36__social_group">
	<g>
		<g>
			<path style="fill:#333333;" d="M41.945,0C31.292,0,22.656,8.636,22.656,19.291c0,10.658,8.636,19.295,19.289,19.295
				c10.66,0,19.293-8.637,19.293-19.295C61.238,8.636,52.605,0,41.945,0z M42.888,34.568c-5.752,0-10.81-3.774-13.758-9.49h27.511
				C53.693,30.795,48.641,34.568,42.888,34.568z"/>
			<g>
				<path style="fill:#333333;" d="M21.02,26.97c-1.53,1.617-3.48,2.605-5.62,2.605c-3.094,0-5.812-2.03-7.397-5.104h12.268
					c-0.398-1.663-0.615-3.397-0.615-5.181c0-2.283,0.347-4.486,0.986-6.562c-1.646-1.098-3.622-1.74-5.75-1.74
					c-5.729,0-10.37,4.643-10.37,10.372c0,5.73,4.642,10.374,10.37,10.374c2.7,0,5.15-1.039,6.996-2.729
					C21.566,28.345,21.276,27.666,21.02,26.97z"/>
			</g>
			<g>
				<path style="fill:#333333;" d="M69.012,10.988c-2.131,0-4.111,0.644-5.758,1.746c0.641,2.074,0.984,4.275,0.984,6.557
					c0,1.783-0.215,3.518-0.613,5.181h13.289c-1.584,3.073-4.301,5.104-7.395,5.104c-2.498,0-4.74-1.339-6.35-3.468
					c-0.32,0.996-0.707,1.962-1.158,2.891c1.846,1.693,4.299,2.736,7,2.736c5.732,0,10.375-4.644,10.375-10.374
					C79.387,15.631,74.744,10.988,69.012,10.988z"/>
			</g>
		</g>
		<g>
			<path style="fill:#333333;" d="M53.588,41.086c-3.471,1.861-7.434,2.92-11.643,2.92c-4.205,0-8.166-1.059-11.637-2.92
				c-7.494,1.971-13.367,6.637-16.062,16.672h55.405C66.961,47.721,61.088,43.055,53.588,41.086z"/>
			<g>
				<g>
					<path style="fill:#333333;" d="M27.217,36.787c-1.601-1.941-3.677-3.082-6.065-3.709c-1.864,1-3.995,1.57-6.259,1.57
						c-2.26,0-4.392-0.568-6.257-1.57C4.606,34.138,1.448,36.646,0,42.043h17.858C20.479,39.725,23.601,37.969,27.217,36.787z"/>
				</g>
			</g>
			<g>
				<g>
					<path style="fill:#333333;" d="M66.045,42.043H83.91c-1.447-5.396-4.605-7.906-8.639-8.965c-1.865,1-3.996,1.57-6.26,1.57
						c-2.26,0-4.391-0.568-6.256-1.57c-2.385,0.627-4.461,1.77-6.062,3.711C60.307,37.971,63.424,39.727,66.045,42.043z"/>
				</g>
			</g>
		</g>
	</g>
</g>
<g id="&#x5716;&#x5C64;_1">
</g>
</svg>
