<?xml version="1.0" encoding="iso-8859-1"?>
<!-- Generator: Adobe Illustrator 17.0.0, SVG Export Plug-In . SVG Version: 6.00 Build 0)  -->
<!DOCTYPE svg PUBLIC "-//W3C//DTD SVG 1.1//EN" "http://www.w3.org/Graphics/SVG/1.1/DTD/svg11.dtd">
<svg version="1.1" xmlns="http://www.w3.org/2000/svg" xmlns:xlink="http://www.w3.org/1999/xlink" x="0px" y="0px"
	 width="65.223px" height="68.482px" viewBox="0 0 65.223 68.482" style="enable-background:new 0 0 65.223 68.482;"
	 xml:space="preserve">
<g id="_x36__social_share">
	<path style="fill:#333333;" d="M54.527,47.124c-3.232,0-6.123,1.44-8.088,3.704L20.986,37.134c0.26-0.921,0.408-1.888,0.408-2.893
		c0-1.005-0.148-1.972-0.408-2.892l25.453-13.695c1.965,2.264,4.855,3.705,8.088,3.705c5.898,0,10.695-4.793,10.695-10.666
		C65.223,4.796,60.426,0,54.527,0c-5.904,0-10.699,4.796-10.699,10.693c0,1.003,0.148,1.97,0.41,2.891L18.771,27.258
		c-1.962-2.251-4.851-3.678-8.078-3.678C4.795,23.58,0,28.338,0,34.241c0,5.904,4.795,10.661,10.693,10.661
		c3.228,0,6.116-1.426,8.08-3.68l25.465,13.677c-0.262,0.921-0.41,1.888-0.41,2.888c0,5.9,4.795,10.695,10.699,10.695
		c5.898,0,10.695-4.795,10.695-10.695C65.223,51.915,60.426,47.124,54.527,47.124z"/>
</g>
<g id="&#x5716;&#x5C64;_1">
</g>
</svg>
