<?xml version="1.0" encoding="iso-8859-1"?>
<!-- Generator: Adobe Illustrator 17.0.0, SVG Export Plug-In . SVG Version: 6.00 Build 0)  -->
<!DOCTYPE svg PUBLIC "-//W3C//DTD SVG 1.1//EN" "http://www.w3.org/Graphics/SVG/1.1/DTD/svg11.dtd">
<svg version="1.1" xmlns="http://www.w3.org/2000/svg" xmlns:xlink="http://www.w3.org/1999/xlink" x="0px" y="0px"
	 width="71.387px" height="57.141px" viewBox="0 0 71.387 57.141" style="enable-background:new 0 0 71.387 57.141;"
	 xml:space="preserve">
<g id="_x36__social_cc_bcc">
	<g>
		<g>
			<path style="fill:#333333;" d="M24.015,41.158c9.123,0,16.513-7.391,16.513-16.514c0-9.12-7.39-16.512-16.513-16.512
				c-9.12,0-16.512,7.392-16.512,16.512C7.503,33.768,14.894,41.158,24.015,41.158z M36.595,29.598
				c-2.523,4.892-6.851,8.125-11.775,8.125c-4.921,0-9.252-3.232-11.774-8.125H36.595z M33.98,43.301
				c-2.97,1.592-6.363,2.5-9.966,2.5c-3.6,0-6.99-0.906-9.962-2.5C7.638,44.986,2.609,48.98,0.307,57.57h47.422
				C45.424,48.98,40.398,44.984,33.98,43.301z M43.74,21.894h16.816c-2.521,4.892-6.85,8.124-11.773,8.124
				c-1.859,0-3.635-0.462-5.26-1.301c-0.271,1.295-0.662,2.545-1.172,3.734c1.758,0.639,3.648,1.004,5.627,1.004
				c9.123,0,16.514-7.392,16.514-16.515c0-9.119-7.391-16.511-16.514-16.511c-5.664,0-10.656,2.854-13.631,7.198
				C39.35,10.676,42.9,15.85,43.74,21.894z M57.943,35.598c-2.969,1.592-6.363,2.498-9.965,2.498c-2.824,0-5.516-0.564-7.98-1.574
				c-1.086,1.451-2.359,2.754-3.791,3.865c5.375,1.705,9.365,4.838,12.062,9.479h23.424C69.389,41.275,64.363,37.281,57.943,35.598z
				"/>
		</g>
	</g>
</g>
<g id="&#x5716;&#x5C64;_1">
</g>
</svg>
