<?xml version="1.0" encoding="iso-8859-1"?>
<!-- Generator: Adobe Illustrator 17.0.0, SVG Export Plug-In . SVG Version: 6.00 Build 0)  -->
<!DOCTYPE svg PUBLIC "-//W3C//DTD SVG 1.1//EN" "http://www.w3.org/Graphics/SVG/1.1/DTD/svg11.dtd">
<svg version="1.1" xmlns="http://www.w3.org/2000/svg" xmlns:xlink="http://www.w3.org/1999/xlink" x="0px" y="0px"
	 width="55.395px" height="57.746px" viewBox="0 0 55.395 57.746" style="enable-background:new 0 0 55.395 57.746;"
	 xml:space="preserve">
<g id="_x36__social_person">
	<g>
		<path style="fill:#333333;" d="M27.693,0C17.041,0,8.407,8.634,8.407,19.287c0,10.656,8.633,19.289,19.286,19.289
			c10.656,0,19.29-8.633,19.29-19.289C46.983,8.634,38.35,0,27.693,0z M28.634,34.562c-5.749,0-10.807-3.775-13.754-9.49h27.508
			C39.44,30.787,34.386,34.562,28.634,34.562z"/>
		<path style="fill:#333333;" d="M39.334,41.078c-3.469,1.859-7.433,2.92-11.641,2.92c-4.204,0-8.166-1.059-11.636-2.92
			C8.564,43.047,2.691,47.713,0,57.746h55.395C52.703,47.711,46.832,43.045,39.334,41.078z"/>
	</g>
</g>
<g id="&#x5716;&#x5C64;_1">
</g>
</svg>
