<?xml version="1.0" encoding="iso-8859-1"?>
<!-- Generator: Adobe Illustrator 17.0.0, SVG Export Plug-In . SVG Version: 6.00 Build 0)  -->
<!DOCTYPE svg PUBLIC "-//W3C//DTD SVG 1.1//EN" "http://www.w3.org/Graphics/SVG/1.1/DTD/svg11.dtd">
<svg version="1.1" xmlns="http://www.w3.org/2000/svg" xmlns:xlink="http://www.w3.org/1999/xlink" x="0px" y="0px"
	 width="92.815px" height="80.541px" viewBox="0 0 92.815 80.541" style="enable-background:new 0 0 92.815 80.541;"
	 xml:space="preserve">
<g id="_x36__social_add_group">
	<g>
		<polygon style="fill:#333333;" points="79.803,63.607 79.803,50.481 75.821,50.481 75.821,63.607 62.894,63.607 62.894,67.59 
			75.821,67.59 75.821,80.541 79.803,80.541 79.803,67.59 92.815,67.59 92.815,63.607 		"/>
		<g>
			<g>
				<path style="fill:#333333;" d="M43.099,39.646c10.954,0,19.825-8.873,19.825-19.825C62.924,8.873,54.053,0,43.099,0
					C32.153,0,23.281,8.873,23.281,19.821C23.281,30.773,32.153,39.646,43.099,39.646z M58.201,25.768
					c-3.029,5.874-8.222,9.753-14.133,9.753c-5.909,0-11.108-3.879-14.136-9.753H58.201z M15.302,32.607
					c2.774,0,5.292-1.067,7.189-2.803c-0.33-0.68-0.629-1.378-0.892-2.093c-1.572,1.661-3.575,2.677-5.774,2.677
					c-3.179,0-5.973-2.086-7.601-5.244H20.83c-0.408-1.709-0.632-3.49-0.632-5.323c0-2.346,0.356-4.61,1.014-6.743
					c-1.691-1.128-3.723-1.788-5.909-1.788c-5.885,0-10.655,4.771-10.655,10.658S9.417,32.607,15.302,32.607z M81.572,21.948
					c0-5.888-4.771-10.658-10.66-10.658c-2.189,0-4.224,0.663-5.916,1.795c0.657,2.131,1.013,4.393,1.013,6.736
					c0,1.833-0.224,3.614-0.632,5.323h13.655c-1.629,3.158-4.421,5.244-7.599,5.244c-2.566,0-4.87-1.376-6.524-3.562
					c-0.33,1.022-0.727,2.016-1.189,2.97c1.896,1.741,4.416,2.812,7.192,2.812C76.801,32.607,81.572,27.836,81.572,21.948z
					 M55.062,42.216c-3.565,1.913-7.637,3.002-11.963,3.002c-4.319,0-8.391-1.089-11.956-3.001
					c-7.7,2.023-13.735,6.819-16.504,17.13H71.57C68.803,49.034,62.77,44.238,55.062,42.216z M27.966,37.799
					c-1.645-1.993-3.778-3.167-6.231-3.811c-1.917,1.028-4.106,1.614-6.433,1.614c-2.322,0-4.511-0.586-6.428-1.613
					c-4.14,1.088-7.385,3.666-8.874,9.21h18.35C21.043,40.817,24.252,39.014,27.966,37.799z M70.912,35.602
					c-2.321,0-4.512-0.586-6.428-1.613c-2.451,0.644-4.585,1.817-6.23,3.812c3.713,1.214,6.918,3.017,9.608,5.397H86.22
					c-1.487-5.545-4.732-8.123-8.877-9.211C75.427,35.017,73.237,35.602,70.912,35.602z"/>
			</g>
		</g>
	</g>
</g>
<g id="&#x5716;&#x5C64;_1">
</g>
</svg>
