<?xml version="1.0" encoding="iso-8859-1"?>
<!-- Generator: Adobe Illustrator 17.0.0, SVG Export Plug-In . SVG Version: 6.00 Build 0)  -->
<!DOCTYPE svg PUBLIC "-//W3C//DTD SVG 1.1//EN" "http://www.w3.org/Graphics/SVG/1.1/DTD/svg11.dtd">
<svg version="1.1" xmlns="http://www.w3.org/2000/svg" xmlns:xlink="http://www.w3.org/1999/xlink" x="0px" y="0px"
	 width="78.176px" height="80.541px" viewBox="0 0 78.176 80.541" style="enable-background:new 0 0 78.176 80.541;"
	 xml:space="preserve">
<g id="_x36__social_add_person">
	<g>
		<polygon style="fill:#333333;" points="65.164,63.607 65.164,50.481 61.182,50.481 61.182,63.607 48.255,63.607 48.255,67.59 
			61.182,67.59 61.182,80.541 65.164,80.541 65.164,67.59 78.176,67.59 78.176,63.607 		"/>
		<path style="fill:#333333;" d="M28.46,0C17.514,0,8.642,8.873,8.642,19.821c0,10.952,8.872,19.825,19.818,19.825
			c10.954,0,19.825-8.873,19.825-19.825C48.285,8.873,39.414,0,28.46,0z M29.429,35.521c-5.909,0-11.107-3.879-14.137-9.753h28.269
			C40.532,31.642,35.34,35.521,29.429,35.521z"/>
		<path style="fill:#333333;" d="M40.423,42.216c-3.564,1.913-7.638,3.002-11.963,3.002c-4.319,0-8.392-1.089-11.956-3.001
			C8.804,44.24,2.769,49.036,0,59.347h56.931C54.164,49.034,48.131,44.238,40.423,42.216z"/>
	</g>
</g>
<g id="&#x5716;&#x5C64;_1">
</g>
</svg>
